<?xml version="1.0" encoding="utf-8"?>
<!-- Generator: Adobe Illustrator 21.0.2, SVG Export Plug-In . SVG Version: 6.00 Build 0)  -->
<svg version="1.1" id="Layer_1" xmlns="http://www.w3.org/2000/svg" xmlns:xlink="http://www.w3.org/1999/xlink" x="0px" y="0px"
	 viewBox="0 0 200 200" style="enable-background:new 0 0 200 200;" xml:space="preserve">
<style type="text/css">
	.st0{fill:#1A1919;}
	.st1{fill:#FFFFFF;}
</style>
<title>Asset 1</title>
<rect class="st0" width="200" height="200"/>
<g id="Layer_2">
	<g id="Layer_1-2">
		<path id="Fill-4" class="st1" d="M29.8,96.2c2.1,0,3.8,1.7,3.8,3.8s-1.7,3.8-3.8,3.8s-3.8-1.7-3.8-3.8c0,0,0,0,0,0
			C26,97.9,27.7,96.2,29.8,96.2"/>
		<path id="Fill-5" class="st1" d="M43.4,96.2c2.1,0,3.8,1.7,3.8,3.8s-1.7,3.8-3.8,3.8c-2.1,0-3.8-1.7-3.8-3.8c0,0,0,0,0,0
			C39.5,97.9,41.3,96.2,43.4,96.2"/>
		<path id="Fill-6" class="st1" d="M57,96.2c2.1,0,3.8,1.7,3.8,3.8s-1.7,3.8-3.8,3.8s-3.8-1.7-3.8-3.8S54.9,96.2,57,96.2L57,96.2"/>
		<path id="Fill-7" class="st1" d="M69.8,96.2c2.1,0,3.8,1.7,3.8,3.8s-1.7,3.8-3.8,3.8s-3.8-1.7-3.8-3.8S67.7,96.2,69.8,96.2
			L69.8,96.2"/>
		<path id="Fill-8" class="st1" d="M64.7,86.6c2.1,0,3.8,1.7,3.8,3.8s-1.7,3.8-3.8,3.8c-2.1,0-3.8-1.7-3.8-3.8S62.6,86.6,64.7,86.6
			L64.7,86.6"/>
		<path id="Fill-9" class="st1" d="M51.9,82.8c2.1,0,3.8,1.7,3.8,3.8s-1.7,3.8-3.8,3.8c-2.1,0-3.8-1.7-3.8-3.8S49.8,82.8,51.9,82.8
			L51.9,82.8"/>
		<path id="Fill-10" class="st1" d="M38.4,78.9c2.1,0,3.8,1.7,3.8,3.8s-1.7,3.8-3.8,3.8c-2.1,0-3.8-1.7-3.8-3.8
			C34.5,80.7,36.3,78.9,38.4,78.9L38.4,78.9"/>
		<path id="Fill-11" class="st1" d="M37.3,131.8c1.8-1.1,4.2-0.5,5.3,1.3s0.5,4.2-1.3,5.3c-1.8,1.1-4.2,0.5-5.3-1.3c0,0,0,0,0,0
			c-1.1-1.8-0.4-4.2,1.4-5.2"/>
		<path id="Fill-12" class="st1" d="M49,125c1.8-1.1,4.2-0.4,5.2,1.4c1.1,1.8,0.4,4.2-1.4,5.2c-1.8,1.1-4.2,0.4-5.2-1.4c0,0,0,0,0,0
			C46.6,128.4,47.2,126.1,49,125"/>
		<path id="Fill-13" class="st1" d="M60.9,118.2c1.8-1.1,4.2-0.4,5.2,1.4c1.1,1.8,0.4,4.2-1.4,5.2c-1.8,1.1-4.2,0.4-5.2-1.4
			c0,0,0,0,0,0C58.4,121.6,59,119.3,60.9,118.2C60.9,118.2,60.9,118.2,60.9,118.2"/>
		<path id="Fill-14" class="st1" d="M71.9,111.8c1.8-1.1,4.2-0.4,5.2,1.4c1.1,1.8,0.4,4.2-1.4,5.2c-1.8,1.1-4.2,0.4-5.2-1.4
			c0,0,0,0,0,0C69.5,115.2,70.1,112.9,71.9,111.8"/>
		<path id="Fill-15" class="st1" d="M62.7,106.1c1.8-1.1,4.2-0.5,5.3,1.4s0.5,4.2-1.4,5.3c-1.8,1.1-4.2,0.5-5.3-1.4c0,0,0,0,0-0.1
			C60.3,109.4,60.9,107.1,62.7,106.1"/>
		<path id="Fill-16" class="st1" d="M49.7,109.1c1.8-1.1,4.2-0.4,5.2,1.4c1.1,1.8,0.4,4.2-1.4,5.2c-1.8,1.1-4.2,0.4-5.2-1.4
			c0,0,0,0,0,0C47.3,112.5,47.9,110.2,49.7,109.1"/>
		<path id="Fill-17" class="st1" d="M36,112.6c1.8-1.1,4.2-0.4,5.2,1.4c1.1,1.8,0.4,4.2-1.4,5.2c-1.8,1.1-4.2,0.4-5.2-1.4
			c0,0,0,0,0,0C33.5,116,34.2,113.7,36,112.6C36,112.6,36,112.6,36,112.6"/>
		<path id="Fill-18" class="st1" d="M61.6,158.9c1.1-1.8,3.4-2.5,5.2-1.4c1.8,1.1,2.5,3.4,1.4,5.2c-1.1,1.8-3.4,2.5-5.2,1.4
			c0,0,0,0,0,0C61.2,163.1,60.5,160.8,61.6,158.9"/>
		<path id="Fill-19" class="st1" d="M68.4,147.2c1-1.8,3.4-2.5,5.2-1.4s2.5,3.4,1.4,5.2s-3.4,2.5-5.2,1.4c0,0,0,0,0,0
			C68,151.3,67.3,149,68.4,147.2"/>
		<path id="Fill-20" class="st1" d="M75.2,135.3c1-1.8,3.4-2.5,5.2-1.4c1.8,1,2.5,3.4,1.4,5.2c-1,1.8-3.4,2.5-5.2,1.4c0,0,0,0,0,0
			C74.8,139.5,74.2,137.2,75.2,135.3"/>
		<path id="Fill-21" class="st1" d="M81.6,124.3c1-1.8,3.4-2.5,5.2-1.4c1.8,1,2.5,3.4,1.4,5.2c-1,1.8-3.4,2.5-5.2,1.4c0,0,0,0,0,0
			C81.2,128.5,80.5,126.1,81.6,124.3C81.6,124.3,81.6,124.3,81.6,124.3"/>
		<path id="Fill-22" class="st1" d="M70.8,123.8c1.1-1.8,3.4-2.5,5.2-1.4c1.8,1.1,2.5,3.4,1.4,5.2c-1.1,1.8-3.4,2.5-5.2,1.4
			c0,0,0,0,0,0C70.3,128,69.7,125.6,70.8,123.8"/>
		<path id="Fill-23" class="st1" d="M61.1,133.1c1.1-1.8,3.4-2.5,5.2-1.4s2.5,3.4,1.4,5.2c-1.1,1.8-3.4,2.5-5.2,1.4c0,0,0,0,0,0
			C60.7,137.2,60,134.9,61.1,133.1"/>
		<path id="Fill-24" class="st1" d="M51.1,142.9c1-1.8,3.4-2.5,5.2-1.4c1.8,1,2.5,3.4,1.4,5.2c-1,1.8-3.4,2.5-5.2,1.4c0,0,0,0,0,0
			C50.6,147.1,50,144.7,51.1,142.9C51.1,142.9,51.1,142.9,51.1,142.9"/>
		<path id="Fill-25" class="st1" d="M96.2,170.2c-0.1-2.1,1.6-3.9,3.7-3.9c2.1-0.1,3.9,1.6,3.9,3.7c0.1,2.1-1.6,3.9-3.7,3.9
			c0,0-0.1,0-0.1,0C98,174,96.3,172.3,96.2,170.2"/>
		<path id="Fill-26" class="st1" d="M96.2,156.7c0-2.1,1.7-3.8,3.8-3.8s3.8,1.7,3.8,3.8c0,2.1-1.7,3.8-3.8,3.8l0,0
			C97.9,160.5,96.2,158.9,96.2,156.7C96.2,156.7,96.2,156.7,96.2,156.7"/>
		<path id="Fill-27" class="st1" d="M96.2,143c0-2.1,1.7-3.8,3.8-3.8c2.1,0,3.8,1.7,3.8,3.8c0,2.1-1.7,3.8-3.8,3.8l0,0
			C97.9,146.9,96.2,145.1,96.2,143"/>
		<path id="Fill-28" class="st1" d="M96.2,130.3c0-2.1,1.7-3.8,3.8-3.8c2.1,0,3.8,1.7,3.8,3.8c0,2.1-1.7,3.8-3.8,3.8l0,0
			C97.9,134.1,96.2,132.4,96.2,130.3"/>
		<path id="Fill-29" class="st1" d="M86.6,135.4c0-2.1,1.7-3.8,3.8-3.8s3.8,1.7,3.8,3.8c0,2.1-1.7,3.8-3.8,3.8l0,0
			C88.3,139.2,86.6,137.5,86.6,135.4"/>
		<path id="Fill-30" class="st1" d="M82.8,148.1c0-2.1,1.7-3.8,3.8-3.8c2.1,0,3.8,1.7,3.8,3.8c0,2.1-1.7,3.8-3.8,3.8l0,0
			C84.5,152,82.8,150.3,82.8,148.1"/>
		<path id="Fill-31" class="st1" d="M79,161.7c0-2.1,1.7-3.8,3.8-3.8c2.1,0,3.8,1.7,3.8,3.8c0,2.1-1.7,3.8-3.8,3.8l0,0
			C80.7,165.5,79,163.8,79,161.7"/>
		<path id="Fill-32" class="st1" d="M131.8,162.8c-1.1-1.8-0.4-4.2,1.4-5.2c1.8-1.1,4.2-0.4,5.2,1.4c1.1,1.8,0.4,4.2-1.4,5.2
			c0,0,0,0,0,0C135.2,165.2,132.9,164.6,131.8,162.8"/>
		<path id="Fill-33" class="st1" d="M125,151c-1.1-1.8-0.4-4.2,1.4-5.2c1.8-1.1,4.2-0.4,5.2,1.4c1.1,1.8,0.4,4.2-1.4,5.2
			c0,0,0,0,0,0C128.4,153.5,126.1,152.9,125,151"/>
		<path id="Fill-34" class="st1" d="M118.2,139.2c-1.1-1.8-0.4-4.2,1.4-5.2c1.8-1.1,4.2-0.4,5.2,1.4c1.1,1.8,0.4,4.2-1.4,5.2
			c0,0,0,0,0,0C121.6,141.7,119.3,141,118.2,139.2"/>
		<path id="Fill-35" class="st1" d="M111.8,128.1c-1.1-1.8-0.4-4.2,1.4-5.2c1.8-1.1,4.2-0.4,5.2,1.4s0.4,4.2-1.4,5.2c0,0,0,0,0,0
			C115.2,130.6,112.9,130,111.8,128.1"/>
		<path id="Fill-36" class="st1" d="M106.1,137.3c-1.1-1.8-0.4-4.2,1.4-5.2c1.8-1.1,4.2-0.4,5.2,1.4c1.1,1.8,0.4,4.2-1.4,5.2
			c0,0,0,0,0,0C109.5,139.8,107.1,139.2,106.1,137.3"/>
		<path id="Fill-37" class="st1" d="M109.2,150.3c-1.1-1.8-0.4-4.2,1.4-5.2c1.8-1.1,4.2-0.4,5.2,1.4s0.4,4.2-1.4,5.2c0,0,0,0,0,0
			C112.6,152.8,110.2,152.2,109.2,150.3"/>
		<path id="Fill-38" class="st1" d="M112.6,163.9c-1.1-1.8-0.4-4.2,1.4-5.2c1.8-1.1,4.2-0.4,5.2,1.4c1.1,1.8,0.4,4.2-1.4,5.2
			c0,0,0,0,0,0C116,166.4,113.7,165.8,112.6,163.9C112.6,164,112.6,164,112.6,163.9"/>
		<path id="Fill-39" class="st1" d="M158.9,138.5c-1.8-1.1-2.5-3.4-1.4-5.2c1.1-1.8,3.4-2.5,5.2-1.4s2.5,3.4,1.4,5.2c0,0,0,0,0,0
			C163.1,138.9,160.8,139.5,158.9,138.5"/>
		<path id="Fill-40" class="st1" d="M147.2,131.7c-1.8-1.1-2.5-3.4-1.4-5.2c1.1-1.8,3.4-2.5,5.2-1.4c1.8,1.1,2.5,3.4,1.4,5.2
			c0,0,0,0,0,0C151.4,132.1,149,132.7,147.2,131.7"/>
		<path id="Fill-41" class="st1" d="M135.3,124.9c-1.8-1.1-2.5-3.4-1.4-5.2c1.1-1.8,3.4-2.5,5.2-1.4c1.8,1.1,2.5,3.4,1.4,5.2
			c0,0,0,0,0,0C139.5,125.3,137.2,125.9,135.3,124.9"/>
		<path id="Fill-42" class="st1" d="M124.3,118.5c-1.8-1.1-2.5-3.4-1.4-5.2c1.1-1.8,3.4-2.5,5.2-1.4c1.8,1.1,2.5,3.4,1.4,5.2
			c0,0,0,0,0,0C128.5,118.9,126.1,119.5,124.3,118.5"/>
		<path id="Fill-43" class="st1" d="M123.8,129.3c-1.8-1.1-2.5-3.4-1.4-5.2c1.1-1.8,3.4-2.5,5.2-1.4c1.8,1.1,2.5,3.4,1.4,5.2
			c0,0,0,0,0,0C128,129.7,125.6,130.4,123.8,129.3"/>
		<path id="Fill-44" class="st1" d="M133.1,139c-1.8-1.1-2.5-3.4-1.4-5.2c1.1-1.8,3.4-2.5,5.2-1.4c1.8,1.1,2.5,3.4,1.4,5.2
			c0,0,0,0,0,0C137.2,139.4,134.9,140.1,133.1,139"/>
		<path id="Fill-45" class="st1" d="M142.9,149.1c-1.8-1.1-2.5-3.4-1.4-5.2c1.1-1.8,3.4-2.5,5.2-1.4c1.8,1.1,2.5,3.4,1.4,5.2
			c0,0,0,0,0,0C147.1,149.6,144.7,150.2,142.9,149.1"/>
		<path id="Fill-46" class="st1" d="M170.2,103.7c-2.1,0.1-3.9-1.6-3.9-3.7c-0.1-2.1,1.6-3.9,3.7-3.9s3.9,1.6,3.9,3.7
			c0,0.1,0,0.1,0,0.2C173.9,102.1,172.3,103.7,170.2,103.7"/>
		<path id="Fill-47" class="st1" d="M156.7,103.7c-2.1,0-3.8-1.7-3.8-3.8s1.7-3.8,3.8-3.8c2.1,0,3.8,1.7,3.8,3.8l0,0
			C160.5,102,158.8,103.7,156.7,103.7"/>
		<path id="Fill-48" class="st1" d="M143,103.7c-2.1,0-3.8-1.7-3.8-3.8c0-2.1,1.7-3.8,3.8-3.8s3.8,1.7,3.8,3.8l0,0
			C146.9,102,145.1,103.7,143,103.7"/>
		<path id="Fill-49" class="st1" d="M130.3,103.7c-2.1,0-3.8-1.7-3.8-3.8c0-2.1,1.7-3.8,3.8-3.8c2.1,0,3.8,1.7,3.8,3.8l0,0
			C134.1,102,132.4,103.7,130.3,103.7"/>
		<path id="Fill-50" class="st1" d="M135.4,113.5c-2.1,0-3.8-1.7-3.8-3.8c0-2.1,1.7-3.8,3.8-3.8c2.1,0,3.8,1.7,3.8,3.8c0,0,0,0,0,0
			C139.2,111.7,137.5,113.5,135.4,113.5"/>
		<path id="Fill-51" class="st1" d="M148.1,117.3c-2.1,0-3.8-1.7-3.8-3.8c0-2.1,1.7-3.8,3.8-3.8c2.1,0,3.8,1.7,3.8,3.8c0,0,0,0,0,0
			C152,115.6,150.3,117.3,148.1,117.3"/>
		<path id="Fill-52" class="st1" d="M161.7,121.1c-2.1,0-3.8-1.7-3.8-3.8c0-2.1,1.7-3.8,3.8-3.8c2.1,0,3.8,1.7,3.8,3.8c0,0,0,0,0,0
			C165.5,119.4,163.8,121.1,161.7,121.1"/>
		<path id="Fill-53" class="st1" d="M162.8,68.2c-1.8,1.1-4.2,0.4-5.2-1.4c-1.1-1.8-0.4-4.2,1.4-5.2c1.8-1.1,4.2-0.4,5.2,1.4
			c0,0,0,0,0,0C165.2,64.8,164.6,67.2,162.8,68.2"/>
		<path id="Fill-54" class="st1" d="M151,75c-1.8,1.1-4.2,0.4-5.2-1.4c-1.1-1.8-0.4-4.2,1.4-5.2c1.8-1.1,4.2-0.4,5.2,1.4
			c0,0,0,0,0,0C153.5,71.6,152.9,74,151,75"/>
		<path id="Fill-55" class="st1" d="M139.2,81.8c-1.8,1.1-4.2,0.4-5.2-1.4c-1.1-1.8-0.4-4.2,1.4-5.2c1.8-1.1,4.2-0.4,5.2,1.4
			c0,0,0,0,0,0C141.7,78.4,141,80.8,139.2,81.8"/>
		<path id="Fill-56" class="st1" d="M128.1,88.2c-1.8,1.1-4.2,0.4-5.2-1.4c-1.1-1.8-0.4-4.2,1.4-5.2c1.8-1.1,4.2-0.4,5.2,1.4
			c0,0,0,0,0,0C130.6,84.8,130,87.2,128.1,88.2"/>
		<path id="Fill-57" class="st1" d="M137.3,94c-1.9,1-4.2,0.3-5.2-1.6c-1-1.9-0.3-4.2,1.6-5.2c1.8-1,4.1-0.3,5.1,1.5
			c1.1,1.8,0.4,4.2-1.4,5.2"/>
		<path id="Fill-58" class="st1" d="M150.3,90.9c-1.8,1.1-4.2,0.4-5.2-1.4c-1.1-1.8-0.4-4.2,1.4-5.2c1.8-1.1,4.2-0.4,5.2,1.4
			c0,0,0,0,0,0C152.8,87.5,152.2,89.9,150.3,90.9"/>
		<path id="Fill-59" class="st1" d="M163.9,87.5c-1.8,1.1-4.2,0.4-5.2-1.4c-1.1-1.8-0.4-4.2,1.4-5.2c1.8-1.1,4.2-0.4,5.2,1.4
			c0,0,0,0,0,0C166.4,84.1,165.8,86.4,163.9,87.5"/>
		<path id="Fill-60" class="st1" d="M138.5,41c-1,1.9-3.3,2.6-5.2,1.7c-1.9-1-2.6-3.3-1.7-5.2c1-1.9,3.3-2.6,5.2-1.7
			c0.1,0,0.2,0.1,0.3,0.1C138.8,37.1,139.4,39.2,138.5,41"/>
		<path id="Fill-61" class="st1" d="M131.7,52.9c-1.1,1.8-3.4,2.5-5.2,1.4c-1.8-1.1-2.5-3.4-1.4-5.2c1.1-1.8,3.4-2.5,5.2-1.4
			c0,0,0,0,0,0C132.1,48.7,132.7,51,131.7,52.9"/>
		<path id="Fill-62" class="st1" d="M124.9,64.7c-1.1,1.8-3.4,2.5-5.2,1.4s-2.5-3.4-1.4-5.2c1.1-1.8,3.4-2.5,5.2-1.4c0,0,0,0,0,0
			C125.3,60.5,125.9,62.9,124.9,64.7"/>
		<path id="Fill-63" class="st1" d="M118.5,75.8c-1.1,1.8-3.4,2.5-5.2,1.4s-2.5-3.4-1.4-5.2c1.1-1.8,3.4-2.5,5.2-1.4c0,0,0,0,0,0
			C118.9,71.6,119.5,73.9,118.5,75.8"/>
		<path id="Fill-64" class="st1" d="M129.3,76.2c-1.1,1.8-3.4,2.5-5.2,1.4c-1.8-1.1-2.5-3.4-1.4-5.2c1.1-1.8,3.4-2.5,5.2-1.4
			c0,0,0,0,0,0C129.8,71.9,130.4,74.3,129.3,76.2C129.3,76.1,129.3,76.1,129.3,76.2"/>
		<path id="Fill-65" class="st1" d="M139,67c-1.1,1.8-3.4,2.5-5.2,1.4c-1.8-1.1-2.5-3.4-1.4-5.2s3.4-2.5,5.2-1.4c0,0,0,0,0,0
			C139.5,62.8,140.1,65.2,139,67"/>
		<path id="Fill-66" class="st1" d="M149.1,57.2c-1.1,1.8-3.4,2.5-5.2,1.4s-2.5-3.4-1.4-5.2c1.1-1.8,3.4-2.5,5.2-1.4c0,0,0,0,0,0
			C149.6,53,150.2,55.4,149.1,57.2"/>
		<path id="Fill-67" class="st1" d="M103.7,29.8c0,2.1-1.7,3.8-3.8,3.8c-2.1,0-3.8-1.7-3.8-3.8c0-2.1,1.7-3.8,3.8-3.8
			c0,0,0.1,0,0.1,0C102.1,26,103.7,27.7,103.7,29.8"/>
		<path id="Fill-68" class="st1" d="M103.7,43.4c0,2.1-1.7,3.8-3.8,3.8c-2.1,0-3.8-1.7-3.8-3.8c0-2.1,1.7-3.8,3.8-3.8
			c0,0,0.1,0,0.1,0C102.1,39.6,103.7,41.3,103.7,43.4"/>
		<path id="Fill-69" class="st1" d="M103.7,57c0,2.1-1.7,3.8-3.8,3.8c-2.1,0-3.8-1.7-3.8-3.8c0-2.1,1.7-3.8,3.8-3.8
			S103.7,54.9,103.7,57L103.7,57"/>
		<path id="Fill-70" class="st1" d="M103.7,69.8c0,2.1-1.7,3.8-3.8,3.8s-3.8-1.7-3.8-3.8s1.7-3.8,3.8-3.8S103.7,67.7,103.7,69.8
			L103.7,69.8"/>
		<path id="Fill-71" class="st1" d="M113.4,64.7c0,2.1-1.7,3.8-3.8,3.8s-3.8-1.7-3.8-3.8c0-2.1,1.7-3.8,3.8-3.8l0,0
			C111.7,60.8,113.4,62.6,113.4,64.7"/>
		<path id="Fill-72" class="st1" d="M117.3,51.9c0,2.1-1.7,3.8-3.8,3.8c-2.1,0-3.8-1.7-3.8-3.8c0-2.1,1.7-3.8,3.8-3.8l0,0
			C115.6,48.1,117.3,49.8,117.3,51.9"/>
		<path id="Fill-73" class="st1" d="M121.1,38.4c0,2.1-1.7,3.8-3.8,3.8s-3.8-1.7-3.8-3.8c0-2.1,1.7-3.8,3.8-3.8l0,0
			C119.4,34.5,121.1,36.3,121.1,38.4"/>
		<path id="Fill-74" class="st1" d="M68.2,37.3c1.1,1.8,0.5,4.2-1.3,5.3s-4.2,0.5-5.3-1.3c-1.1-1.8-0.5-4.2,1.3-5.3c0,0,0,0,0,0
			C64.8,35,67.2,35.6,68.2,37.3c0,0.1,0,0.1,0,0.1"/>
		<path id="Fill-75" class="st1" d="M75,49c1.1,1.8,0.4,4.2-1.4,5.2c-1.8,1.1-4.2,0.4-5.2-1.4c-1.1-1.8-0.4-4.2,1.4-5.2c0,0,0,0,0,0
			C71.6,46.6,74,47.2,75,49"/>
		<path id="Fill-76" class="st1" d="M81.8,60.9c1.1,1.8,0.4,4.2-1.4,5.2c-1.8,1.1-4.2,0.4-5.2-1.4c-1.1-1.8-0.4-4.2,1.4-5.2
			c0,0,0,0,0,0C78.4,58.4,80.8,59,81.8,60.9"/>
		<path id="Fill-77" class="st1" d="M88.2,71.9c1.1,1.8,0.4,4.2-1.4,5.2c-1.8,1.1-4.2,0.4-5.2-1.4c-1.1-1.8-0.4-4.2,1.4-5.2
			c0,0,0,0,0,0C84.8,69.5,87.2,70.1,88.2,71.9"/>
		<path id="Fill-78" class="st1" d="M94,62.7c1,1.8,0.4,4.2-1.4,5.2c-1.8,1-4.2,0.4-5.2-1.4c-1-1.8-0.4-4.1,1.4-5.2
			C90.5,60.3,92.9,60.9,94,62.7"/>
		<path id="Fill-79" class="st1" d="M90.9,49.7c1.1,1.8,0.4,4.2-1.4,5.2c-1.8,1.1-4.2,0.4-5.2-1.4c-1.1-1.8-0.4-4.2,1.4-5.2
			c0,0,0,0,0,0C87.5,47.3,89.9,47.9,90.9,49.7"/>
		<path id="Fill-80" class="st1" d="M87.5,36c1.1,1.8,0.4,4.2-1.4,5.2c-1.8,1.1-4.2,0.4-5.2-1.4c-1.1-1.8-0.4-4.2,1.4-5.2
			c0,0,0,0,0,0C84.1,33.6,86.4,34.2,87.5,36"/>
		<path id="Fill-81" class="st1" d="M41,61.6c1.9,1,2.6,3.3,1.7,5.2c-1,1.9-3.3,2.6-5.2,1.7c-1.9-1-2.6-3.3-1.7-5.2
			c0-0.1,0.1-0.2,0.1-0.3C37.1,61.3,39.2,60.7,41,61.6"/>
		<path id="Fill-82" class="st1" d="M52.9,68.4c1.8,1.1,2.5,3.4,1.4,5.2c-1.1,1.8-3.4,2.5-5.2,1.4c-1.8-1.1-2.5-3.4-1.4-5.2
			c0,0,0,0,0,0C48.7,67.9,51,67.3,52.9,68.4"/>
		<path id="Fill-83" class="st1" d="M64.7,75.2c1.8,1.1,2.5,3.4,1.4,5.2c-1.1,1.8-3.4,2.5-5.2,1.4c-1.8-1.1-2.5-3.4-1.4-5.2
			c0,0,0,0,0,0C60.5,74.8,62.9,74.1,64.7,75.2"/>
		<path id="Fill-84" class="st1" d="M75.8,81.6c1.8,1.1,2.5,3.4,1.4,5.2c-1.1,1.8-3.4,2.5-5.2,1.4c-1.8-1.1-2.5-3.4-1.4-5.2
			c0,0,0,0,0,0C71.6,81.2,73.9,80.5,75.8,81.6"/>
		<path id="Fill-85" class="st1" d="M76.1,70.8c1.8,1.1,2.5,3.4,1.4,5.2c-1.1,1.8-3.4,2.5-5.2,1.4c-1.8-1.1-2.5-3.4-1.4-5.2
			c0,0,0,0,0,0C71.9,70.3,74.3,69.7,76.1,70.8C76.1,70.7,76.1,70.7,76.1,70.8"/>
		<path id="Fill-86" class="st1" d="M67,61.1c1.8,1.1,2.5,3.4,1.4,5.2c-1.1,1.8-3.4,2.5-5.2,1.4s-2.5-3.4-1.4-5.2c0,0,0,0,0,0
			C62.8,60.7,65.2,60,67,61.1"/>
		<path id="Fill-87" class="st1" d="M57.2,50.9c1.8,1.1,2.5,3.4,1.4,5.2c-1.1,1.8-3.4,2.5-5.2,1.4c-1.8-1.1-2.5-3.4-1.4-5.2
			c0,0,0,0,0,0C53,50.5,55.3,49.9,57.2,50.9"/>
	</g>
</g>
</svg>
