<?xml version="1.0" encoding="utf-8"?>
<!-- Generator: Adobe Illustrator 21.0.2, SVG Export Plug-In . SVG Version: 6.00 Build 0)  -->
<svg version="1.1" id="Layer_1" xmlns="http://www.w3.org/2000/svg" xmlns:xlink="http://www.w3.org/1999/xlink" x="0px" y="0px"
	 viewBox="0 0 200 200" style="enable-background:new 0 0 200 200;" xml:space="preserve">
<style type="text/css">
	.st0{fill:#3497DA;}
	.st1{fill:#1BBB9A;}
	.st2{fill:#19B4FD;}
	.st3{fill:#36D6B6;}
</style>
<path class="st0" d="M100,200c0-19,0-37.9,0-56.9c0-0.2,0-0.5,0.1-0.7c0.3-0.5,0.8-0.7,1.3-0.9c10.8-6.2,21.6-12.5,32.4-18.7
	c1.1-0.6,2.1-1.3,3.2-1.8c1.1,0.2,1.9,0.9,2.8,1.5c6.8,4.2,13.7,8.3,20.6,12.5c7.7,4.7,15.5,9.4,23.2,14.2c0.3,0.2,0.7,0.3,0.8,0.7
	c-3,1.8-5.9,3.6-8.9,5.4c-24.8,14.7-49.6,29.4-74.4,44.1c-0.3,0.2-0.6,0.3-0.8,0.6C100.1,200,100.1,200,100,200z"/>
<path class="st1" d="M16,50.1c9.2-5.5,18.3-11,27.5-16.4c18.5-11,37.1-22.1,55.6-33.1c0.2-0.1,0.6-0.2,0.7-0.5h0.2l0,56.5
	c0,0.3,0,0.7,0,1c-0.1,0.3-0.5,0.5-0.7,0.6c-8.7,5.1-17.5,10.1-26.2,15.1c-2.7,1.6-5.5,3.1-8.2,4.7c-0.5,0.3-1,0.6-1.6,0.8
	c-0.6,0.1-1-0.2-1.5-0.5C49,70.6,36.3,62.9,23.5,55.2c-2.3-1.4-4.6-2.8-6.9-4.2C16.3,50.8,15.7,50.7,16,50.1z"/>
<path class="st2" d="M184.4,150c-4.3-2.6-8.5-5.1-12.8-7.7c-7.6-4.6-15.2-9.2-22.8-13.9c-3.9-2.4-7.9-4.8-11.8-7.2
	c-0.4-0.5-0.3-1.1-0.3-1.6c0-12.8,0-25.5,0-38.3c0-1.3-0.5-2-1.6-2.7c-9.8-5.7-19.6-11.4-29.5-17.2c-1.5-0.9-3-1.7-4.5-2.6
	c-0.4-0.2-0.8-0.4-1-0.8c-0.2-0.6,0.4-0.6,0.6-0.7c6.5-3.7,13-7.4,19.5-11.1C130,40.8,139.5,35.4,149,30c0.6-0.3,1-0.3,1.5,0
	c11.2,7,22.5,13.9,33.7,20.9c0.6,0.3,0.8,0.7,0.8,1.3c-0.1,15.4-0.2,30.8-0.3,46.2c-0.1,10.7-0.1,21.5-0.2,32.2
	C184.5,137.1,184.4,143.5,184.4,150L184.4,150z"/>
<path class="st3" d="M63.2,78.6C62.9,79,63,79.4,63,79.8c0,13.4,0,26.8,0,40.3c0,0.8,0.2,1.2,0.9,1.6c11.7,6.8,23.5,13.7,35.2,20.5
	c0.2,0.1,0.4,0.2,0.6,0.3c0.2,0.6-0.4,0.6-0.6,0.7c-9.6,5.5-19.3,10.9-28.9,16.4c-6.4,3.6-12.8,7.2-19.2,10.9c-0.6,0.3-1,0.3-1.5,0
	c-11.2-7-22.4-13.9-33.6-20.8c-0.6-0.4-0.8-0.8-0.8-1.5c0.1-15.7,0.2-31.4,0.3-47.1c0.1-10.5,0.1-20.9,0.2-31.4
	c0-6.2,0.1-12.3,0.1-18.5c0-0.4-0.1-0.8,0.4-1c0.1,0.7,0.9,0.8,1.3,1.1c11.1,6.7,22.2,13.4,33.3,20.1c3.8,2.3,7.7,4.7,11.5,7
	C62.5,78.5,62.8,78.6,63.2,78.6L63.2,78.6z"/>
</svg>
