<?xml version="1.0" encoding="utf-8"?>
<!-- Generator: Adobe Illustrator 21.0.2, SVG Export Plug-In . SVG Version: 6.00 Build 0)  -->
<svg version="1.1" id="Layer_1" xmlns="http://www.w3.org/2000/svg" xmlns:xlink="http://www.w3.org/1999/xlink" x="0px" y="0px"
	 viewBox="0 0 200 200" style="enable-background:new 0 0 200 200;" xml:space="preserve">
<style type="text/css">
	.st0{fill:url(#SVGID_1_);}
	.st1{fill:url(#SVGID_2_);}
</style>
<g>
	
		<linearGradient id="SVGID_1_" gradientUnits="userSpaceOnUse" x1="50.0038" y1="221.8699" x2="166.785" y2="63.2717" gradientTransform="matrix(1 0 0 -1 0 200)">
		<stop  offset="0" style="stop-color:#41D1FF"/>
		<stop  offset="1" style="stop-color:#BD34FE"/>
	</linearGradient>
	<path class="st0" d="M199.2,29.6l-93.8,167.8c-1.9,3.5-6.9,3.5-8.9,0L0.8,29.6c-2.1-3.8,1.1-8.3,5.3-7.5l93.9,16.8
		c0.6,0.1,1.2,0.1,1.8,0l92-16.8C198.1,21.3,201.3,25.8,199.2,29.6z"/>
	
		<linearGradient id="SVGID_2_" gradientUnits="userSpaceOnUse" x1="105.0723" y1="197.7722" x2="126.1974" y2="52.8559" gradientTransform="matrix(1 0 0 -1 0 200)">
		<stop  offset="0" style="stop-color:#FFEA83"/>
		<stop  offset="8.333330e-02" style="stop-color:#FFDD35"/>
		<stop  offset="1" style="stop-color:#FFA800"/>
	</linearGradient>
	<path class="st1" d="M144.8,0L75.4,13.7c-1.1,0.2-2,1.2-2.1,2.4L69,88.1c-0.1,1.7,1.5,3,3.1,2.6l19.3-4.5c1.8-0.4,3.4,1.2,3.1,3
		l-5.7,28.1c-0.4,1.9,1.4,3.5,3.2,3l11.9-3.6c1.9-0.6,3.6,1.1,3.2,3l-9.1,44.2c-0.6,2.8,3.1,4.3,4.6,1.9l1-1.6l56.6-112.9
		c0.9-1.9-0.7-4-2.8-3.6l-19.9,3.8c-1.9,0.4-3.5-1.4-2.9-3.2l13-45C148.3,1.4,146.7-0.3,144.8,0z"/>
</g>
</svg>
