<?xml version="1.0" encoding="utf-8"?>
<!-- Generator: Adobe Illustrator 21.0.2, SVG Export Plug-In . SVG Version: 6.00 Build 0)  -->
<svg version="1.1" id="Layer_1" xmlns="http://www.w3.org/2000/svg" xmlns:xlink="http://www.w3.org/1999/xlink" x="0px" y="0px"
	 viewBox="0 0 200 200" style="enable-background:new 0 0 200 200;" xml:space="preserve">
<style type="text/css">
	.st0{fill:#A9314D;}
</style>
<path class="st0" d="M100,0C44.8,0,0,44.8,0,100c0,55.2,44.8,100,100,100s100-44.8,100-100S155.2,0,100,0z M168.8,146.6
	c-0.2-0.2-0.4-0.3-0.4-0.5c-4.8-12.8-11.3-14.6-21.4-5.8c-20.8,18.2-50,21.4-74.2,8.1c-25.5-14-38.9-45-30.5-70.5
	c9.1-27.7,40.1-42,66.6-30.6c27.2,11.7,38.6,43.4,24.8,69.4c-0.8,1.6-1.9,3.1-2.6,4.7c-2.5,5.7-0.3,11.8,5,14.4
	c5.2,2.5,11.8,0.3,14.4-4.9c2.6-5.4,0.6-11.3-5-14.3c-1.2-0.6-2.5-1-4.2-1.7c8.9-5.9,18-2.7,19.5,6.7c0.5,2.8,1,4,3.9,5
	C173.6,129.8,175.4,138.8,168.8,146.6L168.8,146.6z"/>
</svg>
