<?xml version="1.0" encoding="utf-8"?>
<!-- Generator: Adobe Illustrator 21.0.2, SVG Export Plug-In . SVG Version: 6.00 Build 0)  -->
<svg version="1.1" id="Layer_1" xmlns="http://www.w3.org/2000/svg" xmlns:xlink="http://www.w3.org/1999/xlink" x="0px" y="0px"
	 viewBox="0 0 200 200" style="enable-background:new 0 0 200 200;" xml:space="preserve">
<style type="text/css">
	.st0{fill:#409EFF;}
</style>
<path class="st0" d="M187.6,143.3c-0.1,8.3-4.4,10.1-4.4,10.1s-74.4,43-79.2,45.7c-4.8,2.1-8,0-8,0S18.1,153.9,15.3,152
	s-2.9-5.1-2.9-5.1s0.1-89.4,0-93.5c-0.1-4.1,5.1-7.2,5.1-7.2l77.8-45c4.8-2.5,9.4,0,9.4,0s68.7,39.9,76.3,44.2
	c7.5,3.5,6.5,10.9,6.5,10.9S187.6,135.5,187.6,143.3L187.6,143.3z M156.5,53.5c-15.9-9.2-53.4-30.9-53.4-30.9s-3.7-2-7.4,0
	L34.6,57.8c0,0-4.1,2.4-4,5.7c0.1,3.2,0,73.2,0,73.2s0.1,2.4,2.3,4c2.2,1.6,63.4,36.9,63.4,36.9s2.5,1.6,6.3,0
	c3.8-2.1,62.2-35.8,62.2-35.8s3.4-1.4,3.4-7.9c0-1.9,0-9.1,0-18.3l-68.8,41.7v-15.9c0-6.5,5.1-10.9,5.1-10.9l60.8-36.7
	c2.3-2.4,2.8-6.2,2.9-7.7V69.9l-68.8,41.7V94.9c0-6.6,4.3-9.4,4.3-9.4L156.5,53.5L156.5,53.5z"/>
</svg>
