<?xml version="1.0" encoding="utf-8"?>
<!-- Generator: Adobe Illustrator 21.0.2, SVG Export Plug-In . SVG Version: 6.00 Build 0)  -->
<svg version="1.1" id="Layer_1" xmlns="http://www.w3.org/2000/svg" xmlns:xlink="http://www.w3.org/1999/xlink" x="0px" y="0px"
	 viewBox="0 0 200 200" style="enable-background:new 0 0 200 200;" xml:space="preserve">
<style type="text/css">
	.st0{fill:#EA6F5A;}
	.st1{fill:#FFFFFF;}
</style>
<rect class="st0" width="200" height="200"/>
<g>
	<path class="st1" d="M74.1,73.5H62.7l0,0c2.9,5.3,4.7,10.4,5.5,15.7h12.2C78.7,82.5,76.6,77.3,74.1,73.5z"/>
	<rect x="56.3" y="91.3" class="st1" width="11.2" height="58.7"/>
	<path class="st1" d="M81.3,86.5h50.9v47.9c0.3,4.4-1.7,6.4-5.9,6.1h-7v8.7h10.1c9.8,0.3,14.6-4.2,14.3-13.5V77.9H81.3V86.5z"/>
	<path class="st1" d="M71.6,63.1h4.2c1.4,3.8,2.3,7.4,2.6,10.9h11.9c-0.8-4.1-2-7.7-3.3-10.9h13.5v-7.4H75.8c0.3-0.6,0.7-1.6,1.3-3
		c0.3-1.2,0.6-2,0.8-2.6H65.3c-2,7.8-6.5,13.7-13.5,17.4v7.4C61.1,72.5,67.6,68.6,71.6,63.1z"/>
	<path class="st1" d="M81.3,86.5L81.3,86.5L81.3,86.5z"/>
	<path class="st1" d="M121,125.3V94.4H79.6v44h28.7C117.3,138.6,121.6,134.3,121,125.3z M91,102.2h18.5v10H91V102.2z M104.1,130.5
		L104.1,130.5H91v-10.9h18.5v5.3C109.9,128.9,108.1,130.8,104.1,130.5z"/>
	<path class="st1" d="M121.4,55.3L121.4,55.3c0-0.3,0.2-0.8,0.5-1.4l1.3-3.9h-12.7c-2,8.1-6.3,14.3-13.1,18.3v6.9
		c8.7-2.3,15.3-6.4,19.8-12.2h5.9c1.4,3.8,2.3,7.4,2.6,10.9h11.4c-0.3-2.9-1.4-6.5-3.4-10.9h14.8v-7.8H121.4z"/>
</g>
</svg>
