<?xml version="1.0" encoding="utf-8"?>
<!-- Generator: Adobe Illustrator 21.0.2, SVG Export Plug-In . SVG Version: 6.00 Build 0)  -->
<svg version="1.1" id="Layer_1" xmlns="http://www.w3.org/2000/svg" xmlns:xlink="http://www.w3.org/1999/xlink" x="0px" y="0px"
	 viewBox="0 0 200 200" style="enable-background:new 0 0 200 200;" xml:space="preserve">
<style type="text/css">
	.st0{fill:#1E80FF;}
	.st1{fill:#FFFFFF;}
</style>
<rect class="st0" width="200" height="200"/>
<path class="st1" d="M100,75.4l14.5-11.5L100,52.3l0,0L85.6,63.9L100,75.4L100,75.4L100,75.4z M100,111.6L100,111.6l37.2-29.4
	l-10.1-8.1L100,95.5l0,0l0,0L72.8,74.1l-10.1,8.1L100,111.6L100,111.6L100,111.6z M100,131.7L100,131.7l49.9-39.3l10.1,8.1
	l-22.7,17.9L100,147.7L41,101.2l-1-0.8l10.1-8.1L100,131.7L100,131.7z"/>
</svg>
