<?xml version="1.0" encoding="utf-8"?>
<!-- Generator: Adobe Illustrator 21.0.2, SVG Export Plug-In . SVG Version: 6.00 Build 0)  -->
<svg version="1.1" id="Layer_1" xmlns="http://www.w3.org/2000/svg" xmlns:xlink="http://www.w3.org/1999/xlink" x="0px" y="0px"
	 viewBox="0 0 200 200" style="enable-background:new 0 0 200 200;" xml:space="preserve">
<style type="text/css">
	.st0{fill:#1D365D;}
</style>
<path class="st0" d="M0,110.5V89.4c4.7-0.4,8.3-0.6,10.4-2.1c2.1-0.6,3.8-2.8,5.8-4.9c1.7-2.6,2.8-5.3,3.6-9.4
	c0.4-2.8,1.1-7.5,1.1-14.3c0-11.5,0.4-19.2,1.7-23.9c1.1-4.3,3.2-8.3,5.8-10.6c2.8-2.6,7.2-4.7,12.6-6.4c3.6-0.6,9.4-1.7,17.5-1.7
	h4.9v20.7c-6.8,0-11.5,0.4-13.2,1.5C48.3,39,46.9,40,45.4,42c-1.1,1.5-1.5,3.8-1.5,7.5c0,3.6-0.4,10.6-1.1,20.7
	c-0.4,6-1.1,10.6-2.1,13.8c-1.5,3.6-3.2,6.4-4.9,8.9c-1.7,2.1-4.9,4.7-8.9,7.2c3.6,2.1,6.8,4.3,8.9,6.8s3.8,6,5.3,9.6
	c1.5,3.8,2.1,8.9,2.1,15.3c0.4,9.6,0.4,15.8,0.4,18.5c0,3.8,0.4,6.4,1.5,8.3c1.1,1.7,2.8,2.6,4.7,3.6c1.7,0.6,6.4,1.5,13.2,1.5v20.7
	h-4.9c-8.3,0-14.9-0.4-19-1.7c-4.7-1.5-8.3-3.6-11.5-6.4c-3.2-2.8-4.9-6.4-6.4-10.6c-1.1-4.3-1.5-11.1-1.5-20.4
	c0-10.6-0.4-17.9-1.5-20.7c-1.5-4.7-3.6-8.3-6.4-10.4C10,112,5.8,110.5,0,110.5z"/>
<path class="st0" d="M199.6,110.5c-4.7,0.4-8.3,0.6-10.4,2.1c-2.1,0.6-3.8,2.8-5.8,4.9c-1.7,2.6-2.8,5.3-3.6,9.4
	c-0.4,2.8-1.1,7.5-1.1,14.3c0,11.5-0.4,19.2-1.7,23.9c-1.1,4.7-3.2,8.3-5.8,10.6c-2.8,2.6-7.2,4.7-12.6,6.4
	c-3.6,0.6-9.4,1.7-17.5,1.7h-4.9v-20.7c6.8,0,10.6-0.4,13.2-1.5c2.1-0.6,3.6-2.1,4.7-3.6c1.1-1.5,1.5-3.8,1.5-7.5s0.4-10.4,1.1-20.4
	c0.4-6,1.5-11.1,2.8-14.3c1.5-3.8,3.2-6.8,5.3-9.4c2.1-2.6,4.9-4.7,8.5-6.8c-5.8-3.6-9.4-6-11.1-8.5c-2.8-3.8-4.9-8.9-5.8-14.3
	c-1.1-4.3-1.5-13.2-1.5-26.8c0-4.3-0.4-7.2-1.5-8.9c-1.1-1.5-2.1-2.6-3.8-3.6c-1.7-0.6-6.4-1.5-13.6-1.5V15.3h4.9
	c8.3,0,14.9,0.4,19,1.7c4.7,1.5,8.3,3.6,11.5,6.4c3.2,2.8,4.9,6.4,6.4,10.6c1.1,4.3,1.7,11.1,1.7,20.4c0,10.6,0.4,17.5,1.5,20.7
	c1.5,4.7,3.6,8.3,6.4,9.6c2.8,2.1,7.2,2.8,12.6,3.6v21.1L199.6,110.5L199.6,110.5z"/>
</svg>
