<?xml version="1.0" encoding="utf-8"?>
<!-- Generator: Adobe Illustrator 21.0.2, SVG Export Plug-In . SVG Version: 6.00 Build 0)  -->
<svg version="1.1" id="Layer_1" xmlns="http://www.w3.org/2000/svg" xmlns:xlink="http://www.w3.org/1999/xlink" x="0px" y="0px"
	 viewBox="0 0 200 200" style="enable-background:new 0 0 200 200;" xml:space="preserve">
<style type="text/css">
	.st0{fill:url(#SVGID_1_);}
	.st1{fill:url(#SVGID_2_);}
	.st2{fill:url(#SVGID_3_);}
	.st3{fill:url(#SVGID_4_);}
	.st4{fill:#EAADCC;}
	.st5{fill:none;stroke:#000000;stroke-width:2.5198;stroke-linecap:round;stroke-linejoin:round;}
	.st6{fill:#FFFFFF;}
	.st7{fill:#FFFFFF;stroke:#FFFFFF;stroke-width:1.2599;}
	.st8{fill:none;stroke:#ECB732;stroke-width:4.6196;stroke-linecap:round;}
	.st9{fill:none;stroke:#FFC73B;stroke-width:4.6196;stroke-linecap:round;}
</style>
<g transform="translate(-34 -24)">
	<g transform="matrix(.99254615 .12186934 -.12186934 .99254615 33.922073 .976691)">
		
			<linearGradient id="SVGID_1_" gradientUnits="userSpaceOnUse" x1="72.2161" y1="166.4301" x2="72.1636" y2="166.25" gradientTransform="matrix(64.5943 -98.5607 -148.3342 -128.3014 20081.8203 28514.127)">
			<stop  offset="0" style="stop-color:#52CE63"/>
			<stop  offset="1" style="stop-color:#51A256"/>
		</linearGradient>
		<path class="st0" d="M108.2,107.6c11.9-14.5,5.8-29.8-8.7-47.5S59.6,38.5,55.6,43.5s-1.2,36.2,13.3,53.9S96.4,122.1,108.2,107.6
			L108.2,107.6z"/>
		
			<linearGradient id="SVGID_2_" gradientUnits="userSpaceOnUse" x1="70.0161" y1="165.7478" x2="69.9634" y2="165.5678" gradientTransform="matrix(98.6103 64.6441 128.2946 -148.3396 -27989.25 20115.2227)">
			<stop  offset="0" style="stop-color:#52CE63"/>
			<stop  offset="1" style="stop-color:#51A256"/>
		</linearGradient>
		<path class="st1" d="M120.1,107.9c11.9,14.5,24.5,7.1,39-10.6s17.7-48.6,13.6-53.5c-4-4.9-29.7-1.5-44.3,16.2
			S108.2,93.5,120.1,107.9L120.1,107.9z"/>
		
			<linearGradient id="SVGID_3_" gradientUnits="userSpaceOnUse" x1="70.6046" y1="166.3233" x2="70.6046" y2="166.0763" gradientTransform="matrix(102.2323 -26.3237 -12.5524 -214.39 -5016.939 37525.8867)">
			<stop  offset="0" style="stop-color:#8AE99C"/>
			<stop  offset="1" style="stop-color:#52CE63"/>
		</linearGradient>
		<path class="st2" d="M113.6,100c16.8,0,21.4-16.1,21.4-41.1c0-25-15.7-49.6-21.4-49.6S91.7,33.8,91.7,58.9S96.8,100,113.6,100z"/>
	</g>
	
		<linearGradient id="SVGID_4_" gradientUnits="userSpaceOnUse" x1="84.6667" y1="174.8293" x2="84.6382" y2="174.4828" gradientTransform="matrix(301 0 0 -333 -25350 58327)">
		<stop  offset="0" style="stop-color:#FFE56C"/>
		<stop  offset="1" style="stop-color:#FFC63A"/>
	</linearGradient>
	<path class="st3" d="M130.3,224c34.9,0,63.2-10.1,63.2-56.1s-28.3-83.7-63.2-83.7s-63.2,37.7-63.2,83.7S95.4,224,130.3,224z"/>
	<ellipse class="st4" cx="162.2" cy="154.3" rx="9" ry="4.2"/>
	<ellipse transform="matrix(0.1219 -0.9925 0.9925 0.1219 -66.453 228.4219)" class="st4" cx="95.9" cy="151.8" rx="4.2" ry="9"/>
	<g transform="matrix(-.99939083 .0348995 .0348995 .99939083 269.284825 271.027667)">
		<path class="st5" d="M129-122.8c2.8,2.1,6,2.9,9.5,2.4c3.5-0.5,6.1-2.1,7.8-4.7"/>
		<path d="M163.2-145.9c-2.5,0-4.8,1-6.4,2.6c-1.6,1.6-2.6,3.9-2.6,6.4c0,2.5,1,4.8,2.6,6.4c1.6,1.6,3.9,2.6,6.4,2.6
			c2.5,0,4.8-1,6.4-2.6c1.6-1.6,2.6-3.9,2.6-6.4c0-2.5-1-4.8-2.6-6.4C167.9-144.9,165.7-145.9,163.2-145.9z"/>
		<path class="st6" d="M163-138.3c0-1.6,1.3-2.9,2.9-2.9c1.6,0,2.9,1.3,2.9,2.9s-1.3,2.9-2.9,2.9C164.3-135.4,163-136.7,163-138.3z"
			/>
		<path d="M108.6-141.7c-2.5,0-4.8,1-6.4,2.6c-1.6,1.6-2.6,3.9-2.6,6.4c0,2.5,1,4.8,2.6,6.4c1.6,1.6,3.9,2.6,6.4,2.6
			c2.5,0,4.8-1,6.4-2.6c1.6-1.6,2.6-3.9,2.6-6.4c0-2.5-1-4.8-2.6-6.4C113.3-140.7,111.1-141.7,108.6-141.7z"/>
		<g>
			<path class="st7" d="M155.4-136.8c0,4.3,3.5,7.8,7.8,7.8c4.3,0,7.8-3.5,7.8-7.8c0-4.3-3.5-7.8-7.8-7.8
				C158.9-144.6,155.4-141.1,155.4-136.8z M152.9-136.8c0-5.7,4.6-10.3,10.3-10.3c5.7,0,10.3,4.6,10.3,10.3
				c0,5.7-4.6,10.3-10.3,10.3C157.5-126.5,152.9-131.2,152.9-136.8z"/>
			<path class="st7" d="M100.8-132.6c0,4.3,3.5,7.8,7.8,7.8c4.3,0,7.8-3.5,7.8-7.8c0-4.3-3.5-7.8-7.8-7.8
				C104.3-140.4,100.8-136.9,100.8-132.6z M98.3-132.6c0-5.7,4.6-10.3,10.3-10.3c5.7,0,10.3,4.6,10.3,10.3c0,5.7-4.6,10.3-10.3,10.3
				C102.9-122.3,98.3-127,98.3-132.6z"/>
			<path class="st6" d="M108.4-134.1c0-1.6,1.3-2.9,2.9-2.9c1.6,0,2.9,1.3,2.9,2.9s-1.3,2.9-2.9,2.9
				C109.7-131.2,108.4-132.5,108.4-134.1z"/>
		</g>
	</g>
	<g>
		<g>
			<path class="st8" d="M82.4,172.1l31.1,32.3"/>
			<path class="st8" d="M109.3,175.9l-19.7,21"/>
		</g>
		<g transform="matrix(-1 0 0 1 298 377)">
			<path class="st8" d="M120.2-204.9l31.1,32.3"/>
			<path class="st8" d="M147.1-201.1l-19.7,21"/>
		</g>
		<g transform="matrix(0 1 -1 0 215 207)">
			<path class="st9" d="M-106.3,72.1l20.6,20.6"/>
			<path class="st9" d="M-85.7,76.3l-20.6,20.6"/>
		</g>
	</g>
</g>
</svg>
