<?xml version="1.0" encoding="utf-8"?>
<!-- Generator: Adobe Illustrator 21.0.2, SVG Export Plug-In . SVG Version: 6.00 Build 0)  -->
<svg version="1.1" id="Layer_1" xmlns="http://www.w3.org/2000/svg" xmlns:xlink="http://www.w3.org/1999/xlink" x="0px" y="0px"
	 viewBox="0 0 200 200" style="enable-background:new 0 0 200 200;" xml:space="preserve">
<style type="text/css">
	.st0{fill:#FFB13B;}
	.st1{opacity:0.9;}
	.st2{fill:#FFFFFF;}
</style>
<title>SVG Logo</title>
<desc>
	Designed for the SVG Logo Contest in 2006 by Harvey Rayner, and adopted by W3C in 2009. It is available under the Creative Commons license for those who have an SVG product or who are using SVG on their site.
	</desc>
<g>
	<path class="st0" d="M100.1,193.4c-5.9,0-11.7-2.3-15.9-6.6c-4.2-4.2-6.6-10-6.6-15.9c0-5.1,1.7-9.8,4.7-13.8v-13.6l-9.8,9.5
		c-1.5,11-11,19.5-22.5,19.5c-12.5,0-22.5-10.2-22.5-22.5c0-11.5,8.5-21,19.5-22.5l9.8-9.8H43.3c-3.8,3-8.7,4.7-13.8,4.7
		c-5.9,0-11.7-2.3-15.9-6.6c-8.9-8.7-8.9-23.1-0.2-31.8c4.2-4.2,10-6.6,15.9-6.6c5.1,0,9.8,1.7,13.8,4.7h13.6l-9.5-9.8
		c-11-1.5-19.5-11-19.5-22.5c0-12.5,10.2-22.5,22.5-22.5c11.5,0,21,8.5,22.5,19.5l9.8,9.8V43.3c-3-3.8-4.7-8.7-4.7-13.8
		c0-5.9,2.3-11.7,6.6-15.9S94.2,7,100.1,7s11.7,2.3,15.9,6.6s6.6,10,6.6,15.9c0,5.1-1.7,9.8-4.7,13.8v13.6l9.8-9.8
		c1.5-11,11-19.5,22.5-19.5c12.5,0,22.5,10.2,22.5,22.5c0,11.5-8.5,21-19.5,22.5l-9.8,9.8h13.6c3.8-3,8.7-4.7,13.8-4.7
		c5.9,0,11.7,2.3,15.9,6.6c8.9,8.9,8.9,23.1,0,32c-4.2,4.2-10,6.6-15.9,6.6c-5.1,0-9.8-1.7-13.8-4.7h-13.6l9.8,9.5
		c11,1.5,19.5,11,19.5,22.5c0,12.5-10.2,22.5-22.5,22.5c-11.5,0-21-8.5-22.5-19.5l-9.8-9.8v13.6c3,3.8,4.7,8.7,4.7,13.8
		c0,5.9-2.3,11.7-6.6,15.9C111.8,191.1,106,193.4,100.1,193.4z"/>
	<path d="M100.1,13.6c4,0,8.1,1.5,11.2,4.7c6.2,6.2,6.2,16.1,0,22.5v32.4l22.9-22.9c0-8.7,7-15.9,15.9-15.9c8.7,0,15.9,7,15.9,15.9
		c0,8.7-7,15.9-15.9,15.9l-22.9,22.7h32.2c3.2-3.2,7.2-4.7,11.2-4.7s8.1,1.5,11.2,4.7c6.2,6.2,6.2,16.1,0,22.5
		c-3.2,3.2-7.2,4.7-11.2,4.7s-8.1-1.5-11.2-4.7h-32.2l22.9,22.9c8.7,0,15.9,7,15.9,15.9c0,8.7-7,15.9-15.9,15.9
		c-8.7,0-15.9-7-15.9-15.9l-22.9-22.9v32.2c6.2,6.2,6.2,16.1,0,22.5c-3.2,3.2-7.2,4.7-11.2,4.7c-4,0-8.1-1.5-11.2-4.7
		c-6.2-6.2-6.2-16.1,0-22.5v-32.2L66,150.2c0,8.7-7,15.9-15.9,15.9c-8.7,0-15.9-7-15.9-15.9c0-8.7,7-15.9,15.9-15.9L73,111.3H40.7
		c-3.2,3.2-7.2,4.7-11.2,4.7s-8.1-1.5-11.2-4.7c-6.2-6.2-6.2-16.1,0-22.5c3.2-3.2,7.2-4.7,11.2-4.7s8.1,1.5,11.2,4.7h32.4L50.1,66
		c-8.7,0-15.9-7-15.9-15.9c0-8.7,7-15.9,15.9-15.9c8.7,0,15.9,7,15.9,15.9L88.9,73V40.7c-6.2-6.2-6.2-16.1,0-22.5
		C92,15.1,96.1,13.6,100.1,13.6 M100.1,0c-7.8,0-15.3,3-20.8,8.5c-5.7,5.7-8.5,13.1-8.5,20.8c-5.3-5.3-12.7-8.5-20.8-8.5
		c-16.1,0-29.3,13.1-29.3,29.3c0,8.1,3.2,15.3,8.5,20.6c-7.8,0-15.1,3-20.6,8.5S0.2,92,0.2,99.9s3,15.3,8.5,20.8s12.9,8.5,20.6,8.5
		c-5.3,5.3-8.5,12.5-8.5,20.6c0,16.1,13.1,29.3,29.3,29.3c8.1,0,15.3-3.2,20.6-8.5c0,7.8,3,15.1,8.5,20.6s12.9,8.5,20.8,8.5
		s15.3-3,20.8-8.5c5.7-5.7,8.5-13.1,8.5-20.8c5.3,5.3,12.7,8.5,20.8,8.5c16.1,0,29.3-13.1,29.3-29.3c0-8.1-3.2-15.3-8.5-20.6
		c7.8,0,15.1-3,20.6-8.5s8.5-12.9,8.5-20.8s-3-15.3-8.5-20.8s-12.9-8.5-20.6-8.5c5.3-5.3,8.5-12.5,8.5-20.6
		c0-16.1-13.1-29.3-29.3-29.3c-8.1,0-15.3,3.2-20.6,8.5c0-7.8-3-15.1-8.5-20.6C115.4,3.2,108,0,100.1,0L100.1,0z"/>
</g>
<g class="st1">
	<path id="base_1_" d="M0,100.1h200v70.6c0,16.5-12.7,29.3-29.3,29.3H29.5c-16.5,0-29.3-12.7-29.3-29.3v-70.6H0z"/>
</g>
<g>
	<g id="SVG" transform="scale(2) translate(20,79)">
		<path id="S" class="st2" d="M-4.9-3.9C-7.3-6.3-8.8-9.4-8.8-13C-8.8-20.3-3-26,4.2-26S17.1-20.3,17.1-13H9.5c0-3-2.3-5.3-5.3-5.3
			S-1.1-16-1.1-13c0,1.5,0.6,2.8,1.5,3.8l0,0C1.4-8.2,2.1-8,4.2-7.7l0,0c3.6,0.4,6.8,1.5,9.1,3.8l0,0c2.3,2.3,3.8,5.5,3.8,9.1
			c0,7.2-5.7,12.9-12.9,12.9S-8.8,12.4-8.8,5.2h7.6c0,3,2.3,5.3,5.3,5.3s5.3-2.3,5.3-5.3c0-1.5-0.6-2.8-1.5-3.8l0,0
			C6.9,0.3,5.7,0.1,4.2-0.1l0,0C0.6-0.7-2.6-1.6-4.9-3.9L-4.9-3.9L-4.9-3.9z"/>
		<path id="V" class="st2" d="M43-26.2l-9.1,44.3h-7.6l-9.1-44.3h7.6l5.3,26.1L35.4-26H43V-26.2z"/>
		<path id="G" class="st2" d="M55.9-7.7h12.9V5.2l0,0c0,7.2-5.7,12.9-12.9,12.9S43,12.4,43,5.2l0,0V-13l0,0C43-20.3,48.7-26,55.9-26
			S68.9-20.3,68.9-13h-7.6c0-3-2.3-5.3-5.3-5.3S50.6-16,50.6-13V5.2l0,0c0,3,2.3,5.3,5.3,5.3s5.3-2.3,5.3-5.3l0,0v-5.3h-5.3V-7.7
			L55.9-7.7z"/>
	</g>
</g>
</svg>
