<svg xmlns="http://www.w3.org/2000/svg" viewBox="0 0 200 200">
  <path fill='#0288D1'
    d="M0,0v200h200V0H0z M152,97.1L152,97.1c1.9,0,4.1,0.1,5.7,0.3c6.7,0.7,11.9,3.6,16.3,9c2.2,2.7,3,3.9,2.8,4.4
	c-0.1,0.3-1.6,1.4-6.4,4.6c-4.7,3.1-6.2,4.1-6.6,4.1c-0.4,0-1.1-0.8-2.2-2.2c-2.1-2.8-4.2-4.1-7.5-4.6c-3.5-0.5-6.7,0.6-8.2,2.9
	c-1.3,1.9-1.5,5-0.5,7.2c1.2,2.6,3.4,4,11.8,7.7c9.7,4.3,14.7,7.2,18.2,10.8c3.9,3.9,5.8,8.4,6.4,14.8c0.3,3.1-0.1,6.8-1,9.8
	c-2.2,7.3-8.1,12.7-16.7,15.2c-2.4,0.7-4.6,1.1-6.8,1.3c-3.3,0.2-8.1,0.1-11-0.3c-7.3-1.1-15.5-5.3-19.6-10.1
	c-2-2.4-4.6-6.3-4.6-6.9c0-0.3,0.2-0.5,0.8-0.9c1.9-1.2,12.9-7.5,13.2-7.5c0.1,0,0.7,0.7,1.3,1.5c1.3,1.9,4.5,5.1,6.1,6.2
	c1.3,0.9,3,1.6,5,2.1c1.2,0.3,1.8,0.3,4.3,0.3c2.6,0,3.1,0,4.3-0.4c3-0.8,5.4-2.5,6.4-4.6c0.4-0.9,0.4-1,0.4-3.2v-2.3l-0.5-1.1
	c-1.3-2.6-4.1-4.4-13.1-8.3c-4.1-1.8-9.1-4.3-11.1-5.5c-4.5-2.8-7.6-6.1-9.6-10.1c-2-4-2.3-5.4-2.3-11.4c0-4.7,0-4.6,1-7.6
	c0.9-2.7,2.7-5.7,4.6-7.8c3.9-4.2,9.7-6.9,15.9-7.4C149.8,97.2,150.8,97.1,152,97.1L152,97.1z M98.9,98.1L98.9,98.1
	c11.9,0,18.7,0,18.8,0.1c0.2,0.1,0.2,1.2,0.2,7.8v7.6l-11.9,0l-11.9,0v33.7c0,18.5,0,33.8-0.1,33.9c-0.1,0.2-1,0.2-8.7,0.2h-8.6
	l-0.1-0.3c-0.1-0.2-0.1-15.5-0.1-33.9l0-33.6l-11.9,0l-11.9,0V106c0-6,0-7.6,0.2-7.7c0.2-0.2,6.2-0.2,32.3-0.2
	C90.4,98.1,94.9,98.1,98.9,98.1L98.9,98.1z" />
</svg>