<?xml version="1.0" encoding="utf-8"?>
<!-- Generator: Adobe Illustrator 21.0.2, SVG Export Plug-In . SVG Version: 6.00 Build 0)  -->
<svg version="1.1" id="Layer_1" xmlns="http://www.w3.org/2000/svg" xmlns:xlink="http://www.w3.org/1999/xlink" x="0px" y="0px"
	 viewBox="0 0 200 200" style="enable-background:new 0 0 200 200;" xml:space="preserve">
<style type="text/css">
	.st0{fill:#8ED6FB;}
	.st1{fill:#1C78C0;}
</style>
<path class="st0" d="M184.5,154.2l-81,45.8v-35.7l50.5-27.8L184.5,154.2z M190,149.1V53.3l-29.6,17.1V132L190,149.1L190,149.1z
	 M15.3,154.2l81,45.9v-35.7l-50.5-27.8C45.8,136.5,15.3,154.2,15.3,154.2z M9.7,149.1V53.3l29.6,17.1V132L9.7,149.1z M13.2,47
	L96.3,0v34.5L43,63.8l-0.4,0.2C42.6,64.1,13.2,47,13.2,47z M186.5,47L103.4,0v34.5l53.3,29.3l0.4,0.2L186.5,47L186.5,47z"/>
<path class="st1" d="M96.3,156.2l-49.8-27.4V74.5l49.8,28.8V156.2z M103.4,156.2l49.8-27.4V74.5l-49.8,28.8V156.2z M49.8,68.2
	l50-27.5l50,27.5l-50,28.9L49.8,68.2z"/>
</svg>
