<?xml version="1.0" encoding="utf-8"?>
<!-- Generator: Adobe Illustrator 21.0.2, SVG Export Plug-In . SVG Version: 6.00 Build 0)  -->
<svg version="1.1" id="Layer_1" xmlns="http://www.w3.org/2000/svg" xmlns:xlink="http://www.w3.org/1999/xlink" x="0px" y="0px"
	 viewBox="0 0 200 200" style="enable-background:new 0 0 200 200;" xml:space="preserve">
<style type="text/css">
	.st0{fill:#174481;}
	.st1{fill:#FFFFFF;}
</style>
<rect x="0.2" y="0.2" class="st0" width="200" height="200"/>
<title>Asset 1</title>
<g>
	<path class="st1" d="M86.8,107.1C86.8,107.1,86.8,107.1,86.8,107.1c0,7.5,6.1,13.6,13.6,13.6s13.5-6.1,13.5-13.6V80.2
		c0-1.8,1-3.5,2.6-4.5c0.1-0.1,0.2-0.2,0.2-0.3c0-0.2-0.2-0.4-0.4-0.3H107c-2.8,0-5.1,2.3-5.1,5.1v29.4c0,0.8-0.7,1.5-1.5,1.5
		s-1.5-0.7-1.5-1.5V58.3c0-0.2-0.1-0.3-0.1-0.4c-0.2-0.3-0.7-0.4-1-0.1h0l-8.6,7.1L88.9,65c-1.3,1.1-2.1,2.8-2.1,4.5h0V107.1z"/>
	<path class="st1" d="M127.4,86.4C127.4,86.4,127.4,86.4,127.4,86.4l-10.6,0c-0.2,0-0.3,0.2-0.3,0.3c0,0.1,0.1,0.2,0.1,0.3
		c0.9,0.7,1.5,1.7,1.5,2.8l0,23.8c0.2,9.8-7.5,18-17.4,18.2c-9.8,0.2-18-7.5-18.2-17.4c0-0.3,0-0.6,0-0.8V71.7
		c0-0.4-0.3-0.7-0.7-0.7c-0.2,0-0.3,0.1-0.4,0.2l-0.1,0.1l-10.9,9l-0.2,0.2c-1.9,1.6-3,4-3,6.5v17.6c0,18.3,14.8,33.1,33.1,33.1
		c18.3,0,33.1-14.8,33.1-33.1v-12C133.5,89.2,130.8,86.4,127.4,86.4z"/>
	<path class="st1" d="M100.2,26.2c-40.9,0-74,33.1-74,74c0,40.9,33.1,74,74,74c40.9,0,74-33.1,74-74
		C174.2,59.3,141.1,26.2,100.2,26.2z M100.1,172.3C60.3,172.3,28,140,28,100.1C28,60.3,60.4,28,100.2,28
		c39.8,0.1,72.1,32.3,72.1,72.2C172.3,140,140,172.3,100.1,172.3z"/>
	<path class="st1" d="M100.2,51.1C100.2,51.1,100.2,51.1,100.2,51.1c-27.2,0-49.1,22-49.1,49.1c0,27.1,22,49,49,49
		c27.1,0,49.1-21.9,49.1-49C149.3,73.1,127.3,51.1,100.2,51.1z M100.1,147.4c-26.1,0-47.2-21.2-47.2-47.3
		c0-26.1,21.2-47.2,47.3-47.2c26.1,0,47.2,21.2,47.2,47.3C147.4,126.3,126.2,147.4,100.1,147.4z"/>
	<path class="st1" d="M56.8,132.6c0.1-0.4,0.1-0.8,0-1.1c-0.1-0.4-0.4-0.6-0.5-0.6c-0.1,0-0.2,0-0.4,0c0,0-0.3-0.1-0.7-0.2
		c-0.3-0.1-0.6-0.2-0.9-0.4c-0.1-0.1-0.2-0.2-0.3-0.4c-0.1-0.2-0.1-0.3-0.1-0.5c0-0.1-0.1-0.3-0.2-0.4c-0.1-0.1-0.3-0.1-0.4-0.2
		c-0.1-0.1-0.2-0.1-0.3-0.1c-0.1,0-0.3,0-0.4,0.1c-0.2,0-0.2,0.1-0.2,0.1c0,0.1-0.1,0.2-0.2,0.3c-0.1,0.1-0.3,0.1-0.5,0.1
		c-0.2,0-0.1,0.1-0.4,0.1c-0.3,0-0.4,0.1-0.5,0.1c-0.1,0-0.3,0-0.4,0l-1.2-0.3c-0.1,0-0.3-0.1-0.5-0.1c-0.2,0-1.1,0.1-1.4,0.1
		c-0.4,0-0.8,0.1-1.3,0.2c-0.2,0.1-0.4,0.1-0.6,0.1c-0.1,0-0.2,0.1-0.3,0.1c-0.1,0-0.3,0-0.5-0.1c-0.2-0.1-0.3-0.1-0.5-0.4
		c-0.2-0.2-0.3-0.5-0.5-0.7c0,0,0-0.2,0-0.4s0.1-0.1,0.2,0c0.1,0.1,0.2,0.2,0.2,0.3c0,0.1,0,0.3,0.1,0.4c0.1,0.2,0.3,0.2,0.5,0.3
		c0.2,0.1,0.3,0,0.5-0.1c0.2,0,0.3,0,0.5-0.1c0.2-0.1,0.3-0.2,0.5-0.3c0.3-0.1,0.5-0.2,0.8-0.3c0.2-0.1,0.4-0.1,0.7-0.1
		c0.4,0,0.8-0.1,1.1-0.3c0.3-0.1,0.3-0.2,0.2-0.3c-0.1-0.1-0.4-0.5-0.4-0.6c0-0.1,0.1-0.2,0.4-0.4c0.2-0.1,0.5-0.1,0.7,0
		c0.3,0.1,0.5,0.3,0.8,0.5c0.2,0.1,0.3,0.3,0.4,0.4c0.2,0.4,0.2,0.3,0.3,0.3c0.1,0,0.3-0.1,0.6-0.5c0.2-0.4,0.3-0.8,0.2-1.2
		c-0.1-0.3-0.4-0.5-0.6-0.7c-0.2-0.1-0.2,0-0.2,0l-0.3,0.2c-0.1,0-0.1,0-0.2-0.1s-0.2-0.1-0.3-0.1s-0.1-0.1-0.1-0.2
		c0.1-0.1,0.2-0.1,0.3-0.1c0.2,0,0.4,0.1,0.6,0.1c0.1,0,0.3,0,0.4,0c0.1,0.1,0,0.1,0.2,0.2c0.2,0.1,0.4,0.2,0.6,0.2l1.1,0.2
		c0.4,0.1,0.8,0.1,1.1,0c0.2-0.1,0.4-0.2,0.5-0.4c0.1-0.1,0.2-0.3,0.3-0.4c0.1-0.2,0.1-0.5,0-0.7c-0.1-0.1-0.3-0.3-0.8-0.4l-0.7-0.2
		c-0.3-0.1-0.6-0.2-0.9-0.2c-0.6-0.1-1.1-0.1-1.7-0.1c-0.2,0-0.5,0-0.7-0.1c-0.3-0.1-0.5-0.3-0.6-0.6c-0.1-0.2-0.1-0.3-0.2-0.5
		c-0.1-0.2-0.1-0.5-0.1-0.7c0.1-0.5,0.3-0.9,0.5-1.4c0-0.1,0-0.1,0-0.1s-0.1,0-0.1,0c-0.1,0-0.1,0.1-0.2,0.1
		c-0.2,0.1-0.3,0.3-0.3,0.5c0,0.2-0.1,0.4-0.2,0.5c-0.1,0.3-0.1,0.6,0,0.8c0.1,0.3,0.1,0.7,0.1,1c0,0.1,0,0.3,0,0.4
		c0,0.2,0.1,0.3,0.3,0.4c0.5,0.1,0.9,0.1,1.4,0c0.2,0,0.8-0.1,1.3-0.2c0.3-0.1,0.5,0,0.7,0.2c0.2,0.1,0.4,0.1,0.7,0.2
		c0.2,0.1,0.4,0.2,0.6,0.4c0.1,0.1,0.2,0.1,0.3,0.2c0.1,0.2,0,0.3,0,0.3c-0.1,0-0.2,0.1-0.3,0.1c-0.2,0.1-0.5,0.1-0.7,0.1
		c-0.3,0-0.6,0-0.9-0.1c-0.3-0.1-0.7-0.2-1-0.2c-0.3,0-0.6,0-0.8-0.1c-0.2-0.1-0.8-0.4-0.8-0.4l-0.9-0.3c-0.4-0.1-0.7-0.3-0.8-0.3
		c-0.2,0-0.4-0.1-0.5-0.2c-0.3-0.1-0.6-0.3-0.8-0.5c-0.1-0.1-0.3-0.2-0.5-0.2c-0.1,0-0.3,0-0.5-0.1c-0.2-0.1-0.5-0.3-0.7-0.4
		c-0.1-0.1-0.3-0.2-0.5-0.3c-0.1-0.1-0.3-0.1-0.4-0.2l-0.4-0.2c-0.2-0.1-0.4-0.3-0.5-0.4c-0.1-0.1-0.3-0.1-0.4-0.1
		c-0.1,0.1-0.3,0.1-0.4,0.2c-0.2,0-0.3,0.1-0.4,0.2c-0.1,0.3-0.1,0.5,0,0.8c0.1,0.3,0.3,0.5,0.7,0.8c0.5,0.3,1,0.6,1.5,0.8
		c0.5,0.2,1.2,0.6,1.5,0.8c0.2,0.1,0.4,0.2,0.5,0.4s-0.2,0.3-0.2,0.3l-0.1,0l-0.3,0.2c-0.3,0.2-0.7,0.3-0.7,0.3s-0.1,0.1-0.3,0
		c-0.2-0.1-0.8-0.3-0.8-0.3v-0.1c0-0.1-0.1-0.1-0.2-0.1c-0.3,0-0.5,0.1-0.7,0.2c-0.4,0.2-0.8,0.4-1.2,0.8c-0.1,0.1-0.3,0.2-0.4,0.3
		l-0.3-0.2c-0.1-0.1-0.4-0.4-0.6-0.5c-0.2-0.1-0.4-0.2-0.6-0.3c-0.4-0.2-0.6-0.1-0.6-0.1c0.2,0,0.4,0.1,0.5,0.2
		c0.2,0.1,0.4,0.3,0.5,0.4c0.1,0.1,0.2,0.2,0.4,0.3c0.2,0.2,0.3,0.3,0.4,0.4c0.1,0,0.1,0.1,0.1,0.1c0,0-0.1,0.1-0.1,0.1
		c-0.1,0.1-0.1,0.1-0.1,0.2c0,0.1-0.1,0.1-0.2,0.1c-0.2,0-0.4-0.1-0.6-0.3l-0.5-0.4c-0.1-0.1-0.3-0.2-0.5-0.3
		c-0.2-0.1-0.3-0.2-0.5-0.3c-0.1-0.1-0.1-0.1-0.2-0.3s-0.2-0.2-0.3-0.3c-0.1-0.1-0.1-0.2-0.2-0.3l-0.2,0.1c0,0-0.2-0.1-0.3,0
		c-0.1,0.1-0.1,0.3-0.1,0.6c0,0.3,0,0.4,0.2,0.7c0.1,0.2,0.3,0.4,0.5,0.5c0.3,0.2,0.6,0.4,0.9,0.6c0.3,0.2,1.1,0.7,1.3,0.8
		c0.1,0.1,0.3,0.2,0.4,0.3c0,0.1-0.1,0.1-0.3,0.2c-0.3,0.1-0.7,0.1-1,0.1c-0.1,0-0.3,0.1-0.3,0.2c0,0.1,0.1,0.4,0.3,0.7
		c0.2,0.3,0.4,0.3,0.5,0.2c0.1,0,0.1-0.1,0.1-0.2c0-0.1,0.1,0,0.2-0.1c0.1,0,0.1,0,0.2,0c0.1,0,0.6-0.1,0.6-0.1l0.1,0.1
		c0.1,0.3,0.1,0.7,0,1c0,0.2-0.2,0.3-0.3,0.5c-0.1,0.2,0,0.4,0,0.6s-0.2,0.2-0.2,0.3s0.2,0.1,0.3,0.1c0.1,0,0.3,0,0.4,0
		c0.1,0,0.2-0.1,0.3-0.2c0.2-0.1,0.6-0.3,0.8-0.5c0.2-0.1,0.6-0.4,0.8-0.5c0.1-0.1,0.2-0.2,0.4-0.2c0,0,0.2,0,0.2,0s0.5-0.3,0.5-0.3
		c0.2,0,0.4-0.1,0.6-0.1c0.2,0,0.3-0.2,0.6-0.3c0.3-0.1,1-0.4,1.3-0.5c0.5-0.1,0.9-0.1,1.4-0.2c0.2,0,0.5,0,0.7,0.1
		c0.5,0.1,0.9,0.2,1.4,0.4c0.1,0.1,0.2,0.2,0.1,0.3l-0.4,0.2c-0.3,0.1-0.6,0.3-0.8,0.4c-0.3,0.2-0.6,0.5-0.9,0.7
		c-0.3,0.1-0.5,0.3-0.7,0.5c-0.1,0.1-0.3,0.3-0.4,0.4c0,0-0.4,0.2-0.8,0.5c-0.1,0.1-0.2,0.2-0.4,0.3s-0.4,0.2-0.5,0.3
		c-0.3,0.2-1,0.7-1.5,1c-0.7,0.3-1.4,0.5-2.1,0.7c-0.4,0.1-0.7,0.3-1,0.5c-0.3,0.2-0.7,0.4-1,0.6c0,0-0.8,0.5-1,0.6
		c-0.2,0.1-0.1,0.2,0,0.2c0.1,0.1,0.1-0.1,0.1-0.1c0.1,0,0.1,0,0.1,0.1c0,0,0,0,0,0c0,0.1-0.1,0.1-0.2,0.1c0,0.1,0,0.1,0.1,0.1
		c0.1,0,0.2,0,0.4-0.1c0-0.1,0.1-0.1,0.2,0c0.1,0.1,0,0.2,0,0.2c0,0-0.3,0.1-0.5,0.2c-0.2,0.1-0.1,0.2-0.1,0.2c0,0.1,0.1,0,0.2-0.1
		c0.2-0.1,0.5-0.3,0.7-0.4c0.3-0.2,0.4-0.2,0.7-0.4c0.2-0.1,0.3-0.2,0.5-0.4c0.2-0.2,0.4-0.3,0.7-0.5c0.3-0.1,0.5-0.2,0.8-0.4
		c0.4-0.1,0.8-0.2,1.2-0.3c0.4-0.1,0.9-0.1,1.2-0.2c0.3-0.1,0.6-0.3,0.9-0.5c0.5-0.3,1.1-0.6,1.6-1c0.4-0.3,1.5-1,1.8-1.3
		c0.3-0.2,0.5-0.3,0.8-0.4c0.1,0,0.1,0.1,0.1,0.2c0,0.2-0.1,0.4-0.2,0.6c-0.1,0.2-0.1,0.4-0.2,0.5c-0.1,0.1-0.3,0.3-0.5,0.6
		c-0.2,0.2-0.4,0.5-0.6,0.8c-0.1,0.2-0.3,0.3-0.5,0.4c-0.2,0.1-0.4,0.1-0.4,0.4s0.1,0.3,0.3,0.5c0.3,0.3,0.7,0.4,1.1,0.2
		c0.4-0.2,0.8-0.4,1.1-0.7l0.6-0.6c0.3-0.3,0.7-0.5,1-0.8c0.4-0.6,0.7-1.3,0.8-2c0-0.2,0.1-0.3,0.3-0.4c0.2-0.1,0.4-0.1,0.5,0
		c0,0,2.2,1,2.4,1v0C56.6,132.8,56.7,132.8,56.8,132.6z M47.4,123.6c0.2,0.1,0.3,0.2,0.5,0.2c0,0,0.1,0.1,0.1,0.1
		c0,0-0.2,0.1-0.2,0.1c0,0-0.1-0.1-0.1-0.1c-0.2-0.1-0.4-0.1-0.5-0.2c-0.1,0-0.1-0.1-0.1-0.2C47,123.4,47.3,123.5,47.4,123.6z
		 M46.7,125.8c0.2-0.1,0.4-0.2,0.6-0.3l0-0.1l0.4,0.2c0.1,0.1,0.5,0.3,0.6,0.4c0.1,0.1,0.2,0.2,0.3,0.3c0.1,0.1,0.1,0.2,0,0.2
		s-0.2,0-0.2,0c-0.2,0-0.3,0.1-0.5,0.2c-0.1,0.1-0.3,0-0.5-0.1c-0.1,0-0.3,0-0.4,0c-0.1,0-0.2-0.1-0.2-0.2c0-0.1,0.1-0.1,0.2-0.2
		c0.1,0,0.2,0,0.4,0c0.1,0,0.3,0,0.4-0.1c0.1-0.1,0.3-0.1,0.2-0.2c0,0-0.1,0-0.2,0c-0.1,0-0.2,0.1-0.3,0.1c-0.2,0.1-0.4,0.1-0.5,0
		C46.6,126,46.5,126,46.7,125.8z M45.2,127.2c0,0,0.8,0,1.1,0.1s0.6,0.1,0.7,0.1c0.1,0,0.2,0,0.2,0.1l0.1,0c0,0.1-0.1,0.2-0.2,0.2
		l-0.5,0.1c-0.2,0-0.3,0.1-0.5,0.2c-0.3,0.1-0.4,0.2-0.5,0.3c-0.1,0.1-0.2,0.2-0.3,0c-0.1-0.2,0-0.2,0-0.3c0.1-0.1,0.1-0.2,0.1-0.4
		c0-0.1-0.1-0.1-0.2-0.3S45.2,127.2,45.2,127.2z M41.8,127.7c0.1,0,0.1-0.1,0.2-0.1l0.3-0.3l0.1,0.1c0,0.1,0,0,0.1,0s0,0,0.1,0.1
		c0.1,0.1,0.1,0.1,0.1,0.1c0,0.1,0.3,0.1,0.3,0.2c0,0.1,0.1,0.1,0.1,0.1l-0.1,0.1c-0.1,0-0.1-0.1-0.3-0.1v0c-0.1,0-0.3,0-0.4,0.1
		c-0.1,0.1-0.3,0.1-0.4,0c-0.1,0-0.2-0.1-0.3-0.3C41.6,127.8,41.7,127.8,41.8,127.7z M41.4,128.1c0-0.1,0.1-0.1,0.1-0.2
		c0,0,0.1,0.1,0.1,0.1c0,0.1,0.1,0,0.1,0.1c0,0.1,0,0.2-0.2,0.2h0C41.4,128.4,41.4,128.2,41.4,128.1z M43.2,130.4
		c-0.1,0.1-0.3,0.2-0.7,0.3l0,0c-0.3,0.1-0.5,0.2-0.8,0.4c0,0,0,0-0.1,0c-0.1-0.2-0.1-0.4-0.1-0.5c0-0.2,0-0.4,0-0.5
		c0-0.1-0.1-0.2-0.1-0.3c0.2-0.1,0.3-0.3,0.5-0.3c0,0,0,0,0.1,0c0.1,0.1,0.2,0.2,0.4,0.2c0.2,0.1,0.3,0.2,0.5,0.3
		c0.2,0.1,0.3,0.2,0.5,0.4L43.2,130.4z M43,127.4c-0.1-0.1-0.2-0.1-0.4-0.2c-0.1,0-0.1-0.1-0.2-0.1c0,0,0-0.1,0-0.1
		c0-0.1,0-0.2,0.1-0.2c0.1-0.1,0.2-0.1,0.3-0.1c0.2-0.2,0.5-0.3,0.8-0.4c0.2-0.1,0.4,0,0.5,0.1c0.1,0,0.2,0.1,0.3,0.1
		c0.2,0.2,0.3,0.4,0.3,0.7c0.1,0.3,0.1,0.6,0,0.9c0,0.1-0.2,0.2-0.3,0.1c-0.3-0.1-0.5-0.2-0.8-0.3l0,0
		C43.6,127.7,43.2,127.5,43,127.4z M52.2,132c-0.2,0.6-0.4,1.2-0.8,1.7l0,0c-0.1,0.2-0.3,0.4-0.5,0.5c-0.2,0.1-0.5,0.4-0.6,0.4
		c-0.1,0-0.2-0.2-0.2-0.3c0-0.1,0.1-0.4,0.1-0.6c0-0.1,0-0.2,0.1-0.3c0.1-0.2,0.2-0.3,0.2-0.5c0.1-0.3,0.3-0.7,0.3-0.8
		c0-0.1,0-0.2,0.1-0.3c0.2,0,0.3-0.1,0.5-0.2c0.2-0.1,0.3-0.2,0.5-0.3c0.2-0.1,0.3-0.2,0.4-0.1C52.3,131.5,52.4,131.5,52.2,132z"/>
	<path class="st1" d="M63.3,143.3L63.3,143.3C63.3,143.3,63.3,143.3,63.3,143.3z"/>
	<path class="st1" d="M69,147.2c-0.1-0.1-0.1-0.1-0.2-0.2c-0.1-0.2-0.2-0.4-0.4-0.6c-0.2-0.2-0.4-0.4-0.7-0.6
		c-0.1-0.1-0.1-0.1-0.2-0.2c0,0,0,0,0.1-0.1c0.1-0.1,0.2-0.3,0.3-0.5c0-0.2,0.1-0.4,0.1-0.5c0.1-0.1,0.1-0.2,0-0.2
		c-0.1,0-0.1,0-0.2,0c-0.2,0.1-0.3,0.2-0.5,0.3c0,0.1-0.2,0.3-0.2,0.4s-0.1,0.2-0.1,0.3c0,0-0.1,0-0.3,0s-0.4-0.1-0.6-0.2
		c-0.2-0.1-0.5-0.2-0.7-0.3c-0.2-0.1-0.5-0.1-0.7-0.2c-0.1,0-0.3,0-0.3,0s-0.1-0.1-0.1-0.2s0.2-0.1,0.2-0.2c0.1-0.1,0.2-0.4,0.3-0.5
		c0.1-0.1,0.2-0.3,0.2-0.4c0.1-0.1,0.1-0.2,0-0.3c-0.1-0.1-0.1-0.1-0.2-0.1c-0.1,0-0.2,0.1-0.4,0.1c-0.1,0-0.2,0-0.4,0
		c-0.1-0.1-0.2-0.1-0.4,0l-0.3,0.2c0,0,0,0,0,0c0.1,0,0.1,0,0.2,0c0.1,0,0,0.1,0,0.1c-0.1,0-0.1,0-0.2,0c0,0-0.1,0-0.1,0v0
		c0,0,0,0,0-0.1l0,0c-0.1,0.1-0.2,0.2-0.2,0.2c-0.1,0-0.2,0-0.2-0.2c-0.1-0.2-0.2-0.5-0.3-0.8c0-0.1,0.1-0.1,0.1-0.3
		c0-0.2,0.1-0.5,0.1-0.7c0-0.2,0.1-0.3,0.1-0.5c0-0.1,0.1-0.1,0-0.2c-0.1-0.1-0.3-0.2-0.4-0.2c-0.1,0-0.1-0.1-0.2,0s0,0.5-0.1,0.7
		c-0.1,0.2-0.3,0.3-0.5,0.4c-0.2,0.1-0.6,0.2-0.7,0.2c-0.1,0.1-0.3,0.1-0.5,0c-0.2-0.2-0.5-0.3-0.8-0.4c-0.3,0-0.6-0.1-0.8-0.3
		c-0.3-0.3-0.6-0.6-0.8-1c-0.1-0.3-0.3-0.5-0.5-0.7c-0.1-0.1-0.2-0.2-0.2-0.2c0,0.2,0,0.5,0,0.7c0,0.1-0.1,0-0.1,0
		c0-0.1-0.1-0.2-0.1-0.3c0,0-0.1,0-0.1,0c0,0-0.1,0-0.1,0c-0.1,0,0,0.1,0,0.2c0,0.1,0,0.2,0,0.4c0,0.3,0.1,0.5,0.2,0.7
		c0.1,0.1,0.1,0.2,0.1,0.3c0.1,0.2,0.1,0.4,0.3,0.7c0.1,0.1,0.3,0.2,0.5,0.3c0.3,0.1,0.6,0.2,0.9,0.3c0.2,0.1,0.5,0.1,0.8,0.2
		c0.1,0,0.2,0,0.3,0c0,0.1,0.1,0.2,0.1,0.3c0,0-0.1,0-0.1,0c-0.1,0-0.1,0-0.2,0.1c-0.2,0.2-0.3,0.4-0.4,0.7
		c-0.1,0.2-0.2,0.4-0.3,0.5c-0.1,0.1-0.5,0.5-0.6,0.7c-0.2,0.2-0.4,0.7-0.2,0.8s0.2,0,0.3,0c0.1,0,0.5,0,0.6,0
		c0.2,0,0.4-0.1,0.6-0.3c0.2-0.2,0.5-0.3,0.8-0.4c0.2-0.1,0.4-0.2,0.5-0.4c0.2-0.2,0.4-0.5,0.6-0.6c0.3-0.1,0.6,0,0.7,0.2
		c0.1,0.1,0.2,0.3,0.4,0.4c0.1,0.1,0.2,0.2,0.2,0.3c0,0.2,0,0.1-0.1,0.4c-0.1,0.3-0.3,0.5-0.4,0.8c-0.1,0.1-0.4,0.4-0.3,0.6
		c0.1,0.3,0.3,0.1,0.4,0.1c0.1-0.1,0.2-0.1,0.4-0.1c0.1,0,0.2-0.1,0.1-0.2c0-0.1,0.1-0.2,0.2-0.3c0.1-0.1,0.2-0.1,0.3-0.3
		c0.1-0.1,0.4-0.4,0.4-0.4s0,0,0.1,0.1c0.1,0.2,0.2,0.3,0.3,0.4c0.1,0.1,0.3,0.2,0.5,0.4L65,147c0.2,0.2,0.3,0.3,0.5,0.4
		c0.1,0.1,0.2,0.1,0.2,0.2c0,0.1,0,0.1-0.2,0.3c-0.2,0.1-0.3,0.3-0.5,0.5c-0.2,0.2-0.4,0.4-0.6,0.5c-0.2,0.2-0.5,0.3-0.7,0.5
		c-0.3,0.3-0.5,0.7-0.8,1c-0.2,0.1-0.4,0.2-0.6,0.2l-0.5,0.1c-0.3,0.1-0.5,0.1-0.8,0.2c-0.2,0.1-0.5,0.1-0.8,0.2c-0.1,0-0.3,0-0.3,0
		c-0.1,0-0.7,0.2-1,0.2c-0.3,0.1-0.5,0.1-0.8,0.1c-0.3,0-0.6,0-0.8,0c-0.1-0.1-0.1-0.1-0.1-0.2c0-0.1,0-0.2,0-0.3
		c0-0.1-0.1-0.1-0.2,0c-0.1,0.1-0.1,0.1-0.2,0.2c-0.1,0-0.2,0-0.3-0.1s-0.1,0-0.1,0.1c0,0.1,0.1,0,0,0.2c-0.1,0.2-0.2,0.3,0.2,0.5
		s0.5,0.3,0.7,0.3c0.2,0,0.4-0.1,0.6-0.1c0.4-0.1,0.8-0.1,1.2-0.1c0.4,0,0.8,0,1.2,0c0.3-0.1,0.8-0.1,1.1-0.2s0.5-0.1,0.9-0.1
		c0.4-0.1,0.8-0.3,1.2-0.5c0.2-0.1,0.3-0.3,0.4-0.5c0.2-0.3,0.4-0.7,0.6-1c0.2-0.3,0.5-0.6,0.6-0.9c0.1-0.2,0.3-0.3,0.5-0.5
		c0.1-0.1,0.2-0.3,0.3-0.4c0-0.1,0.1-0.2,0.4-0.1c0.3,0.1,0.4,0.3,0.6,0.3c0.2,0.1,0.4,0.1,0.5,0.1c0,0,0,0.1,0,0.1c0,0,0,0,0,0
		c0.1,0.1,0.2,0.1,0.3,0.2c0.3,0.1,0.7,0.1,1-0.1C69.1,148,69.2,147.5,69,147.2L69,147.2z M61.5,143.6L61.5,143.6L61.5,143.6
		c-0.1,0.1-0.2,0.2-0.3,0.2c-0.1,0.1-0.2,0.1-0.3,0.1c-0.1,0-0.2,0.1-0.2,0.1l-0.1,0.2c0,0-0.3,0.4-0.5,0.5s-0.3,0-0.3-0.1
		c-0.1-0.1,0.1-0.2,0.1-0.3c0.1-0.1,0.2-0.3,0.2-0.3c0.1-0.1,0.2-0.2,0.3-0.3c0.1-0.1,0.2-0.3,0.3-0.4c0-0.1,0.1-0.2,0.2-0.2
		c0.1,0,0.2,0,0.3,0.1c0.1,0.1,0.3,0.2,0.3,0.3C61.5,143.6,61.5,143.6,61.5,143.6z M62.5,143.1L62.5,143.1c-0.2-0.2-0.3-0.4-0.5-0.6
		c-0.1-0.1-0.1-0.1,0-0.2c0.1-0.1,0.2-0.1,0.2-0.2h0.1c0,0.2,0.1,0.3,0.1,0.4c0.1,0.2,0.1,0.3,0.2,0.5
		C62.6,143.2,62.5,143.2,62.5,143.1z M63.8,143.4l0.4-0.2c0.1,0,0.2,0,0.2,0.1c0,0.1,0.1,0.2,0,0.2c-0.1,0-0.1,0-0.2-0.1l-0.1,0.1
		C64.1,143.5,63.9,143.5,63.8,143.4c-0.1,0.1-0.1,0.1-0.1,0.1S63.7,143.4,63.8,143.4z M63.7,144.2c-0.1,0.1-0.1,0.1-0.2,0l0-0.1
		c-0.1-0.1-0.4-0.3-0.5-0.4c0,0,0-0.1,0.1-0.1c0.1,0,0.3,0,0.3,0s0,0,0-0.1c0.1,0,0.2,0,0.2,0h0.3c0.1,0,0.1-0.1,0.2,0
		s0,0.2-0.1,0.2C63.9,143.9,63.8,144.1,63.7,144.2z M66.2,146.5c-0.1,0.2-0.3,0.4-0.3,0.5c0,0.1-0.1,0.2-0.2,0.2c0,0,0,0.1-0.1,0v0
		c-0.2-0.1-0.3-0.1-0.4-0.3c-0.2-0.2-0.2-0.2-0.4-0.4c-0.1-0.1-0.3-0.2-0.4-0.4c-0.1-0.1-0.2-0.2-0.3-0.3c-0.1-0.1-0.2-0.1-0.1-0.2
		c0-0.1,0.3,0,0.6,0c0.3,0,0.6,0.1,0.9,0.1c0.2,0,0.4,0.1,0.6,0.2c0.1,0,0.2,0.1,0.2,0.1C66.3,146.4,66.3,146.5,66.2,146.5z
		 M68.2,147.9L68.2,147.9c-0.1,0-0.2,0-0.3,0.1c-0.2,0-0.3,0-0.5-0.1c-0.2-0.1-0.5-0.2-0.8-0.4c-0.3-0.1-0.3-0.2-0.3-0.2
		c0,0,0.1-0.1,0.1-0.1c0.1-0.2,0.2-0.3,0.3-0.4c0.1-0.1,0.2-0.2,0.3-0.3c0.1-0.1,0-0.2,0.2-0.1c0.2,0.1,0.3,0.2,0.5,0.3
		c0.2,0.1,0.3,0.3,0.5,0.4c0.1,0.2,0.2,0.4,0.2,0.6C68.4,147.9,68.3,147.9,68.2,147.9z"/>
	<path class="st1" d="M79.2,158.9c0-0.1-0.1-0.3,0-0.4c0.1-0.1,0.2-0.1,0.3-0.2c0.1-0.1-0.1-0.4-0.1-0.4s0,0,0.1-0.3
		c0-0.3,0-0.6-0.1-0.8c-0.1-0.1,0-0.2,0.2-0.3c0.2-0.1,0.4-0.1,0.4-0.4c0.1-0.3-0.1-0.5-0.4-0.7c-0.2-0.1-0.4-0.2-0.6-0.3
		c0.1-0.3,0.3-0.5,0.4-0.8c0.2-0.2,0.4-0.3,0.6-0.3c0.2,0,0.5-0.1,0.7-0.1c0.1-0.1,0.3-0.1,0.4-0.1c0.1,0,0.3,0,0.4,0
		c0.1,0,0.2-0.2,0.2-0.3c0-0.2,0.2-0.4,0.2-0.6l-0.1,0.1c0-0.4-0.4-0.7-0.8-0.9c-0.2-0.1-0.5-0.2-0.8-0.2c-0.2-0.1-0.3-0.2-0.5-0.4
		c-0.1,0-0.1-0.3-0.1-0.4c0-0.1,0.1-0.2,0-0.4c-0.1-0.1-0.3-0.1-0.6-0.1c-0.3,0-0.6,0.2-0.8,0.2c-0.2,0-0.4,0-0.5,0
		c-0.2,0-0.8-0.3-1.1-0.4c-0.2-0.1-0.4-0.1-0.6,0c-0.1,0-0.2,0.1-0.2,0.2c0.1,0.1,0.2,0.2,0.3,0.3c0.2,0.2,0.3,0.3,0.4,0.4
		c0.2,0.2,0.4,0.4,0.6,0.6c0.2,0.2,0.4,0.4,0.6,0.5c0.2,0.2,0.1,0.3,0.1,0.5c0,0.2-0.1,0.4-0.3,0.5c-0.4,0.2-0.7,0.4-1.1,0.6
		c-0.5,0.2-1.1,0.5-1.6,0.7c-0.3,0.2-0.5,0.4-0.5,0.8c0,0.3,0.7,0.7,1,0.8c0.3,0.1,0.7,0.1,0.8,0.2c0,0,0,0.1-0.1,0.2
		c-0.1,0.1-0.3,0.2-0.4,0.3c-0.1,0-0.3,0.1-0.4,0.1c-0.4,0.2-0.8,0.4-1.2,0.7c-0.3,0.2-0.8,0.6-1.1,0.8c-0.1,0-0.2,0.2-0.4,0.3
		c-0.4,0.2-0.9,0.5-1,0.6c-0.2,0.2-0.3,0.3-0.4,0.6c-0.1,0.2-0.2,0.3,0.1,0.5c0.3,0.1,0.7,0.2,1,0.2c0.3,0,0.6-0.1,0.9-0.2
		c0.4-0.1,0.8-0.1,1-0.2l0.6-0.2l0.4,0.1c0.1,0,0.2,0,0.3,0c0,0-0.2,0.6-0.3,0.8c-0.1,0.3,0,0.7,0.2,0.9c0.2,0.2,0.5,0.3,0.7,0.2
		c0.1,0,0.2-0.3,0.2-0.4c0-0.2,0.1-0.3,0.1-0.5c0.1-0.2,0.1-0.4,0.1-0.7c0-0.2,0.1-0.4,0.2-0.6c0.1-0.1,0.3-0.3,0.4-0.4
		c0.4-0.1,0.8-0.2,1.2-0.2c0.2-0.1,0.7-0.3,0.9-0.3C79.2,159.1,79.2,159,79.2,158.9z M76.2,157.8L76.2,157.8c0,0.2-0.2,0.7-0.2,0.8
		c0,0.1-0.1,0.2-0.2,0.3c-0.1,0-0.2,0.1-0.3,0.1c-0.4,0.1-0.9,0.1-1.3,0.1c-0.8,0.1-1.1,0.1-1.2,0c-0.1-0.1,0.1-0.3,0.2-0.4
		s0.3-0.4,0.5-0.5s0.2-0.1,0.3-0.2c0.3-0.2,0.6-0.3,0.9-0.5c0.3-0.1,0.6-0.3,0.8-0.3c0.2-0.1,0.4-0.1,0.6-0.1c0.1,0,0.1,0,0.2,0
		L76.2,157.8z M78.5,158.2c-0.2,0.1-0.4,0.1-0.7,0.1c-0.1,0-0.3,0-0.4-0.1l0.1-0.3c0.1-0.2,0.1-0.5,0.3-0.7c0.1-0.2,0.3-0.3,0.5-0.4
		c0.2,0,0.4,0,0.5,0l0,0H79c0.1,0.1,0.2,0.3,0.2,0.5c0,0.2,0,0.3,0,0.5c0,0.1-0.1,0.2-0.1,0.2C78.9,158,78.7,158.1,78.5,158.2z"/>
	<path class="st1" d="M88.3,152.8c-0.3,0-0.6-0.1-0.8-0.2c-0.1,0-0.3-0.1-0.2,0s0.1,0.1,0,0.2c-0.1,0-0.5,0-0.7,0
		c-0.2,0-0.5,0-0.8,0c-0.2-0.1-0.4-0.2-0.5-0.3c-0.2-0.1-0.5-0.3-0.5-0.3l-0.5,0.3c-0.1,0-0.5,0.3-0.5,0.5c-0.1,0.3,0.1,0.7,0.3,0.8
		c0.2,0.1,0.5,0.2,0.7,0.2c0.1,0,0.2,0,0.3,0.1c0,0,0,0.1-0.2,0.2c-0.3,0.3-0.6,0.5-1,0.7c-0.7,0.3-1.4,0.6-1.7,0.8l-0.6,0.3
		c0,0-0.2,0.1,0,0.3c0.1,0.1,0.3,0.2,0.4,0.2c0.1,0,0.2,0.1,0.4,0.2l-0.1,0c0.2,0.1,0.3,0.3,0.5,0.4c0.2,0.1,1-0.3,1-0.3
		s1-0.5,1.8-0.9c0.5-0.3,0.9-0.5,0.9-0.5l0.7-0.5l0.7-0.4c0.2-0.1,0.3-0.2,0.5-0.3c0.2-0.1,0.4-0.2,0.5-0.4c0.1-0.2,0-0.3-0.2-0.5
		C88.8,153,88.6,152.9,88.3,152.8z"/>
	<path class="st1" d="M89.1,156.9c0-0.2-0.1-0.5-0.3-0.7c-0.1-0.2-0.1-0.2-0.1-0.3c0-0.1,0-0.1-0.1-0.1s-0.9,0-1.2-0.1
		c-0.2-0.1-0.3,0-0.3,0c0.1,0.1,0.1,0.2,0.2,0.2c0.1,0.1,0.3,0.3,0.1,0.4c-0.3,0.1-0.7,0.3-1.1,0.3c-0.4,0.1-0.8,0.2-1.2,0.2
		c-0.4-0.1-0.9-0.1-1.3,0c-0.3,0.1-0.6,0.2-0.6,0.4c0,0.2,0.1,0.3,0.3,0.3c0.1,0.1,0.3,0,0.3,0.2c0.1,0.2,0,0.5-0.2,0.7
		c-0.2,0.1-0.4,0.2-0.6,0.1c-0.3,0-0.5,0-0.8,0c-0.4,0-0.7,0-0.7,0.1c0,0.2,0,0.4,0.1,0.6c0.1,0.3,0.1,0.7,0.1,1
		c0,0.2,0.2,0.3,0.2,0.4c0,0.2-0.1,0.3-0.2,0.4c-0.1,0.1-0.1,0.3-0.1,0.5c0,0.3,0.1,0.5,0.3,0.7c0.3,0.2,0.4,0.1,0.7,0.3
		c0.2,0.2,0.4,0.5,0.3,0.7c-0.1,0.2-0.3,0.3-0.5,0.4c-0.1,0.1-0.6,0.3-1,0.5c-0.2,0.1-0.5,0.2-0.7,0.3c-0.2,0.1-1,0.6-1.2,0.7
		c-0.2,0.1-0.5,0.3-0.5,0.4c0,0-0.1,0.1-0.1,0.2c0,0.1,0.1,0.1,0.2,0.1c0.1,0,0.1,0,0.3,0c0.2-0.1,0.3-0.1,0.5-0.2
		c0.1-0.1,0.4-0.3,0.6-0.5c0.2-0.2,0.4-0.3,0.6-0.5c0.2-0.1,0.5-0.1,0.7-0.2s1-0.3,1.3-0.3l0.8-0.1c0.2,0,0.4-0.1,0.6-0.2
		c0.1-0.1,0.3-0.2,0.4-0.3c0.1-0.1,0.2-0.3,0.3-0.5c0-0.3,0.1-0.4-0.2-0.5c-0.3-0.1-0.5-0.3-0.7-0.5c-0.2-0.2-0.2-0.5,0-0.6
		c0,0,0,0,0,0c0.2-0.2,0.4-0.4,0.7-0.4c0.4-0.1,0.7-0.2,1-0.3c0.2-0.2,0.4-0.4,0.3-0.5c-0.1-0.2-0.3-0.5-0.5-0.6
		c-0.3-0.2-0.4-0.3-0.5-0.4c0-0.1,0-0.3,0.1-0.3c0.2-0.2,0.3-0.4,0.4-0.6c0.1-0.2,0.1-0.5,0-0.7c-0.1-0.1-0.2-0.2-0.1-0.3
		c0.3-0.1,0.6-0.2,0.9-0.3c0.4,0,0.8,0,1.2,0c0.3,0.1,0.6,0.2,0.8,0.3c0.2,0.1,0.3,0.1,0.4,0.1S89.1,157.2,89.1,156.9L89.1,156.9z
		 M82.7,160.6L82.7,160.6c0,0.1-0.2,0.3-0.4,0.1c-0.2-0.2-0.3-0.3-0.4-0.6c-0.1-0.2-0.1-0.4-0.2-0.6c0-0.1-0.1-0.3,0-0.4
		c0.1,0,0.3,0.1,0.4,0.2c0.2,0.1,0.4,0.3,0.6,0.4c0.1,0.1,0.4,0.2,0.4,0.3C82.9,160.3,82.8,160.5,82.7,160.6z"/>
	<path class="st1" d="M109.4,164c-0.3-0.3-0.7-0.5-1.2-0.6c-0.5-0.1-1-0.1-1.5,0c-0.8,0.1-2.2,0.2-2.9,0.4c-0.4,0.1-0.9,0.1-1.3,0.1
		c-0.1,0-0.1-0.1,0-0.3c0.1-0.1,0.8-0.9,1-1.2s0.9-1.3,1-1.6c0.2-0.4,0.2-0.9,0-1.3c-0.2-0.3-0.6-0.5-1-0.6l-0.6-0.2
		c-0.2-0.1-0.4-0.1-0.6-0.1c-0.2,0.1-0.3,0.2-0.4,0.4l0,0c0,0-0.2,0.5,0,0.7c0.3,0.2,0.7,0.4,1.1,0.5c0.4,0.1,0.7,0.1,0.6,0.3
		c-0.2,0.7-0.5,1.3-0.9,1.8c-0.3,0.5-0.8,0.9-1.2,1.3c-0.2,0.2-0.4,0.3-0.7,0.4c-0.2,0.1-0.4,0.2-0.7,0.3c-0.3,0.1-0.6,0.2-0.9,0.2
		c-0.4-0.1-0.7-0.1-1.1,0c-0.3,0.1-0.5,0.2-0.8,0.2c-0.3,0-0.3,0-0.4,0.1c-0.1,0.1-0.1,0.3-0.5,0.2l-0.2-0.1c-0.1,0-0.1,0-0.1,0.1
		c0,0.1,0,0.1,0,0.2c0,0.1-0.1,0.1,0,0.3c0.1,0.1,0.5,0.1,0.9,0.2c0.4,0.1,0.7,0.1,2.3,0.2c0.8,0.1,1.6,0.1,2.4,0
		c0.4-0.1,2.6-0.5,3.1-0.7c0.9-0.2,1.8-0.4,2.7-0.5c0.4,0,0.9,0,1.3,0.1c0,0,0.1,0,0-0.1c-0.2-0.1-0.3-0.2-0.4-0.3
		c-0.1-0.1-0.1-0.2,0.1-0.1c0.1,0,0.2,0,0.4,0c0.2,0.1,0.4,0.1,0.6,0.1c0.1,0,0.3,0,0.3-0.1S109.6,164.2,109.4,164z"/>
	<path class="st1" d="M129.6,157.9c-0.4,0-0.8,0-1.1,0.2c-0.3,0.2-0.6,0.4-0.9,0.6c-0.1,0.1-0.3,0.4-0.3,0.2c0-0.1,0-0.2,0.1-0.3
		c0-0.1,0.1-0.3,0.1-0.5c0.1-0.3,0.1-0.6,0.2-0.9c0-0.2,0.1-0.6-0.2-0.8c-0.2-0.1-0.4-0.1-0.6-0.1c-0.1,0-0.3,0-0.4,0.1
		c0,0-0.5,0.2-0.6,0.1c-0.2-0.1-0.1-0.2-0.2-0.3c0-0.2,0-0.3-0.1-0.5c-0.1-0.1-0.1-0.1-0.2-0.1l-0.4,0.2c-0.1,0-0.1,0.1-0.2,0
		c-0.1-0.1-0.2-0.2-0.1-0.4c0-0.2,0.1-0.4,0.3-0.6c0.2-0.2,0.4-0.3,0.6-0.4c0.1,0,0.1-0.1,0-0.1c-0.3-0.1-0.5-0.2-0.8-0.3
		c-0.1-0.1-0.3-0.1-0.1-0.3c0.1-0.2,0.3-0.3,0.5-0.4c0.2-0.2,0.4-0.4,0.6-0.7c0.1-0.2,0.2-0.4,0.4-0.6c0.1-0.1,0.3-0.2,0.4-0.3
		c0.1-0.1,0.2-0.2,0.2-0.4c0-0.1,0-0.3-0.1-0.4c-0.1-0.2-0.2-0.3-0.1-0.4c0.1-0.1,0.3-0.2,0.4-0.3c0.1-0.1,0-0.1,0.4-0.3
		c0.4-0.2,1.3-0.5,1.5-0.6c0.3-0.1,0.6-0.3,0.9-0.5c0.1-0.2,0.1-0.3,0-0.4l-0.2,0c-0.2-0.2-0.4-0.3-0.6-0.4c-0.2-0.1-0.6-0.1-0.8,0
		c-0.4,0.3-0.9,0.6-1.3,1c-0.3,0.2-0.6,0.4-1,0.5c-0.2,0-0.2,0-0.2-0.2s-0.2-0.3-0.2-0.4c-0.2,0-0.4,0-0.6,0c-0.2,0-0.3,0.1-0.2,0
		s0,0,0.2-0.2c0.2-0.2,0.2-0.5,0.1-0.7c-0.2-0.3-0.2-0.5-0.4-0.5c-0.2,0-0.2,0-0.4-0.1c-0.2-0.1-0.3-0.2-0.3-0.3
		c0-0.1-0.1-0.2-0.1-0.3c0-0.1,0-0.2-0.2-0.2c-0.3-0.1-0.6-0.1-0.9-0.1c-0.2,0-0.2,0-0.2,0s0,0,0.2,0c0.2,0,0.3,0.1,0.4,0.2
		c0.1,0.1,0.1,0.2,0.1,0.3c0,0.2,0.1,0.3,0.2,0.4c0.1,0.1,0.2,0.1,0.3,0.1c0,0,0.1,0.1,0,0.1c-0.1,0.1-0.3,0.2-0.4,0.2
		c-0.2,0.1-0.4,0.2-0.6,0.4c-0.1,0.1-0.2,0.3-0.3,0.3c-0.1,0-0.3,0-0.4-0.1c-0.2-0.1-0.3-0.1-0.5-0.2c-0.1,0-0.2-0.1-0.3-0.2
		c0,0-0.1,0,0.1,0.4c0.1,0.2,0.3,0.4,0.5,0.5h0.1c-0.2,0.1-0.5,0.3-0.7,0.5c-0.3,0.2-1.1,0.9-1.3,1c-0.1,0.2-0.2,0.3-0.2,0.5
		c0,0.2,0,0.4,0.1,0.5c0,0.1,0,0.4,0,0.6c-0.1,0.4,0.2,0.8,0.6,0.9c0.1,0,0.3,0.1,0.5,0.1c0,0,0.1,0-0.3,0.3
		c-0.4,0.3-1.1,0.9-1.1,0.9s-1.2,1.2-1.9,1.8c-0.7,0.6-1.7,1.6-1.9,1.8s-0.2,0.3-0.2,0.4c-0.1,0.1-0.1,0.2,0,0.3c0,0,0.1,0,0.1,0
		c0.2,0.1,0.3,0.2,1,0c0.6-0.1,1.1-0.4,1.5-0.9c0.4-0.5,0.5-0.6,0.8-0.9c0.4-0.4,1.2-1.2,1.6-1.6c0.4-0.4,0.8-0.8,1.2-1.1
		c0.2-0.2,0.4-0.3,0.6-0.5c0.1,0,0.1-0.1,0.1,0.1s-0.1,0.3,0.1,0.4c0.2,0.1,0.3,0.1,0.3,0.2c0.1,0.1,0.1,0.3,0.1,0.4
		c-0.1,0.2-0.1,0.4-0.1,0.6c0,0.2,0.2,0.2,0.4,0.2c0.2,0,0.4-0.1,0.6-0.1c0.2,0,0.2-0.1,0.2,0.1c0,0.2,0,0.4,0,0.6
		c0,0.3,0.2,0.8,0.4,0.8c0.2,0.1,0.2,0.1,0.5,0s0.3-0.2,0.5-0.3c0.1-0.1,0.2-0.1,0.3-0.2c0,0.1,0,0.2,0,0.3
		c-0.2,0.4-0.4,0.7-0.6,1.1c-0.2,0.3-0.6,1.1-0.8,1.3c-0.2,0.3-0.3,0.6-0.4,0.9c-0.1,0.2-0.1,0.4,0,0.6c0.1,0.2,0.3,0.2,0.5,0.2
		c0.3,0.1,0.6,0,0.7,0.4c0,0.2,0,0.3,0,0.5c0,0.1,0,0.3,0,0.4s-0.1,0.5,0.2,0.5c0.3,0,0.7-0.2,0.9-0.4c0.2-0.2,0.3-0.4,0.5-0.6
		c0.1-0.2,0.1-0.2,0.2-0.3c0.1,0,0.1,0,0.4,0.1c0.3,0.1,0.5,0.1,0.7-0.1c0.2-0.2,0.3-0.5,0.3-0.8c0-0.4-0.1-0.9-0.4-1.2
		c-0.2-0.3-0.4-0.7-0.6-0.9c0-0.1-0.1-0.1-0.1-0.2c0.1-0.1,0.2-0.1,0.3-0.1c0.5,0.2,1,0.4,1.4,0.6c0.4,0.3,0.8,0.4,1.2,0.3
		c0.3-0.1,0.5-0.4,0.5-0.7c-0.1-0.4-0.1-0.6-0.3-0.8C130.2,158.1,129.9,158,129.6,157.9z M123.1,151.7c-0.1,0.1-0.3,0.2-0.4,0.3l0,0
		c-0.2,0.2-0.3,0.3-0.5,0.5c-0.2,0.1-0.4,0.3-0.6,0.4c-0.2,0.2-0.4,0.3-0.6,0.3c-0.3,0.1-0.4,0.1-0.6,0s-0.2-0.3-0.2-0.4
		c0-0.2,0-0.4,0.1-0.5c0.2-0.1,0.4-0.3,0.6-0.4c0.2-0.1,0.5-0.3,0.7-0.5c0.2-0.2,0.5-0.5,0.6-0.5c0.1-0.1,0.1-0.1,0.2-0.1
		c0.1-0.1,0.2-0.1,0.3-0.1c0.1,0,0,0,0.1,0.1c0.1,0.1,0.1,0.3,0.2,0.4c0.1,0.1,0.2,0.2,0.2,0.3C123.3,151.5,123.3,151.6,123.1,151.7
		z M124,149.7c-0.1,0.2-0.2,0.6-0.2,0.7c-0.1,0.2,0,0.2-0.1,0.2c-0.1,0,0,0-0.1,0c-0.1-0.1-0.2-0.2-0.3-0.3c-0.1,0-0.3-0.1-0.3-0.2
		s0-0.2,0.2-0.4l0,0c0.1-0.1,0.2-0.1,0.3-0.2c0.1-0.1,0.2-0.1,0.2-0.1l0.2-0.1C124,149.5,124,149.6,124,149.7z M124.1,154.2
		c0,0,0,0,0-0.2c0-0.3,0-0.6,0.1-0.8c0.1-0.2,0.1-0.3,0.1-0.4c0-0.1,0.1-0.1,0.2-0.3c0.2-0.1,0.2-0.2,0.3-0.3
		c0.1-0.1,0.2-0.1,0.3-0.2l0.5-0.2l0.2-0.1h0.1c0,0,0.1,0,0,0.2v0c-0.1,0.2-0.2,0.4-0.3,0.6c-0.1,0.2-0.2,0.4-0.3,0.6
		c0,0.1-0.1,0.2-0.1,0.3c-0.1,0.1-0.2,0.2-0.3,0.3C124.6,153.8,124.3,154,124.1,154.2z M127.2,161c0,0.1,0.1,0.2,0.1,0.2
		c0,0.1,0,0.2-0.1,0.3c-0.2,0.1-0.2,0.1-0.3,0c-0.1-0.1-0.1-0.2,0-0.3c0-0.1,0.1-0.2,0.2-0.3C127.1,160.8,127.2,160.9,127.2,161
		l-0.1-0.1C127.2,160.9,127.2,160.9,127.2,161z"/>
	<path class="st1" d="M159.4,128.8c0,0-0.3-0.1-0.6-0.1s-0.5-0.1-0.6-0.1c-0.1,0,0-0.4,0.2-0.6c0.1-0.2,0.3-0.5,0.4-0.7
		c0.1-0.2,0.3-0.2,0.6-0.4c0.3-0.2,0.2-0.2,0.2-0.4c0-0.2-0.1-0.4-0.3-0.4c-0.1,0-0.2,0-0.5,0.2c-0.2,0.1-0.3,0.3-0.5,0.4
		c-0.4,0.5-0.7,1.1-0.9,1.7c-0.1,0.4,0,0.3-0.8,0.3c-0.5-0.1-0.9,0-1.3,0.3c-0.3,0.2-0.6,0.2-0.9,0c-0.5-0.2-0.9-0.6-1.3-1
		c-0.4-0.5,0.1-1.3,0.1-1.3s0.4-0.6,0.6-1.1c0.2-0.4,0.4-0.8,0.6-1.3c0.1-0.7,0-1.5-0.3-2.2c-0.1-0.2-0.3-0.4-0.5-0.6
		c-0.2-0.1-0.5-0.1-0.7,0l0-0.1c-0.7,0.6-1.3,1.3-1.8,2.2c-0.6,0.9-0.7,1.6-0.9,1.8s-0.2,0-0.1-0.6c0.4-0.7,0.6-1.5,0.9-2.3
		c0.1-0.6-0.3-1.1-0.8-1.3c-0.6-0.2-1.3-0.2-1.9,0.1c-0.4,0.3-0.7,0.9-0.8,1.4c-0.1,0.4-0.1,0.7,0.1,1.1c0.1,0.1,0.1,0.3,0,0.5
		c-0.1,0.2-0.3,0.4-0.5,0.5c-0.2,0.1-0.3,0.2-0.5,0.3c0,0,0.2,0.1,0.4,0.2c0.1,0.1,0.4,0.3,0.6,0.3c0.3,0,0.6,0,0.9-0.2
		c0.2,0,0.3-0.1,0.5-0.2c0.1-0.1,0.2-0.2,0.3-0.4c0.1-0.2-0.1-0.1-0.3-0.2c-0.4-0.2-0.7-0.4-1-0.7c-0.2-0.2-0.3-0.5-0.5-0.7
		c-0.1-0.2,0.1-0.4,0.2-0.7c0.1-0.1,0.1-0.3,0.2-0.5c0-0.1,0-0.1,0.1-0.2c0-0.1,0.1-0.1,0.1-0.2c0.2-0.1,0.5-0.1,0.7,0
		c0.3,0.1,0.5,0.3,0.7,0.5c0.1,0.2,0.2,0.5,0.2,0.8c0.1,0.8,0.1,1.5,0,2.3c-0.1,0.8-0.2,1.6-0.4,2.5c-0.1,0.2-0.1,0.1-0.2,0
		c-0.1-0.2-0.2-0.3-0.4-0.4c-0.1-0.1-0.4-0.1-0.6-0.1c-0.2,0-0.3-0.3-0.5-0.4c-0.1-0.1-0.3-0.1-0.3,0c-0.1,0-0.2,0-0.3,0
		c0,0,0.2,0.3,0.2,0.5c0.1,0.1,0.1,0.2,0.1,0.3c0,0.1-0.1,0.2-0.1,0.3c-0.1,0.1-0.1,0.2-0.2,0.2c-0.1,0.1-0.3,0.2-0.4,0.2
		c-0.3,0.1-0.2,0.1-0.4,0.2c-0.2,0.1-0.4,0.2-0.5,0.4c-0.1,0.1,0,0.1,0.1,0.1c0.2,0,0.4,0,0.6,0c0.4,0,0.8-0.1,1.2-0.2
		c0.4-0.1,0.9-0.4,1.2-0.4c0.3-0.1,0.3,0.1,0.3,0.3c0,0.2-0.1,0.5-0.1,0.7c0,0.3,0,0.6,0.1,0.8c0.1,0.2,0.1,0.5,0.1,0.8
		c0,0.2,0,0.9,0,1.1c0,0.3,0.1,0.7,0.3,0.9c0.3,0.3,0.7,0.5,1.2,0.6c0.2,0,0.4,0,0.6,0.1c0.2,0.1,0.3,0.1,0.5,0.1c0.1,0,0.3,0,0.4,0
		c0.1-0.1,0.2-0.2,0.2-0.3c0-0.2,0-0.3-0.1-0.5c0-0.1-0.2-0.1-0.5-0.3s-0.5-1-0.5-1.3c0-0.4-0.1-0.5-0.2-1c-0.1-0.4-0.1-0.8-0.1-1.1
		c0-0.4,0-0.7,0.1-1.2c0.1-0.7,0.3-1.4,0.5-2.1c0.1-0.5,0.3-1,0.5-1.5c0.4-0.9,0.8-1.5,0.9-1.8c0.1-0.3,0.2-0.4,0.3-0.5
		c0.2-0.1,0.3,0.1,0.4,0.4c0.1,0.4,0.1,0.8-0.1,1.2c-0.1,0.4-0.2,0.9-0.4,1.3c-0.2,0.7-0.5,0.9-0.8,1.9c-0.2,0.6-0.3,1.2-0.4,1.9
		c-0.1,0.7,0.1,0.9,0.2,0.9c0,0.1,0.2,0,0.3-0.2s0.1-0.3,0.3-0.3c0.2,0,0.5,0.2,0.7,0.4c0.2,0.2,0.5,0.5,0.8,0.7
		c0.2,0.1,0.3,0.2,0.5,0.2s0.2,0,0.3-0.1c0.1-0.1,0.1-0.3,0.2-0.6c0-0.1,0.1-0.3,0.2-0.4c0-0.1,0.1-0.1,0.2-0.1
		c0.2-0.1,0.4-0.1,0.5-0.1c0.3,0.1,0.3,0.2,0.3,0.5c-0.1,0.3-0.1,0.7-0.2,1.1c0,0.6,0,1.2,0.1,1.8c0.1,0.6,0.4,1.3,0.8,1.8
		c0.2,0.3,0.4,0.2,0.4,0.2c0.4-0.1,0.8-0.4,1-0.8c0.2-0.2,0.4-0.5,0.6-0.9c0.2-0.2,0.3-0.5,0.4-0.7c0.9-2,0.5-2.8,0.3-3.3
		C160,129.1,159.7,128.9,159.4,128.8z M159.6,131c-0.2,0.3-0.3,0.5-0.4,0.8c0,0.3,0,0.5-0.1,0.8c-0.1,0.2-0.3,0.3-0.4,0.2
		c-0.1-0.1-0.2-0.3-0.2-0.5c-0.1-0.2-0.2-0.3-0.3-0.5c-0.1-0.2-0.2-0.4-0.2-0.7c0-0.3,0-0.6,0-0.8c0-0.2,0-0.7,0.1-0.8
		c0.3,0,0.6,0,0.8,0.2c0.5,0.2,0.7,0.3,0.8,0.6C159.8,130.6,159.8,130.8,159.6,131z"/>
	<path class="st1" d="M143.3,147c-0.1-0.4-0.3-0.8-0.6-1.1c-0.3-0.4-0.7-0.8-1.1-1.1c-0.1-0.1-0.2-0.3-0.1-0.5
		c0.2-0.5,0.5-0.8,0.7-1.3c0.2-0.3,0.3-0.7,0.2-1.1c-0.1-0.2-0.1-0.4-0.1-0.6c0-0.5-0.1-1.1-0.2-1.6c0-0.2-0.2-0.3-0.4-0.4
		c-0.1,0-0.3,0-0.4,0c-0.5,0-1,0.1-1.4,0.4c-0.3,0.2-0.6,0.3-0.9,0.4c-0.5,0.1-1.1,0-1.6-0.1c-0.2-0.1-0.5-0.2-0.7-0.2
		c-0.1,0-0.2,0-0.2,0c-0.3,0-0.5,0.3-0.5,0.6c0,0.1,0,0.3,0,0.4c0,0,0,0.1,0,0.2c0.3,0.5,0.7,1,1.2,1.4c0.6,0.5,1.2,1,1.8,1.5l0,0
		l0.1,0.1c0.2,0.2,0.2,0.4,0,0.6c-0.1,0.1-0.3,0.3-0.5,0.4l-1.1,0.6c-0.1,0.1-0.2,0.1-0.2,0.2c0.2,0.6,0.4,0.9,1,0.6
		c0.4-0.2,0.8-0.4,1.1-0.7c0.1-0.1,0.3-0.1,0.4-0.1c0.4,0,0.6,0.3,0.7,0.6c0.4,0.8,0.7,1.6,1,2.4c0.2,0.6,0.3,1.2,0.2,1.9
		c0,0.3-0.2,0.5-0.2,0.8c-0.1,0.2-0.1,0.5,0,0.7c0.1,0.3,0.3,0.3,0.5,0.1c0.3-0.2,0.5-0.6,0.7-0.9c0.1-0.3,0.2-0.5,0.5-0.7
		c0.2-0.2,0.4-0.4,0.6-0.6c0.1-0.1,0.2-0.2,0.2-0.4c0.1-0.3,0-0.6-0.2-0.8C143.7,148.1,143.4,147.6,143.3,147z M140,142.4
		c0,0.1-0.1,0.2-0.2,0.4v0c-0.2,0.1-0.3,0.1-0.3,0c-0.5-0.6-1.1-1.1-1.6-1.7c-0.1,0-0.1-0.1-0.1-0.2c0-0.1,0.1-0.1,0.2-0.1
		c0.1,0,0.3,0,0.5,0c0.5,0.1,1,0.2,1.5,0.3c0.1,0,0.2,0.1,0.2,0.2C140.1,141.7,140.1,142,140,142.4z"/>
	<path class="st1" d="M149.1,144.2c-1.1-0.2-2.3-0.2-3.5,0.2c-0.6,0.1-1.1,0.4-1.6,0.8c0,0,0,0,0,0c-0.1,0.1-0.1,0.3,0,0.4
		c0.1,0.2,0.4,0.3,0.7,0.3c0.6-0.1,1.3-0.2,1.9-0.3c0.5-0.1,1-0.2,1.5-0.2c0.4,0,0.6,0.2,0.6,0.6c0,0.4-0.1,0.8-0.2,1.2
		c-0.1,0.5-0.3,0.9-0.4,1.4c0,0.1-0.1,0.3,0,0.3c0.1,0.1,0.2-0.1,0.2-0.1l0.1-0.1l0,0c0.3-0.3,0.6-0.5,0.8-0.9
		c0.3-0.6,0.7-1.2,1.1-1.8c0.2-0.3,0.2-0.6,0-0.9C150.2,144.7,149.7,144.4,149.1,144.2z"/>
	<path class="st1" d="M37.6,115.5c-0.1-0.2-0.2-0.4-0.3-0.6c-0.1-0.2-0.1-0.5-0.2-0.8l-0.4-2l7.9,2.7l-1.2-6l-1.2,0.2l0.1,0.2
		c0.3,0.6,0.5,1.2,0.6,1.8l0.4,1.9l-7.9-2.7l1.1,5.7l1.2-0.2L37.6,115.5z"/>
	<polygon class="st1" points="41.5,108.3 43.3,108.2 43.2,106.6 41.4,106.8 39.5,107 39.2,104.1 41.2,103.9 43,103.9 42.9,102.3 
		41.1,102.5 36.5,102.9 34.7,102.9 34.8,104.5 36.6,104.3 38.3,104.2 38.5,107.1 36.9,107.2 35.1,107.3 35.2,108.9 37,108.6 	"/>
	<path class="st1" d="M41.1,101l1.8,0.2l0.2-4.9H42v0.1c0,0.3,0,0.6,0,0.9s0,0.5,0,0.7l0,1.6l-2.8-0.1v-0.9l0.2-1.6h-1.1V97
		c0,0.3,0,0.6,0,0.9s0,0.5,0,0.6v1l-2.6-0.1v-1.3l0.2-1.9h-1l-0.2,4.7h1.8L41.1,101z"/>
	<polygon class="st1" points="41.3,95.2 43.1,95.5 43.3,94.4 41.4,94.3 37.4,93.7 43.7,90.9 43.8,90.9 43.9,89.7 42.1,89.5 
		37.6,88.9 35.8,88.5 35.7,89.6 37.5,89.8 41.4,90.4 35.2,93.1 35.2,93.1 35,94.4 36.8,94.6 	"/>
	<path class="st1" d="M40.3,87.9c0.4,0.1,0.9,0.2,1.3,0.2c0.6,0,1.2-0.1,1.8-0.4c0.9-0.5,1.6-1.3,1.8-2.3c0.1-0.4,0.2-0.9,0.2-1.4
		c0-0.5-0.1-0.9-0.3-1.4l0-0.1L44,82.3l-0.9-0.3l-1.5-0.5l-0.4,1.5l1.4,0.3l1.7,0.5c0.2,0.3,0.2,0.7,0.1,1.1c-0.1,0.6-0.5,1-1.1,1.3
		c-0.8,0.4-1.7,0.4-2.5,0.1c-0.8-0.2-1.6-0.6-2.2-1.2c-0.6-0.5-0.8-1.3-0.6-2c0.1-0.4,0.3-0.7,0.6-1c0.2-0.3,0.6-0.5,0.9-0.6
		l0.5-0.1L38.2,81l-0.1,0.1c-0.2,0.3-0.4,0.5-0.6,0.8c-0.2,0.3-0.3,0.6-0.4,0.9c-0.4,1.1-0.2,2.4,0.5,3.3
		C38.4,87,39.3,87.6,40.3,87.9z"/>
	<path class="st1" d="M39.6,79.2c0-0.2,0.1-0.5,0.1-0.7c0.1-0.3,0.1-0.5,0.3-0.7l0.7-1.8l5.2,6.5l2.3-5.7L47,76.3l0,0.2
		c-0.1,0.6-0.2,1.2-0.5,1.8l-0.7,1.8l-5.2-6.5L38.4,79l1.1,0.5V79.2z"/>
	<polygon class="st1" points="46.8,75.3 48.4,76.3 49.1,74.8 47.5,74.1 45.8,73.1 47.1,70.6 48.9,71.5 50.4,72.4 51.2,71 49.6,70.2 
		45.5,68.1 44,67.1 43.2,68.5 44.8,69.3 46.3,70.1 44.9,72.7 43.5,71.9 41.9,71 41.2,72.4 42.8,73.2 	"/>
	<path class="st1" d="M48.2,68c0.8,0.6,1.8,1,2.8,1.1h0.2c0.9-0.1,1.8-0.6,2.3-1.3c0.6-0.7,0.8-1.6,0.6-2.5c-0.3-1.1-1-2-2-2.6l0,0
		c-0.9-0.6-1.9-1-3-1c-1,0-1.9,0.5-2.4,1.3c-0.6,0.7-0.8,1.7-0.5,2.6C46.5,66.5,47.3,67.4,48.2,68z M47.5,63.4
		c0.3-0.4,0.7-0.6,1.2-0.6h0.1c0.9,0.2,1.7,0.5,2.4,1.1c0.8,0.5,1.4,1.1,1.8,1.9c0.2,0.5,0.1,1.1-0.2,1.5c-0.3,0.4-0.8,0.7-1.3,0.6
		c-0.9-0.2-1.7-0.6-2.3-1.1c-0.8-0.5-1.4-1.1-1.8-1.9C47.1,64.3,47.2,63.8,47.5,63.4z"/>
	<path class="st1" d="M54.2,62.6c0.4,0.4,1,0.7,1.6,0.7c0.1,0,0.3,0,0.4-0.1c0.7-0.2,1.4-0.6,1.9-1.2c0.5-0.5,0.8-1.1,0.9-1.8
		c0-0.7-0.4-1.3-0.9-1.8l-2.9-2.7l-1.3-1.3l-0.8,0.8l1.4,1.1l2.9,2.7c0.8,0.7,0.8,1.5,0,2.4c-0.3,0.3-0.7,0.6-1.1,0.6
		c-0.5-0.1-0.9-0.3-1.3-0.6l-2.8-2.5L51,57.6l-1.1,1.2l1.4,1.1L54.2,62.6z"/>
	<path class="st1" d="M61.7,55.1c0.4,0.6,1.1,1,1.9,1c0.8,0,1.5-0.3,2-0.8c0.6-0.4,1-1,1.2-1.8c0.1-0.7-0.1-1.4-0.6-1.9l-2.4-3.1
		l-1-1.5l-0.9,0.7l1.2,1.4l2.4,3.2c0.7,0.8,0.5,1.6-0.4,2.3c-0.3,0.3-0.8,0.4-1.2,0.4c-0.5-0.1-0.9-0.5-1.1-0.9l-2.3-3l-1-1.5
		l-1.3,1l1.2,1.4L61.7,55.1z"/>
	<polygon class="st1" points="67.9,51.3 68.7,52.9 69.7,52.3 68.7,50.8 66.6,47.2 72.7,50.5 72.8,50.5 73.8,49.9 72.8,48.4 
		70.5,44.4 69.7,42.8 68.7,43.4 69.7,44.9 71.7,48.3 65.7,45.2 64.6,45.8 65.6,47.3 	"/>
	<polygon class="st1" points="74.1,47.8 74.9,49.5 76.3,48.8 75.5,47.2 73.5,43 72.8,41.4 71.3,42.1 72.2,43.7 	"/>
	<path class="st1" d="M73.9,41.9c0.5,0.6,0.6,0.7,0.6,0.7l4.4,5.1l1.4-0.6l-0.5-0.5l-0.3-6v-2L78.5,39l0.1,1.8l0.2,4.5L76,41.9
		l-1.1-1.5l-1.6,0.7l0.1,0.2L73.9,41.9z"/>
	<polygon class="st1" points="82,44.6 82.4,46.4 87.2,45 86.9,44 86.8,44 85.9,44.3 85.2,44.5 83.7,45 82.9,42.3 83.8,42.1 
		85.4,41.7 85.1,40.6 85,40.7 84.2,41 83.6,41.2 82.7,41.4 82,38.9 83.2,38.6 85.1,38.1 84.8,37.1 80.2,38.5 80.8,40.2 	"/>
	<path class="st1" d="M87.6,43l0.2,1.8l1.6-0.3l-0.4-1.8l-0.3-1.7h0.1l2.1,2.1l0.9,1l1.9-0.3l-3.4-3.1c0.6-0.2,1.2-0.6,1.5-1.1v-0.1
		c0.3-0.5,0.4-1,0.3-1.6c-0.1-0.6-0.5-1.1-1-1.4c-0.6-0.3-1.4-0.4-2.1-0.3l-2.7,0.5l0.3,1.1L87.6,43z M88.6,37.4
		c0.5-0.1,1-0.1,1.5,0.1c0.3,0.2,0.6,0.5,0.6,0.8c0.1,0.4-0.1,0.8-0.3,1.1l0,0.1c-0.4,0.4-0.9,0.7-1.4,0.8h-0.4l-0.5-2.8L88.6,37.4z
		"/>
	<path class="st1" d="M95.3,40l0.6,0.3c0.4,0.1,0.7,0.4,1,0.6c0.1,0.2,0.2,0.4,0.2,0.6c0,0.3-0.1,0.7-0.4,0.9
		c-0.3,0.3-0.6,0.4-1,0.5c-0.3,0-0.6,0-0.9,0c-0.4-0.1-0.8-0.4-1-0.7L93.6,42l0.1,1.4h0.1c0.2,0.1,0.4,0.2,0.6,0.2
		c0.4,0.1,0.8,0.2,1.2,0.2h0.3c0.8,0,1.5-0.4,2-0.9c0.4-0.5,0.7-1.1,0.6-1.8c0-0.4-0.1-0.8-0.3-1.1c-0.4-0.4-1-0.8-1.6-1v0l-0.8-0.4
		c-0.3-0.1-0.6-0.3-0.8-0.5c-0.2-0.1-0.3-0.3-0.3-0.5c0-0.3,0.1-0.6,0.3-0.8c0.2-0.3,0.5-0.4,0.9-0.4c0.3,0,0.6,0.1,0.9,0.2
		c0.3,0.1,0.6,0.3,0.8,0.4l0.3,0.2l-0.1-1.5h-0.1l-0.7-0.1c-0.4-0.1-0.7-0.1-1.1-0.1c-0.7,0-1.3,0.3-1.8,0.8c-0.5,0.4-0.7,1-0.7,1.6
		c0,0.4,0.2,0.9,0.5,1.2C94.2,39.5,94.7,39.8,95.3,40z"/>
	<polygon class="st1" points="99.5,43.6 101.1,43.6 101,41.8 101,37.2 101.1,35.4 99.5,35.4 99.6,37.2 99.5,41.8 	"/>
	<polygon class="st1" points="103.6,36.4 103.2,41.8 103,43.6 104.7,43.8 104.7,41.9 105.1,36.5 105.7,36.6 107,36.8 107.4,37.6 
		108.5,40.6 108.3,42.3 107.9,44.1 109.5,44.4 109.7,42.6 110,40.8 112,38.4 113.5,36.7 112.2,36.5 111,38.1 109.7,39.7 109,37.7 
		108.3,35.9 106.5,35.6 106.5,35.7 101.6,35.3 101.6,36.4 103,36.4 	"/>
	<path class="st1" d="M117.9,46.5c0.3,0.1,0.7,0.2,1.1,0.2c0.5,0,1-0.1,1.5-0.4c0.9-0.6,1.6-1.6,1.9-2.7c0.4-1,0.4-2.1,0.1-3.1l0,0
		c-0.3-0.9-1.1-1.7-2-1.9c-0.9-0.3-1.9-0.2-2.7,0.3c-0.9,0.7-1.5,1.6-1.8,2.7c-0.4,1-0.5,2.2-0.1,3.3
		C116.2,45.6,117,46.3,117.9,46.5z M117.5,42c0.2-0.9,0.7-1.7,1.3-2.3c0.2-0.2,0.6-0.3,0.9-0.3c0.2,0,0.4,0,0.5,0.1
		c0.5,0.1,0.9,0.6,1,1.1c0.1,0.9,0,1.8-0.3,2.6h0c-0.2,0.9-0.7,1.7-1.3,2.3c-0.6,0.5-1.6,0.4-2.1-0.2c-0.1-0.2-0.3-0.4-0.3-0.6
		C117,43.7,117.2,42.8,117.5,42z"/>
	<path class="st1" d="M121.7,47.8l1.4,0.6l0.7-1.7l0.8-1.8l0.9,0.4l1.4,0.8l0.5-1h-0.1l-0.4-0.1c-0.5-0.2-0.8-0.3-1-0.4l-0.9-0.4
		l1.1-2.4l1.2,0.5l1.7,0.9l0.4-0.9l-4.3-1.9l-0.7,1.7l-1.9,4.2L121.7,47.8z"/>
	<polygon class="st1" points="133.2,54 133.8,53.1 133.6,53 132.8,52.6 132.2,52.2 130.9,51.5 133.8,46.9 134.8,45.4 133.5,44.6 
		132.6,46.1 130.2,50 129.2,51.5 	"/>
	<polygon class="st1" points="133.4,54.2 134.6,55.2 135.7,53.7 138.4,50 139.5,48.6 138.2,47.6 137.2,49.1 134.5,52.8 	"/>
	<path class="st1" d="M137.9,52.6c-0.7,0.8-1.1,1.8-1.1,2.9c0,1,0.5,2,1.3,2.6c0.3,0.3,0.7,0.6,1.2,0.8c0.4,0.2,0.9,0.3,1.3,0.4h0.1
		l0.7-0.9l0.6-0.7l1.1-1.1l-1.2-1.1l-0.9,1.1l-1.2,1.3c-0.4,0-0.7-0.2-1-0.4c-0.4-0.4-0.7-0.9-0.7-1.5c0-0.9,0.4-1.7,1-2.3
		c0.5-0.7,1.2-1.2,2-1.5c0.7-0.3,1.4-0.2,2,0.3c0.3,0.3,0.6,0.6,0.7,1c0.1,0.3,0.2,0.7,0.1,1.1l-0.1,0.5l1.2-1.4v-0.1
		c-0.1-0.3-0.3-0.6-0.5-0.9c-0.2-0.3-0.4-0.5-0.7-0.7c-0.9-0.8-2-1.2-3.2-1C139.6,51.2,138.6,51.8,137.9,52.6z"/>
	<polygon class="st1" points="140.9,60.6 142,61.8 143.3,60.5 144.7,59.2 146.6,61.4 145.2,62.7 143.8,63.8 144.8,65 146.1,63.8 
		149.6,60.7 151,59.6 149.9,58.4 148.6,59.6 147.4,60.7 145.5,58.6 146.7,57.5 148.1,56.3 147,55.1 145.7,56.4 142.3,59.4 	"/>
	<polygon class="st1" points="151.6,62 151.9,62.5 147.5,65.7 146,66.7 147,68 148.4,66.9 152.8,63.7 153.1,64.2 153.9,65.4 
		154.8,64.8 151.6,60.4 151.5,60.3 150.6,60.9 	"/>
	<polygon class="st1" points="149.7,72.4 150.5,73.8 152.1,72.9 156.1,70.6 157.7,69.8 156.9,68.4 155.4,69.4 151.4,71.6 	"/>
	<polygon class="st1" points="152.8,74.1 151.1,74.7 151.5,75.8 153.1,74.9 156.9,73.2 153.1,79 153,79.1 153.5,80.1 155.1,79.3 
		159.3,77.4 161,76.8 160.5,75.8 158.9,76.6 155.3,78.2 159,72.6 159.1,72.6 158.5,71.4 156.9,72.2 	"/>
	<path class="st1" d="M155.8,80.7l-1.9,0.5l0.7,2.3c0.2,1,0.9,1.7,1.8,2.2c0.4,0.2,0.9,0.3,1.4,0.3l0,0c0.6,0,1.2-0.1,1.8-0.3
		c1.1-0.3,2-0.9,2.6-1.8c0.5-0.9,0.6-1.9,0.2-2.9l-0.7-2.2l-1.7,0.6L155.8,80.7z M161.5,81.2c0.2,0.6,0.2,1.3-0.2,1.8
		c-0.6,0.6-1.3,1.1-2.1,1.2c-0.8,0.3-1.7,0.4-2.5,0.2c-0.5-0.2-0.9-0.6-1.1-1.1v0l-0.3-1l6-1.9L161.5,81.2z"/>
	<path class="st1" d="M158.3,87.3c-0.8,0.1-1.4,0.6-1.8,1.3c-0.3,0.7-0.4,1.5-0.2,2.2c0.1,0.7,0.4,1.4,1,1.8
		c0.4,0.3,0.9,0.4,1.4,0.4c0.2,0,0.4,0,0.6-0.1l3.9-0.7l1.8-0.3l-0.2-1.1l-1.8,0.4L159,92c-0.4,0.1-0.8,0-1.2-0.2
		c-0.4-0.3-0.6-0.8-0.7-1.3c-0.1-0.4-0.1-0.9,0.2-1.2c0.3-0.3,0.8-0.6,1.3-0.6l3.7-0.7l1.8-0.2l-0.3-1.6l-1.8,0.4L158.3,87.3z"/>
	<path class="st1" d="M163.8,98.1l-0.2,0.3l1.4-0.1v-0.1c0.1-0.3,0.1-0.5,0.2-0.7c0.1-0.4,0.1-0.7,0.1-1.1c0-0.7-0.3-1.3-0.8-1.8
		c-0.4-0.5-1-0.7-1.6-0.7c-0.4,0-0.8,0.2-1.1,0.5c-0.4,0.4-0.7,0.9-0.9,1.5l-0.3,0.6c-0.1,0.4-0.4,0.7-0.6,1
		c-0.2,0.2-0.4,0.2-0.7,0.3c-0.3,0-0.7-0.1-0.9-0.4c-0.3-0.3-0.4-0.6-0.5-1c0-0.3,0-0.6,0-0.9c0.1-0.4,0.4-0.8,0.6-1.1l0.2-0.3
		l-1.4,0.1v0.1c-0.1,0.2-0.2,0.4-0.2,0.6c-0.1,0.5-0.2,1-0.2,1.5c0,0.8,0.4,1.5,0.9,2c0.4,0.4,1,0.6,1.6,0.6h0.2
		c0.4,0,0.8-0.1,1.1-0.4c0.4-0.4,0.8-1,1-1.6l0.3-0.8c0.1-0.3,0.3-0.6,0.5-0.8c0.1-0.2,0.3-0.3,0.5-0.3c0.3,0,0.6,0.1,0.8,0.3
		c0.3,0.2,0.4,0.5,0.4,0.9c0,0.3-0.1,0.6-0.2,0.9C164.2,97.5,164,97.8,163.8,98.1z"/>
	<path class="st1" d="M162.9,93.8C162.9,93.8,162.9,93.8,162.9,93.8C162.9,93.8,162.9,93.8,162.9,93.8L162.9,93.8z"/>
	<polygon class="st1" points="164.4,99 164.5,100.4 164.5,101 159.1,100.9 157.3,100.8 157.2,102.5 159.1,102.4 164.5,102.5 
		164.5,103.1 164.3,104.5 165.4,104.5 165.5,99 	"/>
	<path class="st1" d="M159,104.7l-1.8-0.3l-0.2,1.6l1.8,0.1l1.7,0.2v0.1l-2.6,1.5l-1.2,0.6l-0.2,1.9l4-2.4c0,0.7,0.2,1.3,0.7,1.8
		c0.4,0.4,0.9,0.7,1.4,0.7h0.2c0.5,0,1-0.2,1.4-0.6c0.5-0.5,0.8-1.2,0.8-1.9l0.3-2.7l-1.2,0L159,104.7z M164.1,107.3
		c0,0.5-0.2,1-0.5,1.4c-0.2,0.3-0.6,0.4-1,0.4c-0.4,0-0.8-0.3-1-0.6c-0.3-0.5-0.4-1-0.3-1.6c0-0.1,0-0.3,0.1-0.4l2.9,0.3
		L164.1,107.3z"/>
	<polygon class="st1" points="159.6,112.8 157.9,112.4 156.1,112 155.8,113.5 157.6,113.9 159.3,114.2 161.6,116.4 163.2,118 
		163.5,116.7 162,115.4 160.5,114 162.4,113.4 164.3,112.8 164.7,111 162.6,111.8 	"/>
</g>
</svg>
