<?xml version="1.0" encoding="utf-8"?>
<!-- Generator: Adobe Illustrator 21.0.2, SVG Export Plug-In . SVG Version: 6.00 Build 0)  -->
<svg version="1.1" id="Layer_1" xmlns="http://www.w3.org/2000/svg" xmlns:xlink="http://www.w3.org/1999/xlink" x="0px" y="0px"
	 viewBox="0 0 200 200" style="enable-background:new 0 0 200 200;" xml:space="preserve">
<style type="text/css">
	.st0{fill:#1E80FF;}
</style>
<path class="st0" d="M100,58.9l24.1-19.1L100,20.4l0,0l-24,19.3L100,58.9L100,58.9L100,58.9z M100,119.3L100,119.3l62.1-49
	l-16.8-13.5L100,92.5h0l0,0L54.7,56.8L37.9,70.3L100,119.3L100,119.3L100,119.3z M100,152.8L100,152.8l83.2-65.6l16.9,13.5
	l-37.8,29.8l-62.2,49L1.6,102L0,100.7l16.8-13.5L100,152.8L100,152.8z"/>
</svg>
