<svg xmlns="http://www.w3.org/2000/svg" viewBox="0 0 59.04 59.04"><defs><style>.cls-1{fill:#1a1919;}</style></defs><title>Asset 1</title><g id="Layer_2" data-name="Layer 2"><g id="Layer_1-2" data-name="Layer 1"><path id="Fill-4" class="cls-1" d="M1.53,28A1.53,1.53,0,1,1,0,29.52,1.53,1.53,0,0,1,1.53,28"/><path id="Fill-5" class="cls-1" d="M6.93,28A1.53,1.53,0,1,1,5.4,29.52,1.53,1.53,0,0,1,6.93,28"/><path id="Fill-6" class="cls-1" d="M12.38,28a1.53,1.53,0,1,1-1.53,1.53A1.53,1.53,0,0,1,12.38,28"/><path id="Fill-7" class="cls-1" d="M17.47,28a1.53,1.53,0,1,1-1.53,1.53A1.53,1.53,0,0,1,17.47,28"/><path id="Fill-8" class="cls-1" d="M15.44,24.17a1.53,1.53,0,1,1-1.53,1.53,1.53,1.53,0,0,1,1.53-1.53"/><path id="Fill-9" class="cls-1" d="M10.34,22.64a1.53,1.53,0,1,1-1.53,1.53,1.53,1.53,0,0,1,1.53-1.53"/><path id="Fill-10" class="cls-1" d="M4.94,21.11a1.53,1.53,0,1,1-1.53,1.53,1.53,1.53,0,0,1,1.53-1.53"/><path id="Fill-11" class="cls-1" d="M4.51,42.19A1.53,1.53,0,1,1,4,44.28a1.53,1.53,0,0,1,.56-2.09"/><path id="Fill-12" class="cls-1" d="M9.19,39.49a1.53,1.53,0,1,1-.56,2.09,1.53,1.53,0,0,1,.56-2.09"/><path id="Fill-13" class="cls-1" d="M13.91,36.77a1.53,1.53,0,1,1-.56,2.08,1.52,1.52,0,0,1,.56-2.08"/><path id="Fill-14" class="cls-1" d="M18.32,34.22a1.53,1.53,0,1,1-.56,2.09,1.53,1.53,0,0,1,.56-2.09"/><path id="Fill-15" class="cls-1" d="M14.65,31.93A1.53,1.53,0,1,1,14.09,34a1.53,1.53,0,0,1,.56-2.08"/><path id="Fill-16" class="cls-1" d="M9.47,33.15a1.53,1.53,0,1,1-.56,2.09,1.53,1.53,0,0,1,.56-2.09"/><path id="Fill-17" class="cls-1" d="M4,34.53a1.53,1.53,0,1,1-.56,2.09A1.52,1.52,0,0,1,4,34.53"/><path id="Fill-18" class="cls-1" d="M14.2,53a1.53,1.53,0,1,1,.56,2.09A1.53,1.53,0,0,1,14.2,53"/><path id="Fill-19" class="cls-1" d="M16.9,48.32a1.53,1.53,0,1,1,.56,2.08,1.53,1.53,0,0,1-.56-2.08"/><path id="Fill-20" class="cls-1" d="M19.63,43.6a1.53,1.53,0,1,1,.56,2.08,1.53,1.53,0,0,1-.56-2.08"/><path id="Fill-21" class="cls-1" d="M22.17,39.19a1.53,1.53,0,1,1,.56,2.08,1.52,1.52,0,0,1-.56-2.08"/><path id="Fill-22" class="cls-1" d="M17.85,39a1.53,1.53,0,1,1,.56,2.09A1.53,1.53,0,0,1,17.85,39"/><path id="Fill-23" class="cls-1" d="M14,42.69a1.53,1.53,0,1,1,.56,2.09A1.53,1.53,0,0,1,14,42.69"/><path id="Fill-24" class="cls-1" d="M10,46.61a1.53,1.53,0,1,1,.56,2.08A1.52,1.52,0,0,1,10,46.61"/><path id="Fill-25" class="cls-1" d="M28,57.51A1.53,1.53,0,1,1,29.52,59,1.53,1.53,0,0,1,28,57.51"/><path id="Fill-26" class="cls-1" d="M28,52.11a1.53,1.53,0,1,1,1.53,1.53A1.52,1.52,0,0,1,28,52.11"/><path id="Fill-27" class="cls-1" d="M28,46.66a1.53,1.53,0,1,1,1.53,1.53A1.53,1.53,0,0,1,28,46.66"/><path id="Fill-28" class="cls-1" d="M28,41.57a1.53,1.53,0,1,1,1.53,1.53A1.53,1.53,0,0,1,28,41.57"/><path id="Fill-29" class="cls-1" d="M24.17,43.61a1.53,1.53,0,1,1,1.53,1.53,1.53,1.53,0,0,1-1.53-1.53"/><path id="Fill-30" class="cls-1" d="M22.64,48.7a1.53,1.53,0,1,1,1.53,1.53,1.53,1.53,0,0,1-1.53-1.53"/><path id="Fill-31" class="cls-1" d="M21.12,54.1a1.53,1.53,0,1,1,1.53,1.53,1.53,1.53,0,0,1-1.53-1.53"/><path id="Fill-32" class="cls-1" d="M42.19,54.53a1.53,1.53,0,1,1,2.09.56,1.53,1.53,0,0,1-2.09-.56"/><path id="Fill-33" class="cls-1" d="M39.49,49.85a1.53,1.53,0,1,1,2.09.56,1.53,1.53,0,0,1-2.09-.56"/><path id="Fill-34" class="cls-1" d="M36.77,45.13a1.53,1.53,0,1,1,2.09.56,1.53,1.53,0,0,1-2.09-.56"/><path id="Fill-35" class="cls-1" d="M34.22,40.72a1.53,1.53,0,1,1,2.09.56,1.53,1.53,0,0,1-2.09-.56"/><path id="Fill-36" class="cls-1" d="M31.93,44.39a1.53,1.53,0,1,1,2.09.56,1.53,1.53,0,0,1-2.09-.56"/><path id="Fill-37" class="cls-1" d="M33.16,49.57a1.53,1.53,0,1,1,2.09.56,1.53,1.53,0,0,1-2.09-.56"/><path id="Fill-38" class="cls-1" d="M34.53,55a1.53,1.53,0,1,1,2.09.56A1.52,1.52,0,0,1,34.53,55"/><path id="Fill-39" class="cls-1" d="M53,44.84a1.53,1.53,0,1,1,2.09-.56,1.53,1.53,0,0,1-2.09.56"/><path id="Fill-40" class="cls-1" d="M48.32,42.14a1.53,1.53,0,1,1,2.09-.56,1.53,1.53,0,0,1-2.09.56"/><path id="Fill-41" class="cls-1" d="M43.6,39.42a1.53,1.53,0,1,1,2.09-.56,1.53,1.53,0,0,1-2.09.56"/><path id="Fill-42" class="cls-1" d="M39.19,36.87a1.53,1.53,0,1,1,2.09-.56,1.53,1.53,0,0,1-2.09.56"/><path id="Fill-43" class="cls-1" d="M39,41.19a1.53,1.53,0,1,1,2.09-.56,1.53,1.53,0,0,1-2.09.56"/><path id="Fill-44" class="cls-1" d="M42.69,45.06a1.53,1.53,0,1,1,2.09-.56,1.53,1.53,0,0,1-2.09.56"/><path id="Fill-45" class="cls-1" d="M46.6,49.09a1.53,1.53,0,1,1,2.09-.56,1.53,1.53,0,0,1-2.09.56"/><path id="Fill-46" class="cls-1" d="M57.51,31A1.53,1.53,0,1,1,59,29.52,1.53,1.53,0,0,1,57.51,31"/><path id="Fill-47" class="cls-1" d="M52.11,31a1.53,1.53,0,1,1,1.53-1.53A1.53,1.53,0,0,1,52.11,31"/><path id="Fill-48" class="cls-1" d="M46.66,31a1.53,1.53,0,1,1,1.53-1.53A1.53,1.53,0,0,1,46.66,31"/><path id="Fill-49" class="cls-1" d="M41.57,31a1.53,1.53,0,1,1,1.53-1.53A1.53,1.53,0,0,1,41.57,31"/><path id="Fill-50" class="cls-1" d="M43.61,34.87a1.53,1.53,0,1,1,1.53-1.53,1.53,1.53,0,0,1-1.53,1.53"/><path id="Fill-51" class="cls-1" d="M48.7,36.4a1.53,1.53,0,1,1,1.53-1.53A1.53,1.53,0,0,1,48.7,36.4"/><path id="Fill-52" class="cls-1" d="M54.1,37.92a1.53,1.53,0,1,1,1.53-1.53,1.53,1.53,0,0,1-1.53,1.53"/><path id="Fill-53" class="cls-1" d="M54.53,16.85a1.53,1.53,0,1,1,.56-2.09,1.53,1.53,0,0,1-.56,2.09"/><path id="Fill-54" class="cls-1" d="M49.85,19.55a1.53,1.53,0,1,1,.56-2.09,1.53,1.53,0,0,1-.56,2.09"/><path id="Fill-55" class="cls-1" d="M45.13,22.27a1.53,1.53,0,1,1,.56-2.09,1.53,1.53,0,0,1-.56,2.09"/><path id="Fill-56" class="cls-1" d="M40.72,24.82a1.53,1.53,0,1,1,.56-2.09,1.53,1.53,0,0,1-.56,2.09"/><path id="Fill-57" class="cls-1" d="M44.39,27.11A1.53,1.53,0,1,1,45,25a1.53,1.53,0,0,1-.56,2.09"/><path id="Fill-58" class="cls-1" d="M49.57,25.89a1.53,1.53,0,1,1,.56-2.09,1.53,1.53,0,0,1-.56,2.09"/><path id="Fill-59" class="cls-1" d="M55,24.51a1.53,1.53,0,1,1,.56-2.09A1.53,1.53,0,0,1,55,24.51"/><path id="Fill-60" class="cls-1" d="M44.84,6A1.53,1.53,0,1,1,44.28,4,1.53,1.53,0,0,1,44.84,6"/><path id="Fill-61" class="cls-1" d="M42.14,10.72a1.53,1.53,0,1,1-.56-2.09,1.53,1.53,0,0,1,.56,2.09"/><path id="Fill-62" class="cls-1" d="M39.42,15.44a1.53,1.53,0,1,1-.56-2.09,1.53,1.53,0,0,1,.56,2.09"/><path id="Fill-63" class="cls-1" d="M36.87,19.85a1.53,1.53,0,1,1-.56-2.09,1.53,1.53,0,0,1,.56,2.09"/><path id="Fill-64" class="cls-1" d="M41.2,20a1.53,1.53,0,1,1-.56-2.09A1.52,1.52,0,0,1,41.2,20"/><path id="Fill-65" class="cls-1" d="M45.07,16.35a1.53,1.53,0,1,1-.56-2.09,1.53,1.53,0,0,1,.56,2.09"/><path id="Fill-66" class="cls-1" d="M49.09,12.44a1.53,1.53,0,1,1-.56-2.09,1.53,1.53,0,0,1,.56,2.09"/><path id="Fill-67" class="cls-1" d="M31,1.53A1.53,1.53,0,1,1,29.52,0,1.53,1.53,0,0,1,31,1.53"/><path id="Fill-68" class="cls-1" d="M31,6.93A1.53,1.53,0,1,1,29.52,5.4,1.53,1.53,0,0,1,31,6.93"/><path id="Fill-69" class="cls-1" d="M31,12.38a1.53,1.53,0,1,1-1.53-1.53A1.53,1.53,0,0,1,31,12.38"/><path id="Fill-70" class="cls-1" d="M31,17.47a1.53,1.53,0,1,1-1.53-1.53A1.53,1.53,0,0,1,31,17.47"/><path id="Fill-71" class="cls-1" d="M34.87,15.43a1.53,1.53,0,1,1-1.53-1.53,1.53,1.53,0,0,1,1.53,1.53"/><path id="Fill-72" class="cls-1" d="M36.4,10.34a1.53,1.53,0,1,1-1.53-1.53,1.53,1.53,0,0,1,1.53,1.53"/><path id="Fill-73" class="cls-1" d="M37.93,4.94A1.53,1.53,0,1,1,36.4,3.41a1.53,1.53,0,0,1,1.53,1.53"/><path id="Fill-74" class="cls-1" d="M16.85,4.51A1.53,1.53,0,1,1,14.76,4a1.52,1.52,0,0,1,2.09.56"/><path id="Fill-75" class="cls-1" d="M19.55,9.19a1.53,1.53,0,1,1-2.09-.56,1.53,1.53,0,0,1,2.09.56"/><path id="Fill-76" class="cls-1" d="M22.27,13.91a1.53,1.53,0,1,1-2.09-.56,1.53,1.53,0,0,1,2.09.56"/><path id="Fill-77" class="cls-1" d="M24.82,18.32a1.53,1.53,0,1,1-2.09-.56,1.53,1.53,0,0,1,2.09.56"/><path id="Fill-78" class="cls-1" d="M27.11,14.65A1.53,1.53,0,1,1,25,14.09a1.53,1.53,0,0,1,2.09.56"/><path id="Fill-79" class="cls-1" d="M25.89,9.47a1.53,1.53,0,1,1-2.09-.56,1.53,1.53,0,0,1,2.09.56"/><path id="Fill-80" class="cls-1" d="M24.51,4a1.53,1.53,0,1,1-2.09-.56A1.53,1.53,0,0,1,24.51,4"/><path id="Fill-81" class="cls-1" d="M6,14.2A1.53,1.53,0,1,1,4,14.76,1.53,1.53,0,0,1,6,14.2"/><path id="Fill-82" class="cls-1" d="M10.72,16.9a1.53,1.53,0,1,1-2.09.56,1.53,1.53,0,0,1,2.09-.56"/><path id="Fill-83" class="cls-1" d="M15.44,19.62a1.53,1.53,0,1,1-2.09.56,1.53,1.53,0,0,1,2.09-.56"/><path id="Fill-84" class="cls-1" d="M19.85,22.17a1.53,1.53,0,1,1-2.09.56,1.53,1.53,0,0,1,2.09-.56"/><path id="Fill-85" class="cls-1" d="M20,17.85a1.53,1.53,0,1,1-2.09.56A1.52,1.52,0,0,1,20,17.85"/><path id="Fill-86" class="cls-1" d="M16.35,14a1.53,1.53,0,1,1-2.09.56A1.53,1.53,0,0,1,16.35,14"/><path id="Fill-87" class="cls-1" d="M12.44,9.95a1.53,1.53,0,1,1-2.09.56,1.53,1.53,0,0,1,2.09-.56"/></g></g></svg>