<?xml version="1.0" encoding="UTF-8"?>
<svg width="230px" height="60px" viewBox="0 0 230 60" version="1.1" xmlns="http://www.w3.org/2000/svg" xmlns:xlink="http://www.w3.org/1999/xlink">
    <!-- Generator: Sketch 49.3 (51167) - http://www.bohemiancoding.com/sketch -->
    <title>London Metropolitan University logo - black-4</title>
    <desc>Created with Sketch.</desc>
    <defs></defs>
    <g id="Page-1" stroke="none" stroke-width="1" fill="none" fill-rule="evenodd">
        <g id="London-Metropolitan-University-logo---black-4" fill="#1A1919">
            <path d="M72.5007003,55.8443169 C76.0539495,55.8443169 78.3415385,53.8067968 78.3415385,49.7512974 L78.3415385,42.0419403 L75.9562457,42.0419403 L75.9562457,49.8666935 C75.9562457,52.370023 74.655729,53.6314581 72.5392537,53.6314581 C70.4042939,53.6314581 69.1035132,52.2897474 69.1035132,49.7718944 L69.1035132,42.0419403 L66.7155798,42.0419403 L66.7155798,49.8666935 C66.7155798,53.8067968 68.9685763,55.8443169 72.5007003,55.8443169 Z M82.0101837,55.6343858 L84.360884,55.6343858 L84.360884,45.9667279 L91.8502755,55.6343858 L93.8502985,55.6343858 L93.8502985,42.0419403 L91.5022388,42.0419403 L91.5022388,51.4391963 L84.2254191,42.0419403 L82.0101837,42.0419403 L82.0101837,55.6343858 Z M97.8693571,55.6343858 L100.25597,55.6343858 L100.25597,42.0419403 L97.8693571,42.0419403 L97.8693571,55.6343858 Z M108.758312,55.7291848 L110.873467,55.7291848 L116.502262,42.0419403 L113.921033,42.0419403 L109.844937,52.4854191 L105.7493,42.0419403 L103.108657,42.0419403 L108.758312,55.7291848 Z M119.217635,55.6343858 L129.390976,55.6343858 L129.390976,53.4965212 L121.608473,53.4965212 L121.608473,49.8466246 L128.419483,49.8466246 L128.419483,47.7092882 L121.608473,47.7092882 L121.608473,44.1795408 L129.293008,44.1795408 L129.293008,42.0419403 L119.217635,42.0419403 L119.217635,55.6343858 Z M132.61256,55.6343858 L135.001022,55.6343858 L135.001022,50.8933754 L137.989701,50.8933754 L141.326418,55.6343858 L144.162732,55.6343858 L140.490126,50.4875086 C142.377658,49.9419518 143.716728,48.6052583 143.716728,46.3723307 L143.716728,46.3374742 C143.716728,45.1507692 143.306636,44.139667 142.587589,43.4034558 C141.716969,42.5473594 140.374994,42.0419403 138.667819,42.0419403 L132.61256,42.0419403 L132.61256,55.6343858 Z M135.001022,48.780597 L135.001022,44.2199426 L138.472411,44.2199426 C140.240057,44.2199426 141.288921,45.0158324 141.288921,46.4726751 L141.288921,46.5075316 C141.288921,47.8840987 140.202296,48.780597 138.494856,48.780597 L135.001022,48.780597 Z M151.789701,55.824248 C154.64318,55.824248 156.643467,54.313008 156.643467,51.7695408 L156.643467,51.7291389 C156.643467,49.4764064 155.16682,48.4502526 152.293008,47.7488978 C149.671906,47.1283467 149.053467,46.6630654 149.053467,45.6163146 L149.053467,45.5767049 C149.053467,44.6854879 149.867577,43.9640643 151.264214,43.9640643 C152.50822,43.9640643 153.731894,44.4502067 154.95372,45.3612285 L156.23496,43.5592537 C154.85628,42.4520321 153.286418,41.8515499 151.303823,41.8515499 C148.60535,41.8515499 146.663157,43.4639265 146.663157,45.7919173 L146.663157,45.831527 C146.663157,48.3351206 148.295339,49.1856716 151.188691,49.8872905 C153.712354,50.4677038 154.252365,50.9934558 154.252365,51.9644202 L154.252365,52.004558 C154.252365,53.0111711 153.323915,53.7117336 151.847532,53.7117336 C150.177853,53.7117336 148.858588,53.0705855 147.558863,51.9443513 L146.12209,53.6520551 C147.749782,55.1086338 149.712308,55.824248 151.789701,55.824248 Z M159.979656,55.6343858 L162.368117,55.6343858 L162.368117,42.0419403 L159.979656,42.0419403 L159.979656,55.6343858 Z M169.722836,55.6343858 L172.130838,55.6343858 L172.130838,44.2550631 L176.439047,44.2550631 L176.439047,42.0419403 L165.414363,42.0419403 L165.414363,44.2550631 L169.722836,44.2550631 L169.722836,55.6343858 Z M183.349346,55.6343858 L185.75814,55.6343858 L185.75814,50.2176349 L191.151653,42.0419403 L188.416739,42.0419403 L184.571171,48.0443858 L180.78713,42.0419403 L177.953192,42.0419403 L183.349346,50.2725603 L183.349346,55.6343858 Z" id="Fill-1"></path>
            <path d="M66.9292078,35.9494489 L69.2775316,35.9494489 L69.2775316,26.2453502 L73.5305511,32.6151091 L73.6071297,32.6151091 L77.896062,26.207853 L77.896062,35.9494489 L80.2842595,35.9494489 L80.2842595,22.3628129 L77.7421125,22.3628129 L73.6071297,28.7885534 L69.4726751,22.3628129 L66.9292078,22.3628129 L66.9292078,35.9494489 Z M84.1654765,35.9494489 L94.3372331,35.9494489 L94.3372331,33.8166016 L86.5547302,33.8166016 L86.5547302,30.1653846 L93.3646843,30.1653846 L93.3646843,28.0328014 L86.5547302,28.0328014 L86.5547302,24.4980367 L94.2397933,24.4980367 L94.2397933,22.3628129 L84.1654765,22.3628129 L84.1654765,35.9494489 Z M100.895798,35.9494489 L103.30248,35.9494489 L103.30248,24.5780482 L107.611745,24.5780482 L107.611745,22.3628129 L96.587589,22.3628129 L96.587589,24.5780482 L100.895798,24.5780482 L100.895798,35.9494489 Z M110.52411,35.9494489 L112.912308,35.9494489 L112.912308,31.214248 L115.900987,31.214248 L119.237704,35.9494489 L122.074018,35.9494489 L118.406958,30.8060046 C120.286831,30.2630884 121.628278,28.9237543 121.628278,26.6908266 L121.628278,26.6533295 C121.628278,25.4692652 121.220299,24.457899 120.499931,23.7222158 C119.628255,22.868496 118.286808,22.3628129 116.579897,22.3628129 L110.52411,22.3628129 L110.52411,35.9494489 Z M112.912308,29.099093 L112.912308,24.5381745 L116.384753,24.5381745 C118.151607,24.5381745 119.200207,25.3340643 119.200207,26.7885304 L119.200207,26.8284041 C119.200207,28.207876 118.113846,29.099093 116.406935,29.099093 L112.912308,29.099093 Z M131.428232,36.1844661 C135.603881,36.1844661 138.552951,32.9800459 138.552951,29.156659 L138.552951,29.1188978 C138.552951,25.2939265 135.641378,22.1322847 131.468634,22.1322847 C127.295626,22.1322847 124.344707,25.3340643 124.344707,29.156659 L124.344707,29.1965327 C124.344707,33.0199196 127.258129,36.1844661 131.428232,36.1844661 Z M131.468634,33.9713433 C128.770425,33.9713433 126.847509,31.7991504 126.847509,29.156659 L126.847509,29.1188978 C126.847509,26.4782549 128.730023,24.3229621 131.428232,24.3229621 C134.127233,24.3229621 136.049357,26.5183927 136.049357,29.156659 L136.049357,29.1965327 C136.049357,31.83876 134.164466,33.9713433 131.468634,33.9713433 Z M141.831573,35.9494489 L144.220034,35.9494489 L144.220034,31.5831458 L146.918507,31.5831458 C149.907187,31.5831458 152.35031,29.9900459 152.35031,26.9438002 L152.35031,26.9036625 C152.35031,24.1700689 150.372997,22.3628129 147.188645,22.3628129 L141.831573,22.3628129 L141.831573,35.9494489 Z M144.220034,29.4294374 L144.220034,24.5381745 L146.998255,24.5381745 C148.780689,24.5381745 149.926728,25.3718255 149.926728,26.9638691 L149.926728,27.0013662 C149.926728,28.4207118 148.80023,29.4294374 146.998255,29.4294374 L144.220034,29.4294374 Z M161.667819,36.1844661 C165.842411,36.1844661 168.791481,32.9800459 168.791481,29.156659 L168.791481,29.1188978 C168.791481,25.2939265 165.879908,22.1322847 161.707428,22.1322847 C157.534684,22.1322847 154.582974,25.3340643 154.582974,29.156659 L154.582974,29.1965327 C154.582974,33.0199196 157.496923,36.1844661 161.667819,36.1844661 Z M161.707428,33.9713433 C159.011068,33.9713433 157.088944,31.7991504 157.088944,29.156659 L157.088944,29.1188978 C157.088944,26.4782549 158.973571,24.3229621 161.667819,24.3229621 C164.368404,24.3229621 166.287887,26.5183927 166.287887,29.156659 L166.287887,29.1965327 C166.287887,31.83876 164.405901,33.9713433 161.707428,33.9713433 Z M172.073536,35.9494489 L181.602032,35.9494489 L181.602032,33.7759357 L174.458829,33.7759357 L174.458829,22.3628129 L172.073536,22.3628129 L172.073536,35.9494489 Z M184.611045,35.9494489 L186.997394,35.9494489 L186.997394,22.3628129 L184.611045,22.3628129 L184.611045,35.9494489 Z M194.356073,35.9494489 L196.761963,35.9494489 L196.761963,24.5780482 L201.073341,24.5780482 L201.073341,22.3628129 L190.048657,22.3628129 L190.048657,24.5780482 L194.356073,24.5780482 L194.356073,35.9494489 Z M201.073341,35.9494489 L203.515936,35.9494489 L204.9131,32.6697704 L211.338312,32.6697704 L212.717784,35.9494489 L215.240918,35.9494489 L209.262767,22.2677497 L207.050172,22.2677497 L201.073341,35.9494489 Z M205.788737,30.5556716 L208.117256,25.1212285 L210.465052,30.5556716 L205.788737,30.5556716 Z M217.955235,35.9494489 L220.308048,35.9494489 L220.308048,26.2852239 L227.800344,35.9494489 L229.799575,35.9494489 L229.799575,22.3628129 L227.446762,22.3628129 L227.446762,31.7584845 L220.173111,22.3628129 L217.955235,22.3628129 L217.955235,35.9494489 Z" id="Fill-2"></path>
            <path d="M66.9292078,16.2697933 L76.4606085,16.2697933 L76.4606085,14.0946958 L69.3166131,14.0946958 L69.3166131,2.68262916 L66.9292078,2.68262916 L66.9292078,16.2697933 Z M85.0392652,16.5029621 C89.2130654,16.5029621 92.1631917,13.298806 92.1631917,9.47647532 L92.1631917,9.43871412 C92.1631917,5.61400689 89.2508266,2.44972445 85.0778186,2.44972445 C80.9050746,2.44972445 77.9549483,5.65150402 77.9549483,9.47647532 L77.9549483,9.51634902 C77.9549483,13.3389437 80.8659931,16.5029621 85.0392652,16.5029621 Z M85.0778186,14.2901033 C82.3796096,14.2901033 80.4593341,12.1173823 80.4593341,9.47647532 L80.4593341,9.43871412 C80.4593341,6.79807118 82.3405281,4.64251435 85.0392652,4.64251435 C87.7361538,4.64251435 89.658806,6.83768083 89.658806,9.47647532 L89.658806,9.51634902 C89.658806,12.1546154 87.7776119,14.2901033 85.0778186,14.2901033 Z M95.4436625,16.2697933 L97.7917222,16.2697933 L97.7917222,6.60266361 L105.285075,16.2697933 L107.284305,16.2697933 L107.284305,2.68262916 L104.932813,2.68262916 L104.932813,12.0772445 L97.6565212,2.68262916 L95.4436625,2.68262916 L95.4436625,16.2697933 Z M111.165258,16.2697933 L116.228955,16.2697933 C120.499931,16.2697933 123.45085,13.298806 123.45085,9.47647532 L123.45085,9.43871412 C123.45085,5.61400689 120.499931,2.68262916 116.228955,2.68262916 L111.165258,2.68262916 L111.165258,16.2697933 Z M116.228955,4.85535017 C119.085075,4.85535017 120.950161,6.81549943 120.950161,9.47647532 L120.950161,9.51634902 C120.950161,12.1723077 119.085075,14.0946958 116.228955,14.0946958 L113.550551,14.0946958 L113.550551,4.85535017 L116.228955,4.85535017 Z M133.215947,16.5029621 C137.386051,16.5029621 140.337497,13.298806 140.337497,9.47647532 L140.337497,9.43871412 C140.337497,5.61400689 137.426452,2.44972445 133.251068,2.44972445 C129.080172,2.44972445 126.129518,5.65150402 126.129518,9.47647532 L126.129518,9.51634902 C126.129518,13.3389437 129.040299,16.5029621 133.215947,16.5029621 Z M133.251068,14.2901033 C130.557876,14.2901033 128.635488,12.1173823 128.635488,9.47647532 L128.635488,9.43871412 C128.635488,6.79807118 130.516946,4.64251435 133.215947,4.64251435 C135.91442,4.64251435 137.831527,6.83768083 137.831527,9.47647532 L137.831527,9.51634902 C137.831527,12.1546154 135.951389,14.2901033 133.251068,14.2901033 Z M143.619552,16.2697933 L145.967348,16.2697933 L145.967348,6.60266361 L153.459116,16.2697933 L155.459667,16.2697933 L155.459667,2.68262916 L153.111079,2.68262916 L153.111079,12.0772445 L145.831619,2.68262916 L143.619552,2.68262916 L143.619552,16.2697933 Z" id="Fill-3"></path>
            <path d="M1.52814007,28.0990815 C2.37182549,28.0990815 3.0565442,28.7848565 3.0565442,29.6285419 C3.0565442,30.4743398 2.37182549,31.1550976 1.52814007,31.1550976 C0.684718714,31.1550976 0,30.4743398 0,29.6285419 C0,28.7848565 0.684718714,28.0990815 1.52814007,28.0990815" id="Fill-4"></path>
            <path d="M6.92878301,28.0990815 C7.77114811,28.0990815 8.45586682,28.7848565 8.45586682,29.6285419 C8.45586682,30.4743398 7.77114811,31.1550976 6.92878301,31.1550976 C6.08536165,31.1550976 5.40064294,30.4743398 5.40064294,29.6285419 C5.40064294,28.7848565 6.08536165,28.0990815 6.92878301,28.0990815" id="Fill-5"></path>
            <path d="M12.3795982,28.0990815 C13.2219633,28.0990815 13.906682,28.7848565 13.906682,29.6285419 C13.906682,30.4743398 13.2219633,31.1550976 12.3795982,31.1550976 C11.5359127,31.1550976 10.8514581,30.4743398 10.8514581,29.6285419 C10.8514581,28.7848565 11.5359127,28.0990815 12.3795982,28.0990815" id="Fill-6"></path>
            <path d="M17.4736625,28.0990815 C18.3173479,28.0990815 19.0007463,28.7848565 19.0007463,29.6285419 C19.0007463,30.4743398 18.3173479,31.1550976 17.4736625,31.1550976 C16.6302411,31.1550976 15.9455224,30.4743398 15.9455224,29.6285419 C15.9455224,28.7848565 16.6302411,28.0990815 17.4736625,28.0990815" id="Fill-7"></path>
            <path d="M15.4361424,24.2788634 C16.2782434,24.2788634 16.9629621,24.9625258 16.9629621,25.8059472 C16.9629621,26.6522732 16.2782434,27.3354076 15.4361424,27.3354076 C14.5924569,27.3354076 13.9077382,26.6522732 13.9077382,25.8059472 C13.9077382,24.9625258 14.5924569,24.2788634 15.4361424,24.2788634" id="Fill-8"></path>
            <path d="M10.3407577,22.749667 C11.1841791,22.749667 11.8688978,23.435442 11.8688978,24.2788634 C11.8688978,25.1225488 11.1841791,25.8059472 10.3407577,25.8059472 C9.49839265,25.8059472 8.813938,25.1225488 8.813938,24.2788634 C8.813938,23.435442 9.49839265,22.749667 10.3407577,22.749667" id="Fill-9"></path>
            <path d="M4.94117107,21.2225832 C5.78485649,21.2225832 6.4695752,21.9059816 6.4695752,22.749667 C6.4695752,23.595729 5.78485649,24.2788634 4.94117107,24.2788634 C4.09774971,24.2788634 3.41461538,23.595729 3.41461538,22.749667 C3.41461538,21.9059816 4.09774971,21.2225832 4.94117107,21.2225832" id="Fill-10"></path>
            <path d="M4.51444317,42.2980827 C5.24537313,41.8782204 6.1804248,42.1282893 6.60134328,42.8592193 C7.02384615,43.5898852 6.77245695,44.5262572 6.0428473,44.9471757 C5.31165327,45.367566 4.37554535,45.1219862 3.95515499,44.3865672 C3.53344432,43.6551091 3.7835132,42.7240184 4.51444317,42.2980827" id="Fill-11"></path>
            <path d="M9.19049369,39.6001378 C9.92168772,39.1792193 10.8577956,39.4300804 11.2771297,40.1610103 C11.7001607,40.8916762 11.4495637,41.8277842 10.7188978,42.2481745 C9.98796785,42.669093 9.05291619,42.418496 8.63252583,41.687566 C8.20923077,40.9566361 8.46061998,40.0258094 9.19049369,39.6001378" id="Fill-12"></path>
            <path d="M13.9114351,36.8765786 C14.6426292,36.450907 15.5774168,36.7009759 15.9978071,37.4319059 C16.4208381,38.1633639 16.1694489,39.0994719 15.4398393,39.5248794 C14.7089093,39.9455339 13.7728014,39.6952009 13.352147,38.9592537 C12.9304363,38.2330769 13.1807692,37.296969 13.9114351,36.8765786" id="Fill-13"></path>
            <path d="M18.3236854,34.3283582 C19.053031,33.9074397 19.9891389,34.1577727 20.4100574,34.8884386 C20.8328243,35.6198967 20.5811711,36.5509874 19.8505052,36.976659 C19.1208955,37.3970494 18.1845235,37.1467164 17.7638691,36.4157865 C17.3411022,35.6853846 17.5924914,34.7487486 18.3236854,34.3283582" id="Fill-14"></path>
            <path d="M14.6489667,32.0402411 C15.3783123,31.6145695 16.3149483,31.8654305 16.7377153,32.5960964 C17.1573134,33.3270264 16.9064524,34.2633984 16.1755224,34.6837887 C15.4448565,35.1044432 14.5098048,34.8591274 14.0891504,34.1229162 C13.6663835,33.3922503 13.9180367,32.4611596 14.6489667,32.0402411" id="Fill-15"></path>
            <path d="M9.47225029,33.2618025 C10.2031803,32.8414122 11.1379679,33.0917451 11.5586223,33.8226751 C11.9816533,34.5530769 11.73,35.4849598 11.0003904,35.9101033 C10.2697245,36.3310218 9.3330884,36.0806889 8.91401837,35.3492308 C8.49072331,34.6183008 8.74105626,33.682721 9.47225029,33.2618025" id="Fill-16"></path>
            <path d="M4.03146958,34.6383697 C4.76213548,34.2132262 5.69745121,34.4683123 6.11784156,35.1992423 C6.54087256,35.925155 6.28948335,36.861527 5.55960964,37.2871986 C4.82841561,37.707589 3.89389208,37.457256 3.47297359,36.7265901 C3.05047072,35.9956602 3.30053961,35.0590241 4.03146958,34.6383697" id="Fill-17"></path>
            <path d="M14.2008496,53.1075545 C14.6238806,52.3763605 15.5573479,52.1257635 16.2872216,52.546682 C17.0205281,52.9670723 17.2695408,53.9034443 16.8491504,54.6341102 C16.4261194,55.3650402 15.4900115,55.6159013 14.7604018,55.1949828 C14.0292078,54.7743284 13.7775545,53.8384845 14.2008496,53.1075545" id="Fill-18"></path>
            <path d="M16.9001148,48.4309759 C17.3234099,47.70031 18.2574053,47.449977 18.9883352,47.8703674 C19.7203215,48.2912859 19.9693341,49.2276579 19.5486797,49.9583238 C19.1259127,50.6889897 18.190597,50.9393226 17.4599311,50.5141791 C16.7290011,50.0932606 16.4789323,49.162434 16.9001148,48.4309759" id="Fill-19"></path>
            <path d="M19.6263146,43.7102985 C20.0496096,42.9791045 20.9830769,42.7287715 21.7129506,43.14969 C22.4462572,43.5700804 22.6952698,44.5064524 22.2748794,45.2371183 C21.8518485,45.9680482 20.9154765,46.2181171 20.1858668,45.7929736 C19.4549369,45.3778645 19.2035476,44.4412285 19.6263146,43.7102985" id="Fill-20"></path>
            <path d="M22.1734788,39.2998967 C22.5965098,38.5681745 23.5302411,38.3136165 24.2601148,38.7390241 C24.9931573,39.1594145 25.2421699,40.0957865 24.8217796,40.8264524 C24.3984845,41.5573823 23.4626406,41.8082434 22.733031,41.3825718 C22.001837,40.9616533 21.7504478,40.0258094 22.1734788,39.2998967" id="Fill-21"></path>
            <path d="M17.845465,39.149116 C18.268496,38.4239954 19.2019633,38.1681171 19.931837,38.5937887 C20.6651435,39.013915 20.9141561,39.9505511 20.4937658,40.681217 C20.0707348,41.4126751 19.1356831,41.662744 18.4047532,41.2373364 C17.6738232,40.816946 17.422434,39.88031 17.845465,39.149116" id="Fill-22"></path>
            <path d="M13.9753387,42.7995408 C14.3986338,42.0680827 15.3307807,41.8177497 16.0619747,42.2386682 C16.7955454,42.6587945 17.0432377,43.5954305 16.6225832,44.3260964 C16.2008726,45.0570264 15.2645006,45.3070953 14.5338347,44.8867049 C13.803961,44.4657865 13.5523077,43.5304707 13.9753387,42.7995408" id="Fill-23"></path>
            <path d="M9.95152698,46.7137658 C10.374558,45.9830999 11.3085534,45.7280138 12.037899,46.1536854 C12.7712055,46.5738117 13.0202181,47.5104478 12.6000918,48.2411137 C12.1767968,48.9717796 11.2422732,49.2221125 10.5110792,48.796969 C9.77988519,48.3760505 9.52849598,47.4396785 9.95152698,46.7137658" id="Fill-24"></path>
            <path d="M27.9934558,57.6183008 C27.9934558,56.777256 28.6765901,56.0909529 29.5202755,56.0909529 C30.363961,56.0909529 31.0486797,56.777256 31.0486797,57.6183008 C31.0486797,58.4640987 30.363961,59.1504018 29.5202755,59.1504018 C28.6765901,59.1504018 27.9934558,58.4640987 27.9934558,57.6183008" id="Fill-25"></path>
            <path d="M27.9934558,52.2213548 C27.9934558,51.3752928 28.6765901,50.694535 29.5202755,50.694535 C30.363961,50.694535 31.0486797,51.3752928 31.0486797,52.2213548 C31.0486797,53.0623995 30.363961,53.7479104 29.5202755,53.7479104 C28.6765901,53.7479104 27.9934558,53.0623995 27.9934558,52.2213548" id="Fill-26"></path>
            <path d="M27.9921355,46.7692193 C27.9921355,45.9281745 28.6765901,45.2418714 29.5202755,45.2418714 C30.3663375,45.2418714 31.0486797,45.9281745 31.0486797,46.7692193 C31.0486797,47.6150172 30.3663375,48.295775 29.5202755,48.295775 C28.6765901,48.295775 27.9921355,47.6150172 27.9921355,46.7692193" id="Fill-27"></path>
            <path d="M27.9934558,41.6777956 C27.9934558,40.8314696 28.6765901,40.1456946 29.5202755,40.1456946 C30.363961,40.1456946 31.0486797,40.8314696 31.0486797,41.6777956 C31.0486797,42.5183123 30.363961,43.2046154 29.5202755,43.2046154 C28.6765901,43.2046154 27.9934558,42.5183123 27.9934558,41.6777956" id="Fill-28"></path>
            <path d="M24.1721814,43.7153157 C24.1721814,42.8692537 24.8569001,42.1832147 25.6992652,42.1832147 C26.5450631,42.1832147 27.2274053,42.8692537 27.2274053,43.7153157 C27.2274053,44.5563605 26.5450631,45.2418714 25.6992652,45.2418714 C24.8569001,45.2418714 24.1721814,44.5563605 24.1721814,43.7153157" id="Fill-29"></path>
            <path d="M22.6440413,48.8067394 C22.6440413,47.9654305 23.32876,47.2799196 24.1711251,47.2799196 C25.0171871,47.2799196 25.6992652,47.9654305 25.6992652,48.8067394 C25.6992652,49.6525373 25.0145465,50.3338232 24.1711251,50.3338232 C23.32876,50.3338232 22.6440413,49.6525373 22.6440413,48.8067394" id="Fill-30"></path>
            <path d="M21.1159013,54.2084386 C21.1159013,53.3626406 21.80062,52.6818829 22.6429851,52.6818829 C23.4864064,52.6818829 24.1711251,53.3626406 24.1711251,54.2084386 C24.1711251,55.0497474 23.4864064,55.7357865 22.6429851,55.7357865 C21.80062,55.7357865 21.1159013,55.0497474 21.1159013,54.2084386" id="Fill-31"></path>
            <path d="M42.1943054,54.6341102 C41.7710103,53.9034443 42.0213433,52.9670723 42.7522732,52.546682 C43.4834673,52.1257635 44.4179908,52.3763605 44.8412859,53.1075545 C45.2619403,53.8384845 45.0139839,54.7743284 44.2804133,55.1949828 C43.5497474,55.6159013 42.6170723,55.3650402 42.1943054,54.6341102" id="Fill-32"></path>
            <path d="M39.494248,49.9583238 C39.071217,49.2276579 39.321814,48.2912859 40.052744,47.8703674 C40.7834099,47.449977 41.7184615,47.70031 42.1414925,48.4309759 C42.562147,49.162434 42.3131343,50.098806 41.580884,50.5189323 C40.84969,50.9393226 39.9164868,50.6889897 39.494248,49.9583238" id="Fill-33"></path>
            <path d="M36.7683123,45.2371183 C36.3452813,44.5064524 36.5969346,43.5700804 37.3265442,43.14969 C38.0574742,42.7287715 38.9938462,42.9791045 39.4168772,43.7102985 C39.8362113,44.4412285 39.5882549,45.3778645 38.8549483,45.7977268 C38.1237543,46.2181171 37.1916073,45.9680482 36.7683123,45.2371183" id="Fill-34"></path>
            <path d="M34.2214122,40.8264524 C33.7981171,40.0957865 34.0497704,39.1594145 34.7796441,38.7390241 C35.5105741,38.3181056 36.446946,38.5636854 36.869713,39.2998967 C37.2893111,40.0305626 37.0413548,40.9616533 36.3077842,41.3825718 C35.5768542,41.8082434 34.6444432,41.5573823 34.2214122,40.8264524" id="Fill-35"></path>
            <path d="M31.9306544,44.500907 C31.5081515,43.7702411 31.7595408,42.8343972 32.4904707,42.4134788 C33.2198163,41.9933525 34.1564524,42.2434214 34.5794834,42.9743513 C34.9998737,43.7052813 34.7508611,44.6416533 34.0172905,45.0570264 C33.2876808,45.482434 32.3539495,45.2323651 31.9306544,44.500907" id="Fill-36"></path>
            <path d="M33.1551206,49.6778875 C32.7320896,48.9472216 32.9834788,48.0105855 33.7144087,47.585178 C34.4440184,47.1698048 35.3801263,47.4198737 35.8034214,48.1513318 C36.2238117,48.8819977 35.9747991,49.8128243 35.2414925,50.2337428 C34.5105626,50.6591504 33.5781515,50.4085534 33.1551206,49.6778875" id="Fill-37"></path>
            <path d="M34.5319518,55.1149713 C34.1086567,54.3887945 34.36031,53.4524225 35.0899196,53.0322962 C35.8211137,52.6066246 36.7559013,52.8566935 37.1789323,53.5878875 C37.5995867,54.3188175 37.3516303,55.2551894 36.6180597,55.6755798 C35.8873938,56.1012514 34.9549828,55.8453731 34.5319518,55.1149713" id="Fill-38"></path>
            <path d="M52.9992882,44.9471757 C52.2683582,44.5262572 52.0180253,43.5898852 52.4410563,42.8592193 C52.8603904,42.1282893 53.7964983,41.8782204 54.5274282,42.2980827 C55.2570379,42.7240184 55.5086912,43.6603904 55.0853961,44.3910563 C54.6652698,45.116969 53.7302181,45.3720551 52.9992882,44.9471757" id="Fill-39"></path>
            <path d="M48.3235017,42.2481745 C47.5923077,41.8227669 47.3403904,40.8916762 47.7636854,40.1610103 C48.1840758,39.4300804 49.1204478,39.1792193 49.8500574,39.6001378 C50.5809874,40.0205281 50.8329047,40.9566361 50.4096096,41.687566 C49.9894834,42.418496 49.0528473,42.669093 48.3235017,42.2481745" id="Fill-40"></path>
            <path d="M43.6022962,39.5248794 C42.8713662,39.0994719 42.6207692,38.1681171 43.042744,37.4371871 C43.4631343,36.7009759 44.3992423,36.4561883 45.129116,36.8765786 C45.86031,37.296969 46.1116992,38.2330769 45.6884041,38.9640069 C45.2682778,39.6952009 44.3329621,39.9455339 43.6022962,39.5248794" id="Fill-41"></path>
            <path d="M39.19031,36.976659 C38.4607003,36.5509874 38.2090471,35.6198967 38.6320781,34.8836854 C39.0527325,34.1577727 39.9875201,33.9074397 40.718186,34.3283582 C41.44938,34.7487486 41.699977,35.6853846 41.276682,36.4157865 C40.8562916,37.1467164 39.92124,37.3970494 39.19031,36.976659" id="Fill-42"></path>
            <path d="M39.0450746,41.3022962 C38.3144087,40.8813777 38.0624914,39.9455339 38.4855224,39.2143398 C38.9061768,38.4834099 39.8409644,38.2330769 40.5721584,38.6534673 C41.305465,39.0791389 41.5544776,40.0155109 41.1338232,40.7464409 C40.7110563,41.4723536 39.7746843,41.7277038 39.0450746,41.3022962" id="Fill-43"></path>
            <path d="M42.6923307,45.1718944 C41.962721,44.7517681 41.7110677,43.8156602 42.1340987,43.0847302 C42.5544891,42.353008 43.4895408,42.1029392 44.2204707,42.5238576 C44.9516648,42.9495293 45.2019977,43.8851091 44.7787026,44.6168312 C44.3583123,45.3474971 43.4229966,45.5978301 42.6923307,45.1718944" id="Fill-44"></path>
            <path d="M46.6049713,49.1972905 C45.8737773,48.7716188 45.6231803,47.8407922 46.0464753,47.1093341 C46.4671297,46.3786682 47.4019173,46.1280712 48.1328473,46.5484615 C48.862721,46.9741332 49.1143743,47.905752 48.6934558,48.6364179 C48.2706889,49.3673479 47.3356372,49.6176808 46.6049713,49.1972905" id="Fill-45"></path>
            <path d="M57.5137313,31.1550976 C56.6700459,31.1550976 55.9858553,30.4719633 55.9858553,29.6285419 C55.9858553,28.7824799 56.6700459,28.0990815 57.5137313,28.1014581 C58.3571527,28.1014581 59.0421355,28.7824799 59.0421355,29.6285419 C59.0421355,30.4719633 58.3571527,31.1550976 57.5137313,31.1550976" id="Fill-46"></path>
            <path d="M52.1141447,31.1550976 C51.2707233,31.1550976 50.5862687,30.4719633 50.5862687,29.6285419 C50.5862687,28.7848565 51.2707233,28.1014581 52.1141447,28.1014581 C52.9565098,28.0990815 53.6414925,28.7848565 53.6414925,29.6285419 C53.6414925,30.4719633 52.9565098,31.1550976 52.1141447,31.1550976" id="Fill-47"></path>
            <path d="M46.6622732,31.1550976 C45.8199082,31.1550976 45.1354535,30.4719633 45.1354535,29.6285419 C45.1354535,28.7824799 45.8199082,28.1014581 46.6622732,28.1014581 C47.5056946,28.1014581 48.1906774,28.7824799 48.1906774,29.6285419 C48.1906774,30.4719633 47.5056946,31.1550976 46.6622732,31.1550976" id="Fill-48"></path>
            <path d="M41.568473,31.1550976 C40.7261079,31.1550976 40.0411251,30.4719633 40.0411251,29.6285419 C40.0411251,28.7824799 40.7261079,28.1014581 41.568473,28.1014581 C42.4118944,28.1014581 43.096349,28.7824799 43.096349,29.6285419 C43.096349,30.4719633 42.4118944,31.1550976 41.568473,31.1550976" id="Fill-49"></path>
            <path d="M43.605729,34.9792767 C42.7623077,34.9792767 42.0791734,34.2927095 42.0791734,33.4469116 C42.0791734,32.6011137 42.7623077,31.9203559 43.605729,31.9203559 C44.4494145,31.9203559 45.1343972,32.6011137 45.1343972,33.4469116 C45.1343972,34.2927095 44.4494145,34.9792767 43.605729,34.9792767" id="Fill-50"></path>
            <path d="M48.7013777,36.5058324 C47.8574282,36.5058324 47.1729736,35.8200574 47.1729736,34.9792767 C47.1729736,34.1332147 47.8574282,33.4521929 48.7013777,33.4521929 C49.5450631,33.4521929 50.2279334,34.1332147 50.2279334,34.9792767 C50.2279334,35.8200574 49.5450631,36.5058324 48.7013777,36.5058324" id="Fill-51"></path>
            <path d="M54.1004363,38.0329162 C53.2570149,38.0329162 52.5722962,37.3468772 52.5722962,36.5058324 C52.5722962,35.6597704 53.2570149,34.9792767 54.1004363,34.9792767 C54.9443858,34.9792767 55.6275201,35.6597704 55.6275201,36.5058324 C55.6275201,37.3468772 54.9443858,38.0329162 54.1004363,38.0329162" id="Fill-52"></path>
            <path d="M54.5274282,16.9547761 C53.7964983,17.3778071 52.8614466,17.1272101 52.4410563,16.3965442 C52.0180253,15.6656142 52.2696785,14.7295063 52.9992882,14.3064753 C53.7302181,13.8858209 54.6665901,14.1361538 55.0867164,14.8694604 C55.5086912,15.5980138 55.2586223,16.5314811 54.5274282,16.9547761" id="Fill-53"></path>
            <path d="M49.8513777,19.6553617 C49.1204478,20.0786567 48.1856602,19.8256831 47.7650057,19.0947532 C47.3417107,18.3664638 47.5923077,17.4303559 48.3235017,17.0073249 C49.0541676,16.5866705 49.9894834,16.8346269 50.4096096,17.5681975 C50.8329047,18.2988634 50.5809874,19.2325947 49.8513777,19.6553617" id="Fill-54"></path>
            <path d="M45.1304363,22.3815614 C44.3992423,22.8022158 43.4644546,22.5518829 43.0414237,21.8209529 C42.6207692,21.090023 42.8726866,20.1562916 43.6033525,19.7332606 C44.3329621,19.3128703 45.2693341,19.5605626 45.6897245,20.2938691 C46.1116992,21.0247991 45.8613662,21.9585304 45.1304363,22.3815614" id="Fill-55"></path>
            <path d="M40.718186,24.9274053 C39.9888404,25.3504363 39.0527325,25.1003674 38.6297015,24.3691734 C38.2090471,23.6382434 38.4607003,22.7023995 39.1916303,22.2791045 C39.92124,21.8584501 40.8576119,22.108783 41.2777382,22.8420896 C41.7010333,23.5706429 41.44938,24.5046383 40.718186,24.9274053" id="Fill-56"></path>
            <path d="M44.3931688,27.217899 C43.6638232,27.641194 42.7274512,27.390597 42.3067968,26.659403 C41.8837658,25.9287371 42.135155,24.9926292 42.866349,24.5695982 C43.5959587,24.1486797 44.5320666,24.3992767 44.952721,25.1304707 C45.3754879,25.8611366 45.1240987,26.794868 44.3931688,27.217899" id="Fill-57"></path>
            <path d="M49.5696211,25.9936969 C48.8389552,26.4167279 47.9039036,26.166659 47.4811366,25.435465 C47.0602181,24.7047991 47.3118714,23.7684271 48.0417451,23.3453961 C48.7726751,22.9247417 49.7090471,23.1753387 50.1291734,23.9060046 C50.5514122,24.6371986 50.3008152,25.57093 49.5696211,25.9936969" id="Fill-58"></path>
            <path d="M55.0106659,24.6171297 C54.2797359,25.0398967 53.3449483,24.7895637 52.9237658,24.0588978 C52.5012629,23.3279679 52.7526521,22.3918599 53.4822618,21.9685649 C54.2134558,21.5481745 55.1495637,21.7985075 55.5688978,22.5291734 C55.9919288,23.2603674 55.7415959,24.1938347 55.0106659,24.6171297" id="Fill-59"></path>
            <path d="M44.8412859,6.1508496 C44.4179908,6.87913892 43.4858439,7.13211251 42.755178,6.70908152 C42.0213433,6.2884271 41.7720666,5.35205511 42.192721,4.62138921 C42.615752,3.89072331 43.5497474,3.64012629 44.2817336,4.06315729 C45.0123995,4.48354765 45.2643169,5.41991963 44.8412859,6.1508496" id="Fill-60"></path>
            <path d="M42.1414925,10.8266361 C41.7184615,11.5578301 40.7847302,11.808163 40.0538002,11.385132 C39.321814,10.9644776 39.0728014,10.0283697 39.4931917,9.29743972 C39.9164868,8.56650976 40.8512744,8.31617681 41.5822044,8.73656716 C42.3131343,9.15986223 42.5634673,10.0959701 42.1414925,10.8266361" id="Fill-61"></path>
            <path d="M39.4155568,15.5478416 C38.9925258,16.2763949 38.0601148,16.5293685 37.3265442,16.1063375 C36.5958783,15.6856831 36.3479219,14.7493111 36.7683123,14.0183812 C37.190287,13.2874512 38.1263949,13.0371183 38.857589,13.4577727 C39.5871986,13.8808037 39.8385878,14.8169116 39.4155568,15.5478416" id="Fill-62"></path>
            <path d="M36.8683927,19.9585075 C36.4458898,20.6894374 35.5129506,20.9397704 34.7796441,20.5167394 C34.0487141,20.096349 33.8007577,19.159977 34.2200918,18.4314237 C34.6431228,17.7007577 35.5792308,17.4477842 36.3104248,17.8708152 C37.0402985,18.2912055 37.2916877,19.2275775 36.8683927,19.9585075" id="Fill-63"></path>
            <path d="M41.1950861,20.1037428 C40.7736395,20.8346728 39.8399082,21.0852698 39.1089782,20.6617107 C38.3767279,20.243961 38.1277153,19.307589 38.5481056,18.5769231 C38.9711366,17.845729 39.9061883,17.5956602 40.6371183,18.0184271 C41.3683123,18.4390815 41.6183812,19.3728129 41.1950861,20.1037428" id="Fill-64"></path>
            <path d="M45.0665327,16.4564868 C44.6435017,17.1876808 43.7110907,17.4380138 42.9775201,17.0147187 C42.2479104,16.5943284 41.9988978,15.6579564 42.4192882,14.929403 C42.8425832,14.1987371 43.7773708,13.9457635 44.5085649,14.3664179 C45.2392308,14.7894489 45.4895637,15.7255568 45.0665327,16.4564868" id="Fill-65"></path>
            <path d="M49.0903444,12.5438462 C48.6675775,13.2750402 47.7349024,13.5253731 47.0039724,13.1023421 C46.2706659,12.6816877 46.0227095,11.7479564 46.4423077,11.0170264 C46.8650746,10.2863605 47.8011825,10.0360276 48.5323766,10.4537773 C49.2619862,10.8770723 49.5136395,11.8131803 49.0903444,12.5438462" id="Fill-66"></path>
            <path d="M31.0497359,1.63482204 C31.0497359,2.47850746 30.3652813,3.16190586 29.5215959,3.16190586 C28.6755339,3.16190586 27.9921355,2.47850746 27.9921355,1.63482204 C27.9921355,0.791400689 28.6755339,0.108266361 29.5215959,0.108266361 C30.3652813,0.108266361 31.0497359,0.791400689 31.0497359,1.63482204" id="Fill-67"></path>
            <path d="M31.0486797,7.03440873 C31.0486797,7.87783008 30.3652813,8.56386912 29.5215959,8.56386912 C28.6779104,8.56386912 27.9934558,7.87783008 27.9934558,7.03440873 C27.9910792,6.19098737 28.6779104,5.50732491 29.5215959,5.50732491 C30.3652813,5.50732491 31.0486797,6.19098737 31.0486797,7.03440873" id="Fill-68"></path>
            <path d="M31.0497359,12.4865442 C31.0497359,13.3299656 30.3652813,14.0133639 29.5215959,14.0133639 C28.6779104,14.0133639 27.9934558,13.3299656 27.9934558,12.4865442 C27.9934558,11.6428588 28.6755339,10.9568197 29.5215959,10.9568197 C30.3652813,10.9568197 31.0497359,11.6428588 31.0497359,12.4865442" id="Fill-69"></path>
            <path d="M31.0486797,17.5806085 C31.0486797,18.4240299 30.3652813,19.1074282 29.5215959,19.1074282 C28.6779104,19.1074282 27.9934558,18.4240299 27.9934558,17.5806085 C27.9934558,16.7369231 28.6779104,16.0511481 29.5215959,16.0511481 C30.3652813,16.0511481 31.0486797,16.7369231 31.0486797,17.5806085" id="Fill-70"></path>
            <path d="M34.86969,15.5428243 C34.86969,16.3862457 34.1852354,17.0696441 33.3428703,17.0696441 C32.4965442,17.0696441 31.8144661,16.3862457 31.8144661,15.5428243 C31.8144661,14.6991389 32.4965442,14.0160046 33.3428703,14.0160046 C34.1852354,14.0160046 34.86969,14.6991389 34.86969,15.5428243" id="Fill-71"></path>
            <path d="M36.3980941,10.4490241 C36.3980941,11.2927095 35.7144317,11.9755798 34.8707463,11.9755798 C34.0273249,11.9755798 33.3428703,11.2927095 33.3402296,10.4490241 C33.3402296,9.60533869 34.0249483,8.91929966 34.8707463,8.91929966 C35.7144317,8.91929966 36.3980941,9.60533869 36.3980941,10.4490241" id="Fill-72"></path>
            <path d="M37.9259701,5.04943743 C37.9259701,5.8904822 37.2428358,6.57652124 36.3994145,6.57652124 C35.5530884,6.57652124 34.8683697,5.8904822 34.8683697,5.04943743 C34.8683697,4.20601607 35.5530884,3.51971297 36.3994145,3.51971297 C37.2428358,3.51971297 37.9259701,4.20601607 37.9259701,5.04943743" id="Fill-73"></path>
            <path d="M16.8478301,4.62138921 C17.2711251,5.35205511 17.0205281,6.2884271 16.2895982,6.70644087 C15.5586682,7.12973594 14.6238806,6.88177956 14.2008496,6.14847302 C13.7799311,5.41727899 14.0278875,4.48354765 14.7588175,4.06315729 C15.4923881,3.64012629 16.4247991,3.89072331 16.8478301,4.62138921" id="Fill-74"></path>
            <path d="M19.5476234,9.29743972 C19.9703904,10.0283697 19.7203215,10.9644776 18.9896556,11.385132 C18.2584615,11.808163 17.3234099,11.5554535 16.9001148,10.8242595 C16.4799885,10.0959701 16.7290011,9.15986223 17.4609874,8.73894374 C18.1921814,8.31617681 19.1259127,8.56650976 19.5476234,9.29743972" id="Fill-75"></path>
            <path d="M22.2735591,14.0183812 C22.6965901,14.7493111 22.4452009,15.6856831 21.7155913,16.1063375 C20.9843972,16.5293685 20.0482893,16.2763949 19.6263146,15.545465 C19.2059242,14.8169116 19.4538806,13.8808037 20.1845465,13.4601493 C20.9181171,13.0371183 21.8505281,13.2874512 22.2735591,14.0183812" id="Fill-76"></path>
            <path d="M24.8207233,18.4290471 C25.2437543,19.159977 24.992101,20.096349 24.2624914,20.519116 C23.5315614,20.9397704 22.5951894,20.6920781 22.1721584,19.9585075 C21.7528243,19.2275775 22.0005166,18.2912055 22.7340873,17.8708152 C23.4652813,17.4477842 24.3974282,17.7007577 24.8207233,18.4290471" id="Fill-77"></path>
            <path d="M27.1109529,14.7543284 C27.5339839,15.4855224 27.2825947,16.4216303 26.5514007,16.8420207 C25.8220551,17.2650517 24.8859472,17.0120781 24.4626521,16.2837887 C24.0422618,15.5528588 24.2912744,14.6164868 25.0245809,14.1960964 C25.7541906,13.7730654 26.6879219,14.026039 27.1109529,14.7543284" id="Fill-78"></path>
            <path d="M25.8867509,9.57761194 C26.3100459,10.3085419 26.0586567,11.2449139 25.328783,11.6676808 C24.597589,12.0883352 23.6614811,11.8382664 23.2397704,11.1070723 C22.819116,10.3764064 23.0670723,9.44267509 23.7982664,9.01938002 C24.5313088,8.59634902 25.464248,8.84932262 25.8867509,9.57761194" id="Fill-79"></path>
            <path d="M24.5101837,4.13841561 C24.9332147,4.86908152 24.6828817,5.80518944 23.9519518,6.22584386 C23.2210218,6.64913892 22.2859701,6.39854191 21.8632032,5.66523536 C21.4422847,4.93668197 21.6915614,4.00057405 22.4211711,3.5801837 C23.1547417,3.15688863 24.0871527,3.40748565 24.5101837,4.13841561" id="Fill-80"></path>
            <path d="M6.0428473,14.3088519 C6.7735132,14.7316188 7.02490241,15.6629736 6.60239954,16.3941676 C6.18148106,17.1272101 5.24537313,17.3778071 4.51602755,16.9547761 C3.78483352,16.5314811 3.53344432,15.6006544 3.95621125,14.8668197 C4.37686567,14.1361538 5.31165327,13.8858209 6.0428473,14.3088519" id="Fill-81"></path>
            <path d="M10.7199541,17.0073249 C11.4495637,17.4303559 11.7014811,18.3640873 11.278186,19.0947532 C10.8577956,19.8285878 9.92300804,20.0762801 9.19181401,19.6553617 C8.4582434,19.2325947 8.21055109,18.2964868 8.62988519,17.5652928 C9.05291619,16.8370034 9.98928817,16.5840299 10.7199541,17.0073249" id="Fill-82"></path>
            <path d="M15.4398393,19.7332606 C16.1707692,20.1562916 16.4221584,21.090023 15.9993915,21.8209529 C15.5787371,22.5518829 14.6426292,22.8022158 13.9124914,22.3815614 C13.1818255,21.9585304 12.9304363,21.0224225 13.3508266,20.2917566 C13.7738576,19.5605626 14.7089093,19.3102296 15.4398393,19.7332606" id="Fill-83"></path>
            <path d="M19.8518255,22.2814811 C20.5811711,22.7047761 20.8328243,23.6356028 20.4100574,24.3667968 C19.9891389,25.1003674 19.0546154,25.3480597 18.3236854,24.9274053 C17.5924914,24.5046383 17.3421584,23.5706429 17.7651894,22.839713 C18.1858439,22.108783 19.1208955,21.8584501 19.8518255,22.2814811" id="Fill-84"></path>
            <path d="M19.9970608,17.9534673 C20.7279908,18.3767623 20.97938,19.307589 20.556349,20.038783 C20.1356946,20.7720896 19.1998507,21.0224225 18.469713,20.6017681 C17.7390471,20.1787371 17.4876579,19.2423651 17.9106889,18.5116992 C18.3310792,17.7810333 19.2671871,17.5304363 19.9970608,17.9534673" id="Fill-85"></path>
            <path d="M16.3498048,14.0812285 C17.0794145,14.5042595 17.3308037,15.4377268 16.9080367,16.1710333 C16.4871183,16.9022273 15.5525947,17.1499196 14.8211366,16.7292652 C14.0904707,16.3064983 13.8404018,15.3703904 14.2607922,14.6415729 C14.6838232,13.910907 15.6188749,13.6579334 16.3498048,14.0812285" id="Fill-86"></path>
            <path d="M12.4371642,10.058209 C13.1680941,10.481504 13.4184271,11.4149713 12.9953961,12.1459013 C12.5747417,12.8770953 11.6402181,13.1274282 10.9090241,12.7067738 C10.1791504,12.2837428 9.92776119,11.3473708 10.3481515,10.6164409 C10.7711825,9.88577497 11.7064983,9.63517796 12.4371642,10.058209" id="Fill-87"></path>
        </g>
    </g>
</svg>