<svg xmlns="http://www.w3.org/2000/svg" viewBox="0 0 147.94 147.94"><defs><style>.cls-1,.cls-2{fill:#174481;}.cls-2{fill-rule:evenodd;}</style></defs><title>Asset 1</title><g id="Layer_2" data-name="Layer 2"><g id="图层_1" data-name="图层 1"><path class="cls-1" d="M60.6,43.31a6,6,0,0,1,2.06-4.54l.2-.17,8.6-7.1.05,0a.71.71,0,0,1,1.14.56V83.51a1.5,1.5,0,0,0,3,0V54.07a5.13,5.13,0,0,1,5.13-5.13h9.35a.36.36,0,0,1,.36.35.36.36,0,0,1-.17.3h0a5.13,5.13,0,0,0-2.59,4.46V80.89a13.55,13.55,0,1,1-27.1,0V43.31Z"/><path class="cls-1" d="M91.93,87.48a17.78,17.78,0,1,1-35.55,0V45.54a.71.71,0,0,0-.71-.71.72.72,0,0,0-.43.15l-.08.07L44.3,54l-.24.2a8.39,8.39,0,0,0-3,6.48V78.33a33.13,33.13,0,0,0,66.27,0v-12a6.11,6.11,0,0,0-6.14-6.1H90.66a.36.36,0,0,0-.35.35.32.32,0,0,0,.14.27l0,0a3.47,3.47,0,0,1,1.45,2.83Z"/><path class="cls-1" d="M0,74A74,74,0,0,1,74,0V1.83A72.14,72.14,0,1,0,146.11,74,72.23,72.23,0,0,0,74,1.83V0A74,74,0,1,1,0,74"/><path class="cls-1" d="M24.9,74A49.07,49.07,0,0,1,74,24.9v1.83A47.24,47.24,0,1,0,121.21,74,47.3,47.3,0,0,0,74,26.73V24.9A49.07,49.07,0,1,1,24.9,74"/><path class="cls-1" d="M30.1,106.58c.29.07.39,0,.46-.18a2.49,2.49,0,0,0,0-1.15c-.09-.39-.38-.61-.51-.6a2.36,2.36,0,0,1-.36,0s-.3-.07-.65-.2a7.47,7.47,0,0,1-.9-.36,1.28,1.28,0,0,1-.26-.39,1.69,1.69,0,0,1-.11-.51.45.45,0,0,0-.21-.35,4.09,4.09,0,0,1-.41-.19.72.72,0,0,0-.33-.14,1.56,1.56,0,0,0-.38.09c-.18,0-.21.12-.21.12A.39.39,0,0,1,26,103a1.07,1.07,0,0,1-.45.1c-.16,0-.12.07-.37.11s-.4.1-.55.14a.57.57,0,0,1-.38,0l-1.19-.25a2.32,2.32,0,0,0-.45-.08c-.17,0-1.1.1-1.38.14a9.19,9.19,0,0,0-1.26.22,4.17,4.17,0,0,1-.64.12,2.94,2.94,0,0,0-.32.1c-.12,0-.28,0-.49-.08s-.25-.15-.49-.43a4.65,4.65,0,0,1-.46-.73s0-.2,0-.39.09-.06.16,0a.37.37,0,0,1,.18.27c0,.14,0,.26.08.44s.26.21.46.27.31-.05.45-.07a.91.91,0,0,0,.46-.07,3.27,3.27,0,0,1,.53-.3,7.7,7.7,0,0,0,.75-.29,1.13,1.13,0,0,1,.67-.09,3.75,3.75,0,0,0,1.14-.25c.28-.1.25-.24.18-.35s-.38-.52-.42-.63.13-.22.35-.36a.63.63,0,0,1,.68,0A3.22,3.22,0,0,1,24,101a2.77,2.77,0,0,1,.41.43c.18.37.22.29.35.27s.32-.06.62-.47a1.42,1.42,0,0,0,.18-1.2,2,2,0,0,0-.6-.68c-.16-.11-.2,0-.2,0l-.26.15c-.1,0-.13,0-.21-.06s-.19-.07-.32-.14-.11-.12-.07-.21a.23.23,0,0,1,.26-.1,4.66,4.66,0,0,0,.62.08,2.06,2.06,0,0,1,.4,0c.07.07,0,.11.19.22a1.49,1.49,0,0,0,.56.17l1.1.15a3,3,0,0,0,1.14,0,1.25,1.25,0,0,0,.53-.41,2.15,2.15,0,0,0,.31-.43.67.67,0,0,0,0-.69c-.09-.15-.28-.3-.75-.43l-.71-.18c-.29-.08-.57-.18-.85-.24A6,6,0,0,0,25,97.13a1.31,1.31,0,0,1-.71-.07,1.08,1.08,0,0,1-.6-.58,2.76,2.76,0,0,1-.18-.52,1.78,1.78,0,0,1-.11-.73,6.61,6.61,0,0,1,.47-1.37c0-.1,0-.12,0-.12s-.08,0-.13,0a.85.85,0,0,0-.16.12,1,1,0,0,0-.35.49,2.79,2.79,0,0,1-.19.55,1.4,1.4,0,0,0,0,.85,5.08,5.08,0,0,1,.08,1,1.52,1.52,0,0,0,0,.38.51.51,0,0,0,.29.37,4,4,0,0,0,1.38,0c.21,0,.83-.12,1.32-.16a.85.85,0,0,1,.74.21,2.53,2.53,0,0,0,.67.17,3.34,3.34,0,0,1,.61.36c.12.1.19.06.3.23s0,.25-.05.28a1.23,1.23,0,0,1-.25.09,2.15,2.15,0,0,1-.68.07,4.62,4.62,0,0,1-.86-.06,6.13,6.13,0,0,0-1-.19,3.66,3.66,0,0,1-.82-.08c-.2-.06-.8-.35-.8-.35l-.93-.28c-.37-.12-.68-.28-.78-.31a2.69,2.69,0,0,1-.52-.17,8.53,8.53,0,0,1-.82-.46,1.51,1.51,0,0,0-.45-.22c-.13,0-.35,0-.47-.09a6.89,6.89,0,0,1-.71-.4,2.73,2.73,0,0,0-.48-.3,3.41,3.41,0,0,1-.38-.19l-.38-.22a2.55,2.55,0,0,1-.54-.44.4.4,0,0,0-.45-.06,1.73,1.73,0,0,1-.4.16.79.79,0,0,0-.41.21,1.2,1.2,0,0,0,0,.79c.1.33.3.48.68.81a6.72,6.72,0,0,0,1.5.76c.47.22,1.22.65,1.45.79s.41.18.52.38-.16.25-.16.25l-.14.05-.35.22c-.32.18-.66.33-.66.33s-.08.07-.27,0S18,99.4,18,99.4l0-.09c0-.12-.08-.11-.16-.11a3.22,3.22,0,0,0-.74.22,5.1,5.1,0,0,0-1.19.75,2.38,2.38,0,0,1-.44.31l-.26-.23c-.13-.11-.39-.35-.57-.49a2.73,2.73,0,0,0-.65-.33c-.42-.2-.57-.11-.57-.11a1.58,1.58,0,0,1,.54.23c.15.09.36.31.49.38a1.65,1.65,0,0,1,.35.26c.21.16.27.26.4.36a.82.82,0,0,1,.14.13.51.51,0,0,1-.13.11c-.1.06-.09.06-.11.21s-.07.1-.23.11a1.07,1.07,0,0,1-.56-.29l-.54-.43c-.15-.11-.31-.17-.51-.31a5,5,0,0,1-.5-.34c-.09-.1-.12-.14-.22-.27s-.23-.17-.32-.28a1.62,1.62,0,0,1-.2-.31l-.22.13s-.22-.07-.32,0-.11.31-.14.65,0,.37.22.66a1,1,0,0,0,.49.46,9.22,9.22,0,0,1,.88.59c.29.2,1.07.67,1.27.78a1.22,1.22,0,0,1,.37.3c0,.08-.12.1-.31.17a5.16,5.16,0,0,1-1,.1c-.14,0-.25.06-.27.2s.08.37.31.67.36.25.48.21.08-.09.12-.16.1,0,.17-.08a.48.48,0,0,1,.21,0c.11,0,.64-.09.64-.09l.07.11a2,2,0,0,1,0,1c0,.17-.23.34-.31.54s0,.45,0,.59-.17.22-.16.32.18.12.26.1a2.5,2.5,0,0,1,.38,0c.09,0,.19-.11.35-.23s.6-.35.79-.46.6-.39.79-.54a2.46,2.46,0,0,1,.36-.21s.15,0,.21,0,.54-.29.54-.29a1.48,1.48,0,0,0,.56-.14c.15,0,.3-.17.58-.27s1-.38,1.33-.46a12.26,12.26,0,0,1,1.42-.16,1.75,1.75,0,0,1,.68.1,13.55,13.55,0,0,1,1.35.39.29.29,0,0,1,.14.32l-.39.21a3.48,3.48,0,0,0-.82.43,8.07,8.07,0,0,1-.86.65,3.09,3.09,0,0,0-.7.47,3.33,3.33,0,0,1-.39.37s-.39.21-.85.49c-.13.08-.23.21-.36.3s-.41.21-.49.26c-.31.22-1,.73-1.48,1a15.14,15.14,0,0,1-2.09.69,3.27,3.27,0,0,0-1,.55,7.1,7.1,0,0,1-1,.57s-.78.49-1,.62-.07.18,0,.23.06-.11.12-.13a.1.1,0,0,1,.14.08c0,.08-.15.05-.2.12s0,.08.14.08a.69.69,0,0,0,.36-.07c0-.06.11-.13.18,0s0,.15,0,.18-.28.14-.46.23-.14.16-.1.21.12,0,.24-.08a7.18,7.18,0,0,0,.69-.4c.25-.15.44-.22.74-.4a5,5,0,0,0,.51-.37,4.74,4.74,0,0,1,.69-.46,7.64,7.64,0,0,1,.8-.35,11.92,11.92,0,0,1,1.16-.34c.36-.09.85-.14,1.15-.2a3.93,3.93,0,0,0,.94-.45,15.5,15.5,0,0,0,1.57-1c.44-.32,1.47-1,1.8-1.26a8.37,8.37,0,0,1,.82-.42.24.24,0,0,1,.1.21,1.93,1.93,0,0,1-.22.56,3.54,3.54,0,0,1-.22.52c-.06.09-.28.34-.49.57a5.67,5.67,0,0,0-.59.75.94.94,0,0,1-.46.35c-.17.08-.36.15-.37.36s.12.3.33.55a1.08,1.08,0,0,0,1.08.24,4.59,4.59,0,0,0,1.14-.66l.63-.59A8.52,8.52,0,0,0,26,108a5.66,5.66,0,0,0,.82-2,.47.47,0,0,1,.32-.4.85.85,0,0,1,.52,0s2.15,1,2.44,1m-8.56-8.76a1.31,1.31,0,0,1-.13-.13,2,2,0,0,1-.52-.24.38.38,0,0,1-.12-.17c.06-.1.31,0,.4.13a2.05,2.05,0,0,0,.49.21.15.15,0,0,1,.09.11s-.17.11-.21.09M21,101.31a.19.19,0,0,1-.15.19l-.5.13a1.72,1.72,0,0,0-.48.17c-.28.13-.38.2-.5.26s-.2.17-.29,0,0-.17,0-.28a.75.75,0,0,0,.07-.37c0-.09-.09-.14-.17-.25s0-.15,0-.13.84,0,1.1.06.61.1.67.09a.16.16,0,0,1,.17.12m.15-2.08.36.21c.1.06.51.33.62.38a1.09,1.09,0,0,1,.31.29c.1.12.06.17,0,.17s-.15,0-.24,0a2.43,2.43,0,0,0-.45.15c-.12.06-.32,0-.49-.07a1.73,1.73,0,0,0-.44,0,.22.22,0,0,1-.22-.16c0-.1.09-.14.15-.16a1.72,1.72,0,0,1,.36,0,.59.59,0,0,0,.38-.08c.13-.07.25-.13.23-.18s-.06,0-.19,0a2.06,2.06,0,0,0-.35.14.8.8,0,0,1-.53,0c-.18-.08-.27-.13-.11-.29a2.49,2.49,0,0,1,.6-.33m-5.7,2.87c-.15,0-.13-.15-.12-.22a.48.48,0,0,1,.12-.17.33.33,0,0,1,.1.1c0,.09.07,0,.09.13s0,.16-.18.16m1.16-.31a.63.63,0,0,0-.41.1.54.54,0,0,1-.42,0,.38.38,0,0,1-.28-.25c0-.07.09-.13.18-.17a1.75,1.75,0,0,0,.2-.12l.33-.25.06.07c0,.06,0,0,.06.05s0,0,.11.14.09.09.14.15.25.12.3.17.14.12.11.14l-.09.07c-.06,0-.11-.06-.29-.09m1-.26c-.15-.1-.5-.27-.69-.38a1.16,1.16,0,0,0-.38-.18.25.25,0,0,1-.16-.12.38.38,0,0,1,0-.09c0-.06,0-.18.08-.23s.23-.09.3-.13a3.58,3.58,0,0,1,.76-.38.58.58,0,0,1,.52.1,1.16,1.16,0,0,0,.3.07,1.08,1.08,0,0,1,.28.65,2.36,2.36,0,0,1,0,.89.23.23,0,0,1-.28.14,4.42,4.42,0,0,1-.75-.33m-1.27,3a6.15,6.15,0,0,0-.79.39s0,0-.08-.05a1.53,1.53,0,0,1-.09-.55,3.73,3.73,0,0,0,0-.55,1.2,1.2,0,0,0-.14-.31,2.21,2.21,0,0,1,.5-.34s0,0,.08,0a1,1,0,0,0,.38.2c.17.07.34.18.53.28a4.54,4.54,0,0,1,.51.39l-.13.18c-.1.13-.35.19-.72.32m9,3a.94.94,0,0,1-.53.46c-.18.1-.49.37-.56.39s-.21-.24-.22-.33.11-.41.11-.57a.29.29,0,0,1,.09-.25,1.59,1.59,0,0,0,.19-.49c.06-.25.25-.69.27-.83s0-.2.14-.26a2.3,2.3,0,0,0,.45-.16c.16-.09.27-.17.45-.25s.35-.16.37-.06.11.1,0,.62a6.94,6.94,0,0,1-.79,1.72"/><path class="cls-1" d="M42.77,121a2.18,2.18,0,0,1-.19-.23,2.21,2.21,0,0,0-.41-.6,4.68,4.68,0,0,0-.67-.58,1.78,1.78,0,0,0-.21-.17s0,0,.07-.1a1.18,1.18,0,0,0,.29-.47,2.66,2.66,0,0,1,.12-.52c.07-.13.08-.18,0-.21s-.09,0-.19,0a1.93,1.93,0,0,0-.5.27c-.05.08-.17.28-.23.41s-.11.24-.14.29-.07.05-.25,0-.4-.11-.64-.19a7.12,7.12,0,0,1-.69-.3,3.94,3.94,0,0,0-.7-.15c-.1,0-.25,0-.31,0s-.13-.1-.07-.18.16-.13.23-.23.19-.36.25-.48a2.22,2.22,0,0,0,.21-.41.28.28,0,0,0,0-.3c-.08-.12-.13-.1-.2-.08a3.31,3.31,0,0,1-.36.1.63.63,0,0,1-.36,0,.37.37,0,0,0-.35,0l-.36.25c-.09.06-.15.15-.23.16s-.17,0-.24-.16a3.6,3.6,0,0,1-.25-.78c0-.11.08-.1.1-.27s.1-.51.11-.68a3,3,0,0,1,.11-.45c0-.14.07-.14,0-.23a4.31,4.31,0,0,0-.39-.23c-.06,0-.11-.08-.16.05s0,.53-.11.66a1.36,1.36,0,0,1-.53.35c-.17.06-.58.19-.67.24a.43.43,0,0,1-.46,0,2,2,0,0,0-.77-.37,1,1,0,0,1-.78-.29,3.63,3.63,0,0,1-.78-1,2.88,2.88,0,0,0-.48-.74,2.26,2.26,0,0,0-.24-.23,1.87,1.87,0,0,1,0,.71c-.05.07-.09,0-.11-.05a.61.61,0,0,0-.13-.28s-.06,0-.1,0a.33.33,0,0,0-.09,0c-.06,0,0,.06,0,.23a1.18,1.18,0,0,1,0,.36,2.2,2.2,0,0,0,.21.74,1.51,1.51,0,0,1,.12.34,2.23,2.23,0,0,0,.26.65,1.06,1.06,0,0,0,.45.27,6.46,6.46,0,0,0,.92.31,3.7,3.7,0,0,0,.75.15.72.72,0,0,0,.29,0,1.24,1.24,0,0,1,.07.3.13.13,0,0,1-.11,0c-.07,0-.14,0-.2.14a3.4,3.4,0,0,0-.4.66,1.42,1.42,0,0,1-.33.53c-.11.15-.46.54-.62.72s-.38.66-.22.83.17,0,.28,0,.47,0,.61,0a1.2,1.2,0,0,0,.59-.3,3.38,3.38,0,0,1,.79-.42,1.9,1.9,0,0,0,.55-.35c.19-.19.36-.53.56-.56a.76.76,0,0,1,.74.24,3.38,3.38,0,0,1,.35.44.93.93,0,0,1,.2.34c0,.19,0,.15-.15.39a7.48,7.48,0,0,1-.42.75c-.07.07-.4.36-.32.63s.26.1.38.08a1.67,1.67,0,0,1,.38-.11c.15,0,.17-.08.15-.17a.34.34,0,0,1,.16-.3,1.14,1.14,0,0,0,.31-.25c.08-.12.37-.43.37-.43s0-.05.08.06a1,1,0,0,0,.28.39,5.44,5.44,0,0,0,.45.36l.37.25c.23.15.34.3.47.39s.21.08.24.16,0,.15-.16.29-.34.32-.49.49a4.19,4.19,0,0,1-.58.55,5.73,5.73,0,0,0-.66.54,12.4,12.4,0,0,1-.83,1,1.27,1.27,0,0,1-.61.2l-.5.06a4.53,4.53,0,0,0-.76.24,4.79,4.79,0,0,1-.76.17c-.14,0-.27,0-.34,0s-.68.17-1,.24a4.16,4.16,0,0,1-.8.14,3.5,3.5,0,0,1-.83,0c-.13-.07-.1-.13-.08-.18a.93.93,0,0,0,0-.33c0-.08-.09-.09-.15,0s-.07.15-.16.19-.18,0-.25-.06-.1,0-.06.09.12,0,0,.17-.16.29.18.54.48.29.68.28a3.93,3.93,0,0,0,.63-.15,3.34,3.34,0,0,1,1.15-.08,5.5,5.5,0,0,0,1.16,0c.34-.07.76-.1,1.06-.19s.55-.07.88-.14a6.11,6.11,0,0,0,1.17-.46,1.27,1.27,0,0,0,.43-.53,7.6,7.6,0,0,1,.64-1c.21-.28.45-.63.6-.88a2.59,2.59,0,0,1,.47-.48,1.35,1.35,0,0,0,.28-.4c0-.08.13-.24.41-.13s.37.26.6.34.39.07.46.11a.06.06,0,0,1,0,.1.45.45,0,0,0,.26.16,1,1,0,0,0,1-.11.9.9,0,0,0,.13-1.21m-7.42-3.48-.09,0a1.72,1.72,0,0,1-.19.19.62.62,0,0,1-.26.11,1.06,1.06,0,0,0-.23.1l-.13.15s-.33.41-.45.51-.27,0-.34-.11.08-.19.14-.28.19-.26.24-.31a2.94,2.94,0,0,0,.27-.29,4.13,4.13,0,0,0,.26-.44c.05-.08.08-.16.16-.17a.69.69,0,0,1,.27.1,1,1,0,0,1,.35.31c.07.08,0,.1,0,.11m1-.56a6.69,6.69,0,0,1-.51-.49c-.06-.08-.07-.08,0-.19A1.2,1.2,0,0,1,36,116l.09,0a3.83,3.83,0,0,0,.11.45,2.59,2.59,0,0,0,.21.5c0,.05-.06.09-.15,0m.83.22c0-.09.07-.07.09-.07a.56.56,0,0,1,.22,0c.07,0,0,.07,0,.08a.68.68,0,0,0-.17,0,.13.13,0,0,1-.14,0m.27.72c-.09-.06-.44-.34-.48-.37s0-.07.07-.1.25,0,.25,0,0,0,0-.05a.62.62,0,0,1,.23,0l.29,0c.08,0,.12-.06.18,0s0,.16-.09.24a4.66,4.66,0,0,0-.28.39c-.07.1-.13.05-.22,0m.63-.74c-.07,0-.19,0-.32,0s-.14,0-.14,0,.07-.08.13-.1L38,117a.15.15,0,0,1,.2.06c0,.06.1.19,0,.2s-.13,0-.19-.07m1.47,3.93a1.27,1.27,0,0,1-.41-.25c-.17-.16-.24-.23-.4-.37a1.59,1.59,0,0,1-.38-.39.85.85,0,0,0-.3-.29c-.07-.06-.18-.12-.14-.22s.32,0,.59,0a6.73,6.73,0,0,1,.91.14,3.6,3.6,0,0,1,.59.17c.11.05.18.11.18.15a.56.56,0,0,1-.1.29c-.1.17-.25.37-.29.46a1.11,1.11,0,0,1-.15.23s0,.07-.1.05m2.5.63a1.14,1.14,0,0,0-.25.09.8.8,0,0,1-.5-.06c-.21-.08-.49-.23-.78-.36s-.32-.17-.32-.17a.74.74,0,0,1,.09-.14,2.08,2.08,0,0,1,.3-.43,2,2,0,0,0,.3-.31c.07-.1,0-.16.16-.11a3.66,3.66,0,0,1,.49.33,2.58,2.58,0,0,1,.46.43,1.18,1.18,0,0,1,.23.58c0,.16-.06.15-.18.16"/><path class="cls-1" d="M55.73,126.8c0-.35-.43-.74-.77-.92a3.36,3.36,0,0,0-.76-.21,2.39,2.39,0,0,1-.5-.36c-.07,0-.12-.26-.11-.37s.08-.24,0-.38-.3-.13-.57-.09-.61.17-.8.22a.92.92,0,0,1-.52,0c-.16,0-.83-.33-1.06-.39a1.07,1.07,0,0,0-.59,0c-.14,0-.21.11-.19.17a2.17,2.17,0,0,0,.33.33c.16.15.25.27.36.39a8.17,8.17,0,0,0,.59.57c.24.19.4.39.56.54s.13.29.07.52a.86.86,0,0,1-.3.51,8.54,8.54,0,0,1-1.13.58,14.87,14.87,0,0,0-1.57.74,1.22,1.22,0,0,0-.55.76c0,.26.66.66,1,.8s.7.13.75.17,0,.12-.13.22a1.9,1.9,0,0,1-.43.27c-.12.05-.29.08-.41.13a7.44,7.44,0,0,0-1.23.67c-.3.22-.8.58-1.1.75-.1.05-.24.17-.42.28-.37.23-.86.51-1,.62a1.73,1.73,0,0,0-.4.56c-.08.17-.17.3.08.49a1.88,1.88,0,0,0,1,.16,3.31,3.31,0,0,0,.88-.18c.36-.09.78-.13,1-.19l.65-.23.36.09a2.36,2.36,0,0,0,.29,0s-.2.56-.26.83a.92.92,0,0,0,.19.91.83.83,0,0,0,.74.2c.11,0,.15-.28.2-.41a1.91,1.91,0,0,1,.14-.45,1.67,1.67,0,0,0,.12-.67,1.29,1.29,0,0,1,.17-.63,2.28,2.28,0,0,1,.41-.37A4.86,4.86,0,0,1,52,133.2c.24-.06.73-.28.87-.31s.15-.11.17-.21-.09-.27,0-.4.19-.07.3-.21-.14-.36-.14-.36,0,0,.06-.35a1.31,1.31,0,0,0-.15-.81c-.07-.14,0-.2.2-.3s.36-.13.45-.39-.12-.52-.41-.68a3.82,3.82,0,0,0-.57-.25,3,3,0,0,1,.44-.78.93.93,0,0,1,.64-.26,3.85,3.85,0,0,0,.71-.12.7.7,0,0,1,.4-.06,1.18,1.18,0,0,0,.43,0c.14,0,.16-.19.19-.34s.16-.37.21-.62m-5.79,4.84c-.08.19-.25.73-.29.85a1.33,1.33,0,0,1-.15.34,1.53,1.53,0,0,1-.28.09A9,9,0,0,1,48,133c-.77.06-1.08.08-1.2,0s.08-.26.2-.39.35-.35.46-.46.18-.13.33-.24a5.05,5.05,0,0,1,.86-.47c.31-.12.59-.25.78-.31A4.71,4.71,0,0,1,50,131a1.15,1.15,0,0,1,.21,0l-.25.61m2.59-1.09h.24a.84.84,0,0,1,.17.45,2.31,2.31,0,0,1,0,.52c0,.15-.08.19-.14.24a3,3,0,0,1-.51.23,2.41,2.41,0,0,1-.67.14,1.3,1.3,0,0,1-.39-.1l.09-.34a3.24,3.24,0,0,1,.26-.69.92.92,0,0,1,.48-.39c.19,0,.39,0,.51-.05"/><path class="cls-1" d="M56.25,130.3c.21.14.34.33.55.4s1-.26,1-.26,1-.48,1.83-.86c.53-.26.91-.48.91-.48l.68-.46.65-.44a4.94,4.94,0,0,1,.49-.28,2,2,0,0,0,.55-.42c.1-.17,0-.3-.15-.5a.86.86,0,0,0-.63-.36,3.74,3.74,0,0,1-.83-.17c-.14,0-.28-.1-.21,0s.1.14,0,.15-.45,0-.69,0a2.49,2.49,0,0,1-.75,0,1.26,1.26,0,0,1-.52-.29c-.15-.12-.5-.35-.5-.35l-.45.25c-.08,0-.49.26-.55.47a.72.72,0,0,0,.35.81,1.13,1.13,0,0,0,.7.18.48.48,0,0,1,.31.07s0,.07-.15.19a4.28,4.28,0,0,1-1,.68c-.69.35-1.43.62-1.73.75l-.63.27s-.19.11,0,.32a.38.38,0,0,0,.43.15c.13,0,.21.07.43.21"/><path class="cls-1" d="M62.9,130.72a2.28,2.28,0,0,0-.26-.71c-.11-.18-.12-.2-.09-.28s0-.06-.14-.07-.94,0-1.18-.09-.31,0-.28,0a1.83,1.83,0,0,0,.17.23c.08.09.32.32.13.43a6.1,6.1,0,0,1-1.08.34,4,4,0,0,1-1.22.16,5,5,0,0,0-1.33,0c-.28.06-.58.24-.59.43a.38.38,0,0,0,.25.35c.12.07.26,0,.29.19a.64.64,0,0,1-.22.65.69.69,0,0,1-.61.13,7.13,7.13,0,0,1-.8,0c-.36,0-.69,0-.73.08a1,1,0,0,0,.11.55,4.16,4.16,0,0,1,.13,1c0,.16.17.26.2.42a.52.52,0,0,1-.18.44c-.11.09-.12.28-.13.48a.79.79,0,0,0,.28.67c.25.19.43.13.66.3s.41.55.34.67a1.31,1.31,0,0,1-.54.36c-.14.06-.63.28-1,.45a7.66,7.66,0,0,0-.72.3c-.15.09-1,.6-1.19.73s-.49.32-.54.37-.11.07-.1.16.14.08.23.11.1,0,.26,0a3.76,3.76,0,0,0,.47-.22c.1-.1.4-.32.56-.45a2.17,2.17,0,0,1,.63-.45c.23-.08.46-.11.73-.19s1-.3,1.26-.35l.82-.13a1.52,1.52,0,0,0,.64-.16,2.27,2.27,0,0,0,.4-.31.79.79,0,0,0,.27-.48c.05-.25.09-.39-.17-.55a2.32,2.32,0,0,1-.7-.48.46.46,0,0,1,0-.69,1.22,1.22,0,0,1,.69-.42,4,4,0,0,0,1.05-.3c.24-.15.37-.35.29-.53a1.47,1.47,0,0,0-.5-.62c-.27-.19-.43-.25-.48-.39a.29.29,0,0,1,.1-.33,2,2,0,0,0,.4-.59,1.39,1.39,0,0,0,.05-.68c-.07-.12-.2-.23-.07-.31a3.28,3.28,0,0,1,.9-.27,4.74,4.74,0,0,1,1.16,0,7.6,7.6,0,0,1,.84.32c.17.08.25.14.38.08s.19-.1.17-.31m-6.39,3.64c-.08.1-.21.31-.44.1a1.42,1.42,0,0,1-.39-.56,3,3,0,0,1-.17-.57c0-.13-.12-.29,0-.37a1.09,1.09,0,0,1,.38.19,4.12,4.12,0,0,0,.56.37c.14.08.4.19.36.34a1.93,1.93,0,0,1-.34.5"/><path class="cls-2" d="M75.68,132.9s-.2.5,0,.74a2.43,2.43,0,0,0,1.08.47c.37.09.7.06.63.35a6.62,6.62,0,0,1-.92,1.82,6.05,6.05,0,0,1-1.22,1.27,4.11,4.11,0,0,1-.66.43,2.83,2.83,0,0,1-.68.25,1.94,1.94,0,0,1-.91.17,2.94,2.94,0,0,0-1.11,0,2.09,2.09,0,0,1-.82.16c-.27,0-.35,0-.44.11s-.07.28-.5.17l-.18-.09c-.07,0-.1,0-.09.09s0,.11,0,.18-.09.12,0,.25.52.14.88.2.7.06,2.33.21a6.73,6.73,0,0,0,2.4,0c.43-.08,2.62-.54,3.11-.69a16.12,16.12,0,0,1,2.69-.48,4.65,4.65,0,0,1,1.29.08s.07,0,0-.07a1.36,1.36,0,0,1-.44-.27c-.1-.13-.09-.15.13-.13a.59.59,0,0,1,.35,0,1.68,1.68,0,0,0,.57.13c.14,0,.26,0,.26-.12s-.07-.16-.24-.31a2.66,2.66,0,0,0-1.19-.64,4.23,4.23,0,0,0-1.54,0c-.75.06-2.19.22-2.87.37a5.08,5.08,0,0,1-1.34.13c-.13,0-.14-.13,0-.25s.78-.91.95-1.16.9-1.27,1-1.6a1.36,1.36,0,0,0,0-1.3,1.54,1.54,0,0,0-.95-.59l-.61-.22a1.73,1.73,0,0,0-.6-.1.64.64,0,0,0-.4.43"/><path class="cls-1" d="M103.46,122.62a2.09,2.09,0,0,0-.64-.36.77.77,0,0,0-.8,0,13.1,13.1,0,0,0-1.25,1,3,3,0,0,1-1,.52c-.18,0-.17,0-.24-.18s-.15-.34-.21-.37a2.07,2.07,0,0,0-.6,0c-.16,0-.25.06-.24,0s0,0,.17-.19a.6.6,0,0,0,.07-.69c-.17-.27-.21-.45-.44-.48s-.21,0-.36-.09-.3-.17-.34-.29a1.51,1.51,0,0,1-.07-.31c0-.08,0-.17-.19-.22a4.83,4.83,0,0,0-.88-.13c-.22,0-.22,0-.22,0s0,0,.16.05a.68.68,0,0,1,.42.21.66.66,0,0,1,.11.34.73.73,0,0,0,.22.44.64.64,0,0,0,.25.12s.09.09,0,.14a1.52,1.52,0,0,1-.41.23,3.08,3.08,0,0,0-.63.36c-.12.11-.18.27-.31.28a.55.55,0,0,1-.36-.08,2.35,2.35,0,0,0-.5-.19,1.35,1.35,0,0,1-.28-.15s-.07,0,.14.35a1.3,1.3,0,0,0,.52.49l.1,0a8,8,0,0,0-.7.48c-.32.24-1.14.87-1.31,1a.87.87,0,0,0-.22.55,3.19,3.19,0,0,0,.06.54c0,.1,0,.41,0,.63a.8.8,0,0,0,.6.88,3.08,3.08,0,0,0,.45.1s.12,0-.29.32-1.07.9-1.07.9S92,130,91.28,130.61s-1.65,1.56-1.94,1.81-.16.28-.22.39a.22.22,0,0,0,.1.36c.21.1.33.22,1,0a3.09,3.09,0,0,0,1.47-.86c.38-.45.48-.56.83-.94s1.21-1.23,1.63-1.63.85-.79,1.15-1.06a5.84,5.84,0,0,1,.57-.49c.07,0,.13-.07.13.12s-.07.28.14.36.3.12.34.23a.65.65,0,0,1,.06.43,2,2,0,0,0-.05.65c0,.15.18.18.37.17a4.2,4.2,0,0,0,.62-.11c.17,0,.22-.07.22.05a2.35,2.35,0,0,0,0,.63c0,.26.16.75.35.85s.24.12.48,0,.25-.16.47-.3a2.26,2.26,0,0,1,.33-.16.51.51,0,0,1,0,.27,10.31,10.31,0,0,1-.56,1.09c-.18.28-.64,1.09-.75,1.33a6.83,6.83,0,0,0-.42.9.77.77,0,0,0,0,.57c.12.22.26.17.54.22s.64,0,.72.37a1.23,1.23,0,0,1,0,.52c0,.12,0,.29,0,.37s-.09.49.22.54a1.3,1.3,0,0,0,.88-.41,2.6,2.6,0,0,0,.45-.62c.06-.15.09-.23.23-.28s.13,0,.42.09.51.14.74-.09a1.11,1.11,0,0,0,.29-.77,2.48,2.48,0,0,0-.38-1.22c-.19-.31-.42-.66-.56-.88a1.42,1.42,0,0,1-.11-.22.28.28,0,0,1,.31-.11,14.23,14.23,0,0,1,1.43.6,1.75,1.75,0,0,0,1.24.3.6.6,0,0,0,.46-.7c-.06-.41-.07-.57-.3-.8a1.39,1.39,0,0,0-.76-.46,2.31,2.31,0,0,0-1.13.19,4,4,0,0,0-.91.59c-.14.13-.32.36-.34.22a1.19,1.19,0,0,1,.08-.32c0-.14.07-.32.11-.48a4.89,4.89,0,0,0,.16-.9c0-.21.1-.58-.2-.77a.89.89,0,0,0-.56-.07,1.36,1.36,0,0,0-.39.1s-.46.19-.63.09-.14-.19-.15-.32a1.3,1.3,0,0,0-.08-.5c-.08-.11-.09-.1-.16-.07l-.36.17c-.09,0-.14.06-.21,0a.34.34,0,0,1-.13-.36.94.94,0,0,1,.29-.56,4.06,4.06,0,0,1,.64-.41c.06,0,.07-.1,0-.14a6.45,6.45,0,0,1-.75-.25c-.13-.08-.27-.12-.15-.27a2.34,2.34,0,0,1,.5-.39,4.74,4.74,0,0,0,.61-.68,4.35,4.35,0,0,1,.39-.57,3,3,0,0,1,.41-.25.5.5,0,0,0,.21-.36.57.57,0,0,0-.06-.37c-.08-.16-.18-.31-.12-.39a1.57,1.57,0,0,1,.4-.28c.12-.07,0-.08.41-.26s1.25-.48,1.47-.56a2.34,2.34,0,0,0,.86-.53c.1-.19.08-.31,0-.39m-2.66,12a.49.49,0,0,1,.08.15,1.62,1.62,0,0,0,.09.23c0,.07,0,.18-.15.25s-.24.08-.29,0a.32.32,0,0,1,0-.32.46.46,0,0,1,.18-.26c.07-.06.11,0,.11,0m-3.91-11.1a3,3,0,0,1,.27-.2.89.89,0,0,1,.24-.12l.19-.08a.37.37,0,0,1,0,.29c-.07.18-.17.56-.23.72s0,.19-.08.22,0,.05-.07,0a1.11,1.11,0,0,0-.26-.26c-.09-.05-.25-.07-.26-.18s0-.19.22-.37m-.59,2.2a2.85,2.85,0,0,1-.54.47,4.47,4.47,0,0,0-.57.42,1.06,1.06,0,0,1-.58.31c-.29.09-.39.12-.6,0s-.15-.29-.16-.42a.72.72,0,0,1,.14-.5,5.68,5.68,0,0,1,.61-.41,7.57,7.57,0,0,0,.67-.47c.21-.16.47-.45.57-.51a1.37,1.37,0,0,1,.23-.14c.12-.06.21-.11.29-.1s0,0,.09.1a1.42,1.42,0,0,0,.23.41c.12.14.18.19.18.29s0,.18-.19.28a1.28,1.28,0,0,0-.38.31m3.1-.17a4.78,4.78,0,0,1-.29.56,4.54,4.54,0,0,0-.33.58,1.35,1.35,0,0,1-.14.29c-.07.1-.17.2-.26.3a2.71,2.71,0,0,1-.72.6s0,0,0-.24a4,4,0,0,1,.12-.85c.07-.19.09-.32.12-.41s.08-.13.23-.25.17-.19.25-.25a.72.72,0,0,1,.26-.18l.5-.22.18-.09h.08s.06,0,0,.15"/><path class="cls-1" d="M126.93,95.27a7.54,7.54,0,0,0-1.77,2.17c-.56.93-.74,1.61-.86,1.77s-.2,0-.07-.57a15,15,0,0,0,.88-2.29A1.25,1.25,0,0,0,124.3,95a2.3,2.3,0,0,0-1.91.13,2.07,2.07,0,0,0-.78,1.41,1.54,1.54,0,0,0,.1,1.07.51.51,0,0,1,0,.48,2.45,2.45,0,0,1-.47.51,1.81,1.81,0,0,1-.5.28s.24.13.38.19.4.25.6.33a1.71,1.71,0,0,0,.88-.16,3.07,3.07,0,0,0,.47-.15,1.22,1.22,0,0,0,.32-.37c.07-.17-.13-.14-.31-.21a4.19,4.19,0,0,1-1-.67,3.17,3.17,0,0,1-.47-.71c-.09-.19.06-.37.2-.66a2.62,2.62,0,0,0,.18-.46c0-.06,0-.12.06-.22a.32.32,0,0,1,.15-.15.57.57,0,0,1,.66,0,1.84,1.84,0,0,1,.7.51,1.66,1.66,0,0,1,.23.77,8.06,8.06,0,0,1,0,2.3,24,24,0,0,1-.39,2.46c-.06.19-.11.1-.15,0a1.79,1.79,0,0,0-.38-.44c-.12-.1-.4-.07-.56-.09s-.31-.25-.46-.37a.26.26,0,0,0-.35,0,.43.43,0,0,1-.29,0s.18.35.24.45a.47.47,0,0,1,.11.31.78.78,0,0,1-.14.35.6.6,0,0,1-.23.21,2.46,2.46,0,0,1-.43.23c-.29.06-.2.1-.45.23a1,1,0,0,0-.46.44c-.07.14,0,.14.1.09a2.21,2.21,0,0,1,.62,0,6.84,6.84,0,0,0,1.2-.16c.39-.09.88-.36,1.16-.42s.35.14.32.28a6.56,6.56,0,0,0-.11.71,3.42,3.42,0,0,0,.08.83,2.6,2.6,0,0,1,.08.76c0,.19,0,.87,0,1.14a1.34,1.34,0,0,0,.33.93,2.93,2.93,0,0,0,1.17.61,1.75,1.75,0,0,1,.57.1,2.67,2.67,0,0,0,.51.15.77.77,0,0,0,.39-.05.48.48,0,0,0,.2-.35,2.16,2.16,0,0,0-.07-.46c0-.1-.2-.13-.51-.31s-.47-1-.51-1.35-.1-.53-.17-1a6.64,6.64,0,0,1-.11-1.14c0-.37,0-.73.12-1.16a20,20,0,0,1,.46-2.07,11.76,11.76,0,0,1,.46-1.48c.4-.9.76-1.51.91-1.78s.16-.38.33-.45.35.1.43.38a2.43,2.43,0,0,1-.06,1.16,8.59,8.59,0,0,1-.36,1.27c-.24.68-.47.9-.83,1.91a6.62,6.62,0,0,0-.37,1.87c-.09.74.12.85.17.93s.16,0,.28-.19.08-.27.32-.3.52.22.67.35a6,6,0,0,0,.76.68c.22.12.32.22.5.23s.2,0,.25-.08.12-.31.23-.59a1,1,0,0,1,.18-.36c0-.07.12-.08.24-.11a1.24,1.24,0,0,1,.55-.06c.34.05.29.24.27.49a8.53,8.53,0,0,0-.16,1.06,7.42,7.42,0,0,0,.09,1.83,4.29,4.29,0,0,0,.76,1.78c.19.26.39.21.39.21a2,2,0,0,0,1-.76c.16-.2.4-.54.63-.91a5.31,5.31,0,0,0,.4-.73c.88-2,.55-2.8.25-3.29a1.18,1.18,0,0,0-.79-.56s-.3-.06-.59-.1-.55-.09-.65-.11,0-.36.19-.62a5.39,5.39,0,0,1,.44-.7c.13-.16.29-.19.56-.37s.21-.19.22-.42a.44.44,0,0,0-.27-.44c-.1,0-.21,0-.47.2a3.13,3.13,0,0,0-.47.42,4.75,4.75,0,0,0-.88,1.71c-.13.4,0,.32-.84.28a2.08,2.08,0,0,0-1.33.27.84.84,0,0,1-.87,0,3,3,0,0,1-1.26-1c-.36-.52.12-1.27.12-1.27s.37-.61.63-1.09a7,7,0,0,0,.56-1.29,3.76,3.76,0,0,0-.25-2.17,1.22,1.22,0,0,0-.47-.59.57.57,0,0,0-.66,0m5,8.1a1.81,1.81,0,0,1,.87.16c.49.21.68.28.76.6a.73.73,0,0,1-.09.63,3.13,3.13,0,0,0-.43.84,2.19,2.19,0,0,1-.13.8c-.11.2-.28.3-.37.21a1.33,1.33,0,0,1-.21-.48,1.47,1.47,0,0,0-.27-.48,1.05,1.05,0,0,1-.21-.67c0-.3,0-.62,0-.85s0-.69.12-.77"/><path class="cls-2" d="M112.81,117.76a14.18,14.18,0,0,0-1.78-1.52,5.17,5.17,0,0,1-1.16-1.36.17.17,0,0,1,0-.15,2.86,2.86,0,0,0,0-.44.57.57,0,0,1,.73-.62c.25,0,.49.1.73.16a3.85,3.85,0,0,0,1.58.12,2,2,0,0,0,.92-.37,2.19,2.19,0,0,1,1.37-.39,1.76,1.76,0,0,1,.41,0,.44.44,0,0,1,.37.36,11.91,11.91,0,0,1,.23,1.62c0,.19,0,.38.05.57a1.71,1.71,0,0,1-.24,1.13c-.23.43-.5.83-.7,1.28a.35.35,0,0,0,.09.45,14.91,14.91,0,0,1,1.1,1.1,2.89,2.89,0,0,1,.58,1.13,4.58,4.58,0,0,0,.68,1.51,1,1,0,0,1,.17.84.64.64,0,0,1-.24.41,5.24,5.24,0,0,0-.62.57,1.66,1.66,0,0,0-.45.74,2.22,2.22,0,0,1-.67.93c-.19.21-.39.14-.5-.12a1.3,1.3,0,0,1,0-.72c0-.27.11-.54.16-.81a3.49,3.49,0,0,0-.19-1.88,14.91,14.91,0,0,0-1-2.41c-.15-.28-.33-.56-.71-.58a.51.51,0,0,0-.4.12,5.21,5.21,0,0,1-1.14.74c-.6.28-.83,0-1-.59,0-.12.08-.15.15-.2l1.06-.57a1.91,1.91,0,0,0,.51-.36c.23-.24.23-.37,0-.61l-.08-.09m.79-1.2a.84.84,0,0,0,.17-.35,3.56,3.56,0,0,0,.07-1.1.19.19,0,0,0-.17-.2,10.5,10.5,0,0,0-1.47-.29c-.15,0-.3,0-.45,0a.18.18,0,0,0-.18.12.2.2,0,0,0,.07.19c.54.56,1.08,1.11,1.61,1.68.1.11.19.12.35,0"/><path class="cls-2" d="M122.33,122.58l-.06.05c-.08,0-.14.19-.23.14s0-.2,0-.31c.12-.47.25-.94.37-1.41a4.31,4.31,0,0,0,.19-1.22c0-.43-.17-.59-.61-.61a6.53,6.53,0,0,0-1.54.22,12.7,12.7,0,0,1-1.9.35.69.69,0,0,1-.67-.29.3.3,0,0,1,.05-.45,3.53,3.53,0,0,1,1.56-.82,6.59,6.59,0,0,1,3.46-.19,1.88,1.88,0,0,1,1.29,1,.8.8,0,0,1,0,.9,16.33,16.33,0,0,0-1.09,1.78,3.84,3.84,0,0,1-.79.88"/><path class="cls-1" d="M17.23,82.57,16,82.81l.08.16a7.37,7.37,0,0,1,.58,1.79l.37,1.9L9.16,84l1.11,5.66,1.2-.23-.08-.16a5.58,5.58,0,0,1-.29-.65,5.71,5.71,0,0,1-.19-.76l-.38-1.95,7.88,2.67Z"/><polygon class="cls-1" points="15.34 82.09 17.15 82.02 17.02 80.41 15.22 80.63 13.27 80.79 13.04 77.9 14.99 77.75 16.81 77.68 16.68 76.08 14.89 76.29 10.32 76.66 8.51 76.71 8.64 78.33 10.43 78.11 12.06 77.98 12.29 80.86 10.66 81 8.86 81.06 8.98 82.68 10.77 82.45 15.34 82.09"/><path class="cls-1" d="M14.88,74.79l1.81.15L16.86,70,15.8,70v.15c0,.29,0,.59,0,.89s0,.54,0,.74l-.05,1.6L13,73.27l0-.94.17-1.64-1.14,0v.15c0,.28,0,.57,0,.87s0,.51,0,.62l0,.95-2.59-.08,0-1.27.16-1.93-1,0-.16,4.74h1.81Z"/><polygon class="cls-1" points="15.11 69.02 16.9 69.35 17.06 68.25 15.25 68.07 11.17 67.48 17.51 64.7 17.57 64.67 17.75 63.5 15.94 63.31 11.42 62.66 9.64 62.31 9.48 63.43 11.27 63.62 15.2 64.18 9.05 66.87 8.98 66.9 8.79 68.16 10.6 68.36 15.11 69.02"/><path class="cls-1" d="M18.87,56.32l-1.09-.21-.92-.25-1.47-.48L15,56.93l1.41.31,1.7.46a1.53,1.53,0,0,1,.06,1.1,2,2,0,0,1-1.07,1.3,3.32,3.32,0,0,1-2.49.13A4.94,4.94,0,0,1,12.37,59a1.9,1.9,0,0,1-.61-2A2.59,2.59,0,0,1,12.33,56a1.93,1.93,0,0,1,.91-.59l.48-.13L12,54.8l-.06.07a4.71,4.71,0,0,0-.58.84,4.43,4.43,0,0,0-.37.91,3.74,3.74,0,0,0,.53,3.31,4.61,4.61,0,0,0,2.62,1.75,4.9,4.9,0,0,0,1.3.18,3.71,3.71,0,0,0,1.76-.43A3.56,3.56,0,0,0,19,59.11a4.91,4.91,0,0,0,.17-1.37,4.28,4.28,0,0,0-.25-1.35Z"/><path class="cls-1" d="M20.76,50.3a7.36,7.36,0,0,1-.49,1.82l-.72,1.8-5.17-6.51-2.14,5.35,1.13.45,0-.18a5.28,5.28,0,0,1,.11-.7,5.52,5.52,0,0,1,.25-.74l.74-1.84,5.17,6.52,2.28-5.69-1.15-.46Z"/><polygon class="cls-1" points="19.34 41.86 17.79 40.93 17.02 42.35 18.64 43.14 20.09 43.92 18.72 46.46 17.27 45.69 15.72 44.77 14.96 46.2 16.58 46.97 20.62 49.14 22.18 50.06 22.93 48.65 21.3 47.86 19.58 46.93 20.95 44.38 22.67 45.31 24.23 46.23 24.99 44.82 23.38 44.03 19.34 41.86"/><path class="cls-1" d="M25.91,36.36a5,5,0,0,0-3-1,2.93,2.93,0,0,0-2.42,1.31,3,3,0,0,0-.5,2.62,4.87,4.87,0,0,0,2,2.53,5,5,0,0,0,2.83,1.07h.24a3,3,0,0,0,2.26-1.35A3,3,0,0,0,27.92,39a4.65,4.65,0,0,0-2-2.63M26.67,41a1.38,1.38,0,0,1-1.32.64A5.26,5.26,0,0,1,23,40.51a5.24,5.24,0,0,1-1.84-1.91,1.39,1.39,0,0,1,.17-1.44,1.37,1.37,0,0,1,1.18-.63h.14a5.25,5.25,0,0,1,2.4,1.1,5.22,5.22,0,0,1,1.84,1.91A1.38,1.38,0,0,1,26.67,41"/><path class="cls-1" d="M29,29.53l-1.28-1.27-.76.83,1.39,1.14,2.93,2.68c.79.72.78,1.5,0,2.38a1.52,1.52,0,0,1-1.08.6h0a2.07,2.07,0,0,1-1.25-.65l-2.79-2.55L24.8,31.4l-1.11,1.21,1.39,1.14L28,36.4a2.34,2.34,0,0,0,1.61.68A2.28,2.28,0,0,0,30,37a3.48,3.48,0,0,0,1.88-1.15A2.77,2.77,0,0,0,32.76,34a2.48,2.48,0,0,0-.9-1.78Z"/><path class="cls-1" d="M37.65,22.27l-1-1.48-.9.68,1.17,1.37L39.29,26c.65.85.5,1.62-.44,2.34a1.5,1.5,0,0,1-1.19.39,2.07,2.07,0,0,1-1.12-.86l-2.29-3-1-1.49-1.31,1,1.17,1.37,2.38,3.12a2.28,2.28,0,0,0,1.87,1h0a3.49,3.49,0,0,0,2.05-.8,2.77,2.77,0,0,0,1.17-1.75A2.48,2.48,0,0,0,40,25.4Z"/><polygon class="cls-1" points="44.35 18.23 43.51 16.63 42.53 17.19 43.51 18.71 45.5 22.14 39.51 18.96 38.4 19.6 39.37 21.13 41.66 25.08 42.51 26.68 43.47 26.13 42.49 24.6 40.41 21.03 46.53 24.27 46.6 24.3 47.62 23.71 46.65 22.18 44.35 18.23"/><polygon class="cls-1" points="47.32 16.85 46.6 15.18 45.15 15.87 46 17.47 47.95 21.59 48.67 23.26 50.11 22.58 49.27 20.97 47.32 16.85"/><path class="cls-1" d="M53.4,14.4l0-2-1.07.42.14,1.84.23,4.52-2.94-3.46-1.13-1.46L47,14.91l.14.15.57.61c.55.59.63.69.64.71l4.36,5.1,1.44-.56-.47-.52Z"/><path class="cls-1" d="M60.56,17.83l-.83.3-.71.22-1.55.44-.75-2.67.9-.25,1.62-.34-.31-1.1-.14.05-.82.3-.58.19-.92.26-.71-2.5L57,12.38l1.89-.43-.28-1L54,12.26,54.6,14l1.24,4.39.41,1.77L61,18.8l-.29-1Z"/><path class="cls-1" d="M65.77,13.35a2.28,2.28,0,0,0,.28-1.58,1.91,1.91,0,0,0-1-1.4,3.16,3.16,0,0,0-2.09-.25l-2.68.46.28,1.14.89,5.13.22,1.79,1.6-.27-.38-1.77-.29-1.66.11,0L64.85,17l.89,1,1.87-.32-3.38-3.13a2.69,2.69,0,0,0,1.54-1.14m-1.53-.1a2.23,2.23,0,0,1-1.41.75l-.42,0-.48-2.79.5-.09a2.42,2.42,0,0,1,1.49.12,1.11,1.11,0,0,1,.64.85,1.33,1.33,0,0,1-.33,1.11"/><path class="cls-1" d="M70.42,12.75l-.78-.35a3.17,3.17,0,0,1-.8-.47.77.77,0,0,1-.31-.54,1.13,1.13,0,0,1,.31-.81,1.18,1.18,0,0,1,.86-.43,2.24,2.24,0,0,1,.89.17,2.79,2.79,0,0,1,.8.44l.25.21-.1-1.45-.1,0-.7-.15a4.91,4.91,0,0,0-1.08-.12,2.8,2.8,0,0,0-1.83.81,2.07,2.07,0,0,0-.69,1.64,2,2,0,0,0,.49,1.18,3.9,3.9,0,0,0,1.46.92l.61.25a2.85,2.85,0,0,1,1,.63,1.07,1.07,0,0,1,.24.65,1.13,1.13,0,0,1-.36.89,1.46,1.46,0,0,1-1,.45,2.78,2.78,0,0,1-.87,0A3,3,0,0,1,67.66,16l-.25-.22.1,1.43.07,0a3.32,3.32,0,0,0,.58.23,4.24,4.24,0,0,0,1.23.18h.32a2.9,2.9,0,0,0,2-.92,2.34,2.34,0,0,0,.62-1.79A2.07,2.07,0,0,0,72,13.78a4.21,4.21,0,0,0-1.58-1"/><polygon class="cls-1" points="74.89 9.19 73.28 9.19 73.36 11 73.35 15.56 73.27 17.38 74.86 17.38 74.81 15.57 74.82 11.01 74.89 9.19"/><polygon class="cls-1" points="84.82 11.86 83.51 13.47 82.78 11.54 82.1 9.69 80.27 9.41 80.3 9.47 75.43 9.15 75.36 10.23 76.79 10.21 77.41 10.25 77.05 15.64 76.83 17.45 78.49 17.56 78.51 15.75 78.87 10.35 79.47 10.39 80.8 10.58 81.19 11.45 82.34 14.4 82.07 16.13 81.74 17.92 83.31 18.16 83.54 16.36 83.81 14.59 85.81 12.17 87.3 10.49 86.03 10.29 84.82 11.86"/><path class="cls-1" d="M96.24,14.25a2.92,2.92,0,0,0-2-1.92,3,3,0,0,0-2.65.29,4.86,4.86,0,0,0-1.81,2.69,4.8,4.8,0,0,0-.11,3.25,3,3,0,0,0,2,1.76,3.42,3.42,0,0,0,1.07.18,2.91,2.91,0,0,0,1.48-.4,4.64,4.64,0,0,0,1.91-2.7,4.93,4.93,0,0,0,.13-3.14m-1.6,2.64h0a5.24,5.24,0,0,1-1.28,2.32,1.51,1.51,0,0,1-2.43-.81,5.27,5.27,0,0,1,.35-2.62,5.21,5.21,0,0,1,1.28-2.32,1.36,1.36,0,0,1,.91-.35,1.67,1.67,0,0,1,.52.09,1.38,1.38,0,0,1,1,1.07,5.23,5.23,0,0,1-.34,2.62"/><path class="cls-1" d="M101.13,16.16l1.67.86.42-.93-4.31-1.94-.69,1.68L96.35,20l-.81,1.63,1.44.65.7-1.67.79-1.75.89.4,1.42.76.47-1.05-.14,0-.38-.13c-.53-.19-.85-.31-1-.37l-.9-.41,1.07-2.39Z"/><path class="cls-1" d="M107.38,26.85l-.8-.44-.61-.36-1.22-.78,2.9-4.57,1-1.48-1.36-.86-.91,1.55L104,23.78l-1,1.49,4,2.54.57-.89Z"/><polygon class="cls-1" points="113.3 22.39 112 21.44 111 22.95 108.3 26.63 107.16 28.05 108.45 29 109.47 27.5 112.17 23.82 113.3 22.39"/><path class="cls-1" d="M115.73,31.47l1.07-1.11-1.21-1.06-.89,1.13-1.16,1.32a1.54,1.54,0,0,1-1-.43,2,2,0,0,1-.7-1.53,3.33,3.33,0,0,1,1-2.29,4.94,4.94,0,0,1,2-1.47,1.9,1.9,0,0,1,2,.31,2.56,2.56,0,0,1,.7,1,1.93,1.93,0,0,1,.14,1.08l-.09.49,1.21-1.38,0-.08a4.55,4.55,0,0,0-.5-.89,4.45,4.45,0,0,0-.66-.73,3.74,3.74,0,0,0-3.21-1,4.6,4.6,0,0,0-2.72,1.59,4.07,4.07,0,0,0-1.12,2.86,3.56,3.56,0,0,0,1.3,2.63,4.92,4.92,0,0,0,1.15.75,4.3,4.3,0,0,0,1.33.37h.08l.66-.89Z"/><polygon class="cls-1" points="123.38 34.55 124.78 33.42 123.71 32.2 122.41 33.45 121.19 34.54 119.27 32.38 120.49 31.3 121.89 30.15 120.81 28.94 119.53 30.2 116.1 33.24 114.7 34.38 115.76 35.59 117.07 34.33 118.53 33.03 120.45 35.19 118.99 36.49 117.58 37.64 118.65 38.84 119.95 37.59 123.38 34.55"/><polygon class="cls-1" points="126.93 38.01 127.68 39.24 128.56 38.61 125.4 34.22 125.32 34.1 124.44 34.74 125.36 35.83 125.73 36.34 121.34 39.49 119.81 40.47 120.77 41.81 122.19 40.68 126.58 37.52 126.93 38.01"/><polygon class="cls-1" points="129.86 44.45 131.48 43.63 130.7 42.22 129.16 43.17 125.16 45.37 123.53 46.19 124.31 47.58 125.86 46.66 129.86 44.45"/><polygon class="cls-1" points="133.09 51.25 134.78 50.59 134.31 49.56 132.7 50.37 129.09 51.99 132.83 46.42 132.87 46.36 132.35 45.2 130.72 46 126.56 47.87 124.88 48.55 125.33 49.56 126.95 48.75 130.72 47.05 126.86 52.8 126.82 52.86 127.3 53.94 128.93 53.13 133.09 51.25"/><path class="cls-1" d="M131.58,59.76a6.14,6.14,0,0,0,1.81-.31,4.31,4.31,0,0,0,2.58-1.8,3.49,3.49,0,0,0,.21-2.9l-.68-2.18-1.71.61-4.2,1.3-1.92.5.72,2.32a3.31,3.31,0,0,0,1.78,2.17,3.39,3.39,0,0,0,1.41.28m-2.24-2.64-.29-.95,6-1.87.21.69a1.91,1.91,0,0,1-.19,1.78A4.15,4.15,0,0,1,132.93,58a4.58,4.58,0,0,1-2.52.24,1.56,1.56,0,0,1-1.07-1.14"/><path class="cls-1" d="M132.06,61.11a2.27,2.27,0,0,0-1.75,1.25,3.47,3.47,0,0,0-.22,2.19,2.76,2.76,0,0,0,1,1.84,2.27,2.27,0,0,0,1.36.41,3.38,3.38,0,0,0,.6-.06l3.87-.7,1.79-.25-.2-1.11-1.75.42-3.91.71a1.58,1.58,0,0,1-1.21-.18,1.89,1.89,0,0,1-.67-1.27,1.51,1.51,0,0,1,.19-1.24,2.06,2.06,0,0,1,1.28-.6l3.72-.68,1.79-.24L137.68,60l-1.75.42Z"/><path class="cls-1" d="M136.75,67.6a2,2,0,0,0-1.18.49,3.93,3.93,0,0,0-.92,1.47l-.26.61a2.77,2.77,0,0,1-.63,1,1.06,1.06,0,0,1-.65.25,1.15,1.15,0,0,1-.9-.36,1.45,1.45,0,0,1-.46-1,2.61,2.61,0,0,1,0-.87,2.92,2.92,0,0,1,.64-1.08l.22-.25-1.43.1,0,.07a3.06,3.06,0,0,0-.23.58,4.36,4.36,0,0,0-.16,1.55,2.9,2.9,0,0,0,.92,2,2.33,2.33,0,0,0,1.6.62h.2a2.09,2.09,0,0,0,1.13-.36,4.27,4.27,0,0,0,1-1.58l.34-.78a3.2,3.2,0,0,1,.47-.8A.79.79,0,0,1,137,69a1.13,1.13,0,0,1,.81.31,1.17,1.17,0,0,1,.44.86,2.2,2.2,0,0,1-.17.89,2.73,2.73,0,0,1-.43.8l-.21.25,1.45-.1,0-.1c.07-.3.12-.54.15-.7a5,5,0,0,0,.12-1.08,2.8,2.8,0,0,0-.82-1.83,2.07,2.07,0,0,0-1.64-.69"/><polygon class="cls-1" points="138.22 72.78 138.3 74.2 138.29 74.83 132.9 74.74 131.08 74.61 131.05 76.27 132.86 76.2 138.27 76.29 138.26 76.89 138.12 78.33 139.21 78.34 139.29 72.8 138.22 72.78"/><path class="cls-1" d="M132.79,78.54,131,78.26l-.18,1.61,1.81.13,1.67.19v.11l-2.58,1.51-1.17.59-.21,1.89,4-2.37a2.68,2.68,0,0,0,.67,1.79,2.27,2.27,0,0,0,1.44.71h.24a1.91,1.91,0,0,0,1.4-.61,3.18,3.18,0,0,0,.82-1.94l.3-2.7L138,79.12ZM138,80.6l-.06.51a2.43,2.43,0,0,1-.53,1.4,1.1,1.1,0,0,1-1,.38,1.34,1.34,0,0,1-1-.62,2.23,2.23,0,0,1-.33-1.56,3.25,3.25,0,0,1,.07-.42Z"/><polygon class="cls-1" points="133.43 86.59 131.72 86.22 129.95 85.77 129.62 87.33 131.4 87.66 133.15 88.04 135.45 90.18 137.03 91.77 137.31 90.52 135.82 89.21 134.28 87.81 136.25 87.19 138.15 86.63 138.54 84.82 136.44 85.61 133.43 86.59"/></g></g></svg>